<ttFont>
    <TTGlyph name="A" xMin="36" yMin="16" xMax="1225" yMax="1405">
      <contour>
        <pt x="891" y="590" on="1"/>
        <pt x="946" y="590" on="0"/>
        <pt x="946" y="626" on="1"/>
        <pt x="945" y="635" on="1"/>
        <pt x="945" y="643" on="1"/>
        <pt x="945" y="713" on="0"/>
        <pt x="869" y="1167" on="0"/>
        <pt x="855" y="1206" on="0"/>
        <pt x="841" y="1206" on="0"/>
        <pt x="509" y="615" on="0"/>
        <pt x="509" y="587" on="0"/>
        <pt x="682" y="587" on="1"/>
        <pt x="847" y="587" on="1"/>
        <pt x="874" y="590" on="0"/>
      </contour>
      <contour>
        <pt x="1014" y="1306" on="1"/>
        <pt x="1028" y="1254" on="0"/>
        <pt x="1142" y="362" on="0"/>
        <pt x="1142" y="320" on="1"/>
        <pt x="1152" y="262" on="0"/>
        <pt x="1174" y="229" on="1"/>
        <pt x="1225" y="154" on="0"/>
        <pt x="1225" y="93" on="0"/>
        <pt x="1120" y="21" on="0"/>
        <pt x="1067" y="21" on="1"/>
        <pt x="946" y="21" on="0"/>
        <pt x="946" y="69" on="1"/>
        <pt x="946" y="87" on="0"/>
        <pt x="978" y="171" on="0"/>
        <pt x="978" y="218" on="1"/>
        <pt x="978" y="388" on="0"/>
        <pt x="911" y="443" on="1"/>
        <pt x="873" y="474" on="0"/>
        <pt x="471" y="474" on="0"/>
        <pt x="429" y="434" on="1"/>
        <pt x="360" y="369" on="0"/>
        <pt x="302" y="229" on="1"/>
        <pt x="281" y="179" on="0"/>
        <pt x="260" y="62" on="0"/>
        <pt x="254" y="52" on="1"/>
        <pt x="231" y="16" on="0"/>
        <pt x="150" y="16" on="1"/>
        <pt x="107" y="16" on="0"/>
        <pt x="36" y="84" on="0"/>
        <pt x="36" y="135" on="0"/>
        <pt x="63" y="169" on="1"/>
        <pt x="229" y="379" on="0"/>
        <pt x="606" y="1049" on="0"/>
        <pt x="777" y="1306" on="1"/>
        <pt x="843" y="1405" on="0"/>
        <pt x="988" y="1405" on="0"/>
      </contour>
    </TTGlyph>
    <TTGlyph name="AE" xMin="106" yMin="36" xMax="1809" yMax="1385">
      <contour>
        <pt x="884" y="608" on="1"/>
        <pt x="947" y="608" on="0"/>
        <pt x="947" y="675" on="1"/>
        <pt x="947" y="712" on="0"/>
        <pt x="1035" y="1066" on="0"/>
        <pt x="1082" y="1198" on="0"/>
        <pt x="1082" y="1261" on="0"/>
        <pt x="1064" y="1261" on="1"/>
        <pt x="1033" y="1261" on="0"/>
        <pt x="831" y="898" on="0"/>
        <pt x="779" y="842" on="1"/>
        <pt x="616" y="667" on="0"/>
        <pt x="616" y="653" on="1"/>
        <pt x="616" y="614" on="0"/>
        <pt x="785" y="614" on="1"/>
        <pt x="870" y="608" on="1"/>
      </contour>
      <contour>
        <pt x="1235" y="950" on="1"/>
        <pt x="1236" y="822" on="0"/>
        <pt x="1322" y="822" on="1"/>
        <pt x="1366" y="822" on="0"/>
        <pt x="1411" y="826" on="1"/>
        <pt x="1452" y="830" on="1"/>
        <pt x="1512" y="837" on="0"/>
        <pt x="1520" y="837" on="1"/>
        <pt x="1636" y="837" on="0"/>
        <pt x="1636" y="715" on="1"/>
        <pt x="1636" y="678" on="0"/>
        <pt x="1590" y="637" on="0"/>
        <pt x="1551" y="637" on="1"/>
        <pt x="1518" y="646" on="1"/>
        <pt x="1486" y="659" on="1"/>
        <pt x="1442" y="673" on="0"/>
        <pt x="1409" y="673" on="1"/>
        <pt x="1244" y="673" on="0"/>
        <pt x="1116" y="519" on="0"/>
        <pt x="1116" y="347" on="1"/>
        <pt x="1116" y="244" on="0"/>
        <pt x="1149" y="206" on="1"/>
        <pt x="1202" y="145" on="0"/>
        <pt x="1434" y="145" on="0"/>
        <pt x="1552" y="188" on="1"/>
        <pt x="1583" y="200" on="1"/>
        <pt x="1627" y="218" on="0"/>
        <pt x="1633" y="218" on="1"/>
        <pt x="1673" y="218" on="0"/>
        <pt x="1673" y="87" on="0"/>
        <pt x="1597" y="56" on="1"/>
        <pt x="1547" y="36" on="0"/>
        <pt x="1427" y="36" on="1"/>
        <pt x="1234" y="40" on="1"/>
        <pt x="970" y="40" on="0"/>
        <pt x="854" y="71" on="0"/>
        <pt x="854" y="118" on="1"/>
        <pt x="854" y="127" on="0"/>
        <pt x="917" y="331" on="0"/>
        <pt x="917" y="464" on="0"/>
        <pt x="836" y="509" on="0"/>
        <pt x="758" y="509" on="1"/>
        <pt x="590" y="509" on="0"/>
        <pt x="420" y="350" on="0"/>
        <pt x="330" y="208" on="1"/>
        <pt x="298" y="158" on="0"/>
        <pt x="293" y="117" on="1"/>
        <pt x="285" y="54" on="0"/>
        <pt x="180" y="54" on="0"/>
        <pt x="106" y="120" on="0"/>
        <pt x="106" y="176" on="0"/>
        <pt x="240" y="297" on="0"/>
        <pt x="328" y="417" on="0"/>
        <pt x="487" y="653" on="0"/>
        <pt x="612" y="819" on="0"/>
        <pt x="731" y="981" on="0"/>
        <pt x="900" y="1196" on="0"/>
        <pt x="928" y="1239" on="1"/>
        <pt x="946" y="1269" on="1"/>
        <pt x="956" y="1293" on="1"/>
        <pt x="970" y="1320" on="0"/>
        <pt x="987" y="1335" on="1"/>
        <pt x="1027" y="1371" on="0"/>
        <pt x="1304" y="1371" on="1"/>
        <pt x="1364" y="1371" on="0"/>
        <pt x="1441" y="1375" on="1"/>
        <pt x="1636" y="1385" on="1"/>
        <pt x="1682" y="1385" on="1"/>
        <pt x="1746" y="1385" on="0"/>
        <pt x="1809" y="1342" on="0"/>
        <pt x="1809" y="1309" on="1"/>
        <pt x="1809" y="1237" on="0"/>
        <pt x="1775" y="1237" on="1"/>
        <pt x="1766" y="1237" on="0"/>
        <pt x="1736" y="1249" on="1"/>
        <pt x="1684" y="1271" on="1"/>
        <pt x="1574" y="1306" on="0"/>
        <pt x="1494" y="1306" on="1"/>
        <pt x="1365" y="1306" on="0"/>
        <pt x="1318" y="1246" on="1"/>
        <pt x="1293" y="1214" on="0"/>
        <pt x="1235" y="1018" on="0"/>
      </contour>
    </TTGlyph>
    <TTGlyph name="Aacute" xMin="144" yMin="154" xMax="1256" yMax="1824">
      <contour>
        <pt x="853" y="1247" on="1"/>
        <pt x="843" y="1247" on="0"/>
        <pt x="505" y="646" on="0"/>
        <pt x="505" y="643" on="1"/>
        <pt x="505" y="627" on="0"/>
        <pt x="593" y="627" on="1"/>
        <pt x="833" y="627" on="1"/>
        <pt x="860" y="629" on="1"/>
        <pt x="895" y="631" on="1"/>
        <pt x="944" y="631" on="0"/>
        <pt x="944" y="665" on="1"/>
        <pt x="944" y="673" on="1"/>
        <pt x="943" y="682" on="1"/>
        <pt x="939" y="733" on="1"/>
        <pt x="939" y="791" on="0"/>
        <pt x="874" y="1204" on="0"/>
        <pt x="858" y="1247" on="0"/>
      </contour>
      <contour>
        <pt x="1118" y="1824" on="1"/>
        <pt x="1130" y="1824" on="1"/>
        <pt x="1182" y="1824" on="0"/>
        <pt x="1182" y="1769" on="1"/>
        <pt x="1182" y="1691" on="0"/>
        <pt x="984" y="1529" on="0"/>
        <pt x="933" y="1529" on="1"/>
        <pt x="914" y="1529" on="0"/>
        <pt x="782" y="1441" on="0"/>
        <pt x="762" y="1441" on="1"/>
        <pt x="754" y="1441" on="0"/>
        <pt x="754" y="1456" on="1"/>
        <pt x="754" y="1481" on="1"/>
        <pt x="757" y="1498" on="1"/>
        <pt x="757" y="1522" on="0"/>
        <pt x="1089" y="1824" on="0"/>
      </contour>
      <contour>
        <pt x="886" y="1465" on="0"/>
        <pt x="992" y="1465" on="0"/>
        <pt x="1016" y="1380" on="1"/>
        <pt x="1020" y="1365" on="0"/>
        <pt x="1143" y="753" on="0"/>
        <pt x="1180" y="441" on="0"/>
        <pt x="1195" y="380" on="0"/>
        <pt x="1256" y="294" on="0"/>
        <pt x="1256" y="232" on="0"/>
        <pt x="1170" y="163" on="0"/>
        <pt x="1123" y="163" on="1"/>
        <pt x="1009" y="163" on="0"/>
        <pt x="1009" y="218" on="1"/>
        <pt x="1009" y="227" on="0"/>
        <pt x="1032" y="292" on="0"/>
        <pt x="1032" y="337" on="1"/>
        <pt x="1032" y="478" on="0"/>
        <pt x="956" y="541" on="1"/>
        <pt x="919" y="572" on="0"/>
        <pt x="753" y="572" on="1"/>
        <pt x="703" y="574" on="1"/>
        <pt x="652" y="573" on="1"/>
        <pt x="534" y="573" on="0"/>
        <pt x="491" y="530" on="1"/>
        <pt x="424" y="463" on="0"/>
        <pt x="365" y="340" on="1"/>
        <pt x="346" y="301" on="0"/>
        <pt x="328" y="192" on="0"/>
        <pt x="320" y="181" on="1"/>
        <pt x="300" y="154" on="0"/>
        <pt x="208" y="154" on="0"/>
        <pt x="144" y="212" on="0"/>
        <pt x="144" y="277" on="0"/>
        <pt x="190" y="322" on="1"/>
        <pt x="267" y="396" on="0"/>
        <pt x="689" y="1173" on="0"/>
        <pt x="831" y="1384" on="1"/>
      </contour>
    </TTGlyph>
    <TTGlyph name="Acircumflex" xMin="33" yMin="38" xMax="1218" yMax="1845">
      <contour>
        <pt x="952" y="664" on="1"/>
        <pt x="947" y="704" on="0"/>
        <pt x="947" y="770" on="0"/>
        <pt x="883" y="1177" on="0"/>
        <pt x="862" y="1238" on="0"/>
        <pt x="846" y="1238" on="0"/>
        <pt x="509" y="639" on="0"/>
        <pt x="509" y="620" on="0"/>
        <pt x="546" y="620" on="1"/>
        <pt x="868" y="620" on="1"/>
        <pt x="886" y="622" on="0"/>
        <pt x="894" y="622" on="1"/>
        <pt x="952" y="622" on="0"/>
        <pt x="952" y="656" on="1"/>
      </contour>
      <contour>
        <pt x="988" y="1845" on="1"/>
        <pt x="995" y="1845" on="1"/>
        <pt x="1040" y="1845" on="0"/>
        <pt x="1082" y="1772" on="1"/>
        <pt x="1090" y="1758" on="0"/>
        <pt x="1132" y="1698" on="0"/>
        <pt x="1205" y="1579" on="0"/>
        <pt x="1205" y="1569" on="1"/>
        <pt x="1205" y="1546" on="0"/>
        <pt x="1129" y="1546" on="0"/>
        <pt x="986" y="1732" on="0"/>
        <pt x="968" y="1732" on="1"/>
        <pt x="958" y="1732" on="0"/>
        <pt x="731" y="1540" on="0"/>
        <pt x="690" y="1540" on="1"/>
        <pt x="683" y="1540" on="1"/>
        <pt x="661" y="1540" on="0"/>
        <pt x="661" y="1555" on="1"/>
        <pt x="661" y="1560" on="1"/>
        <pt x="661" y="1569" on="0"/>
        <pt x="794" y="1692" on="0"/>
        <pt x="802" y="1700" on="1"/>
        <pt x="935" y="1845" on="0"/>
      </contour>
      <contour>
        <pt x="916" y="1420" on="1"/>
        <pt x="937" y="1420" on="1"/>
        <pt x="988" y="1420" on="0"/>
        <pt x="1023" y="1262" on="1"/>
        <pt x="1027" y="1244" on="0"/>
        <pt x="1106" y="625" on="0"/>
        <pt x="1136" y="303" on="0"/>
        <pt x="1136" y="301" on="1"/>
        <pt x="1144" y="261" on="0"/>
        <pt x="1218" y="174" on="0"/>
        <pt x="1218" y="113" on="0"/>
        <pt x="1121" y="40" on="0"/>
        <pt x="1062" y="40" on="1"/>
        <pt x="940" y="40" on="0"/>
        <pt x="940" y="86" on="1"/>
        <pt x="940" y="103" on="0"/>
        <pt x="981" y="185" on="0"/>
        <pt x="981" y="326" on="0"/>
        <pt x="924" y="456" on="0"/>
        <pt x="859" y="495" on="0"/>
        <pt x="616" y="495" on="1"/>
        <pt x="475" y="495" on="0"/>
        <pt x="419" y="437" on="1"/>
        <pt x="345" y="361" on="0"/>
        <pt x="287" y="231" on="1"/>
        <pt x="274" y="202" on="0"/>
        <pt x="261" y="81" on="0"/>
        <pt x="222" y="38" on="0"/>
        <pt x="164" y="38" on="1"/>
        <pt x="145" y="38" on="1"/>
        <pt x="105" y="38" on="0"/>
        <pt x="33" y="98" on="0"/>
        <pt x="33" y="117" on="1"/>
        <pt x="33" y="176" on="0"/>
        <pt x="783" y="1313" on="1"/>
        <pt x="854" y="1420" on="0"/>
      </contour>
    </TTGlyph>
    <TTGlyph name="Adieresis" xMin="60" yMin="67" xMax="1221" yMax="1789">
      <contour>
        <pt x="936" y="709" on="0"/>
        <pt x="936" y="778" on="0"/>
        <pt x="866" y="1199" on="0"/>
        <pt x="852" y="1236" on="0"/>
        <pt x="837" y="1236" on="0"/>
        <pt x="503" y="642" on="0"/>
        <pt x="503" y="638" on="1"/>
        <pt x="503" y="632" on="1"/>
        <pt x="503" y="618" on="0"/>
        <pt x="696" y="618" on="1"/>
        <pt x="733" y="617" on="1"/>
        <pt x="816" y="617" on="1"/>
        <pt x="825" y="618" on="1"/>
        <pt x="843" y="618" on="1"/>
        <pt x="878" y="620" on="1"/>
        <pt x="941" y="620" on="0"/>
        <pt x="941" y="658" on="1"/>
        <pt x="940" y="666" on="1"/>
        <pt x="940" y="675" on="1"/>
      </contour>
      <contour>
        <pt x="870" y="1696" on="1"/>
        <pt x="868" y="1671" on="1"/>
        <pt x="868" y="1658" on="0"/>
        <pt x="813" y="1603" on="0"/>
        <pt x="789" y="1603" on="1"/>
        <pt x="771" y="1600" on="1"/>
        <pt x="749" y="1600" on="1"/>
        <pt x="684" y="1600" on="0"/>
        <pt x="684" y="1665" on="1"/>
        <pt x="684" y="1689" on="1"/>
        <pt x="688" y="1710" on="1"/>
        <pt x="688" y="1725" on="0"/>
        <pt x="739" y="1789" on="0"/>
        <pt x="779" y="1789" on="1"/>
        <pt x="801" y="1789" on="1"/>
        <pt x="804" y="1788" on="1"/>
        <pt x="810" y="1788" on="1"/>
        <pt x="819" y="1785" on="0"/>
        <pt x="822" y="1785" on="1"/>
        <pt x="871" y="1785" on="0"/>
        <pt x="871" y="1723" on="1"/>
        <pt x="871" y="1699" on="1"/>
      </contour>
      <contour>
        <pt x="1054" y="1555" on="1"/>
        <pt x="1016" y="1555" on="0"/>
        <pt x="1016" y="1577" on="1"/>
        <pt x="1002" y="1605" on="0"/>
        <pt x="1002" y="1611" on="1"/>
        <pt x="1000" y="1617" on="0"/>
        <pt x="1000" y="1620" on="1"/>
        <pt x="999" y="1626" on="1"/>
        <pt x="999" y="1629" on="0"/>
        <pt x="999" y="1632" on="1"/>
        <pt x="998" y="1638" on="1"/>
        <pt x="998" y="1665" on="0"/>
        <pt x="1093" y="1760" on="0"/>
        <pt x="1136" y="1760" on="1"/>
        <pt x="1142" y="1762" on="0"/>
        <pt x="1146" y="1762" on="1"/>
        <pt x="1163" y="1764" on="1"/>
        <pt x="1207" y="1764" on="0"/>
        <pt x="1207" y="1719" on="1"/>
        <pt x="1210" y="1701" on="1"/>
        <pt x="1210" y="1697" on="1"/>
        <pt x="1209" y="1694" on="1"/>
        <pt x="1209" y="1687" on="1"/>
        <pt x="1207" y="1680" on="1"/>
        <pt x="1207" y="1676" on="1"/>
        <pt x="1206" y="1672" on="1"/>
        <pt x="1203" y="1646" on="1"/>
        <pt x="1203" y="1625" on="0"/>
        <pt x="1140" y="1562" on="0"/>
        <pt x="1125" y="1560" on="0"/>
        <pt x="1121" y="1560" on="1"/>
        <pt x="1110" y="1558" on="1"/>
        <pt x="1103" y="1558" on="1"/>
        <pt x="1088" y="1556" on="1"/>
        <pt x="1080" y="1556" on="1"/>
        <pt x="1065" y="1555" on="1"/>
      </contour>
      <contour>
        <pt x="916" y="1428" on="1"/>
        <pt x="937" y="1428" on="1"/>
        <pt x="1005" y="1428" on="0"/>
        <pt x="1053" y="1056" on="1"/>
        <pt x="1081" y="840" on="0"/>
        <pt x="1101" y="705" on="0"/>
        <pt x="1116" y="570" on="1"/>
        <pt x="1123" y="516" on="1"/>
        <pt x="1126" y="490" on="0"/>
        <pt x="1140" y="338" on="0"/>
        <pt x="1149" y="289" on="0"/>
        <pt x="1221" y="199" on="0"/>
        <pt x="1221" y="140" on="0"/>
        <pt x="1129" y="69" on="0"/>
        <pt x="1072" y="69" on="1"/>
        <pt x="954" y="69" on="0"/>
        <pt x="954" y="113" on="1"/>
        <pt x="954" y="137" on="0"/>
        <pt x="989" y="209" on="0"/>
        <pt x="989" y="342" on="0"/>
        <pt x="929" y="474" on="0"/>
        <pt x="863" y="513" on="0"/>
        <pt x="627" y="513" on="1"/>
        <pt x="485" y="513" on="0"/>
        <pt x="434" y="459" on="1"/>
        <pt x="362" y="383" on="0"/>
        <pt x="305" y="258" on="1"/>
        <pt x="290" y="225" on="0"/>
        <pt x="274" y="106" on="0"/>
        <pt x="241" y="67" on="0"/>
        <pt x="184" y="67" on="1"/>
        <pt x="166" y="67" on="1"/>
        <pt x="134" y="67" on="0"/>
        <pt x="60" y="123" on="0"/>
        <pt x="60" y="184" on="0"/>
        <pt x="113" y="236" on="1"/>
        <pt x="190" y="311" on="0"/>
        <pt x="662" y="1149" on="0"/>
        <pt x="801" y="1347" on="1"/>
        <pt x="858" y="1428" on="0"/>
      </contour>
    </TTGlyph>
    <TTGlyph name="Agrave" xMin="37" yMin="47" xMax="1222" yMax="1862">
      <contour>
        <pt x="950" y="696" on="0"/>
        <pt x="950" y="742" on="0"/>
        <pt x="879" y="1194" on="0"/>
        <pt x="860" y="1247" on="0"/>
        <pt x="855" y="1247" on="1"/>
        <pt x="845" y="1247" on="0"/>
        <pt x="513" y="657" on="0"/>
        <pt x="513" y="645" on="1"/>
        <pt x="513" y="627" on="0"/>
        <pt x="721" y="627" on="1"/>
        <pt x="814" y="626" on="1"/>
        <pt x="832" y="626" on="1"/>
        <pt x="952" y="626" on="0"/>
        <pt x="952" y="663" on="1"/>
        <pt x="952" y="680" on="1"/>
      </contour>
      <contour>
        <pt x="1013" y="1542" on="1"/>
        <pt x="1004" y="1542" on="1"/>
        <pt x="966" y="1542" on="0"/>
        <pt x="694" y="1814" on="0"/>
        <pt x="694" y="1825" on="1"/>
        <pt x="694" y="1836" on="1"/>
        <pt x="694" y="1862" on="0"/>
        <pt x="750" y="1862" on="1"/>
        <pt x="754" y="1862" on="1"/>
        <pt x="759" y="1861" on="1"/>
        <pt x="808" y="1861" on="0"/>
        <pt x="854" y="1815" on="1"/>
        <pt x="1033" y="1636" on="0"/>
        <pt x="1033" y="1562" on="1"/>
        <pt x="1033" y="1558" on="1"/>
        <pt x="1033" y="1542" on="0"/>
      </contour>
      <contour>
        <pt x="920" y="1429" on="1"/>
        <pt x="941" y="1429" on="1"/>
        <pt x="992" y="1429" on="0"/>
        <pt x="1027" y="1271" on="1"/>
        <pt x="1031" y="1253" on="0"/>
        <pt x="1110" y="630" on="0"/>
        <pt x="1139" y="316" on="0"/>
        <pt x="1148" y="270" on="0"/>
        <pt x="1222" y="183" on="0"/>
        <pt x="1222" y="122" on="0"/>
        <pt x="1125" y="49" on="0"/>
        <pt x="1066" y="49" on="1"/>
        <pt x="944" y="49" on="0"/>
        <pt x="944" y="95" on="1"/>
        <pt x="944" y="112" on="0"/>
        <pt x="985" y="194" on="0"/>
        <pt x="985" y="337" on="0"/>
        <pt x="927" y="465" on="0"/>
        <pt x="863" y="504" on="0"/>
        <pt x="620" y="504" on="1"/>
        <pt x="479" y="504" on="0"/>
        <pt x="423" y="446" on="1"/>
        <pt x="349" y="370" on="0"/>
        <pt x="291" y="240" on="1"/>
        <pt x="278" y="211" on="0"/>
        <pt x="265" y="90" on="0"/>
        <pt x="226" y="47" on="0"/>
        <pt x="168" y="47" on="1"/>
        <pt x="149" y="47" on="1"/>
        <pt x="109" y="47" on="0"/>
        <pt x="37" y="107" on="0"/>
        <pt x="37" y="126" on="1"/>
        <pt x="37" y="185" on="0"/>
        <pt x="787" y="1322" on="1"/>
        <pt x="858" y="1429" on="0"/>
      </contour>
    </TTGlyph>
    <TTGlyph name="Aring" xMin="29" yMin="29" xMax="1231" yMax="1892">
      <contour>
        <pt x="951" y="1824" on="1"/>
        <pt x="916" y="1824" on="0"/>
        <pt x="848" y="1756" on="0"/>
        <pt x="848" y="1718" on="1"/>
        <pt x="848" y="1693" on="1"/>
        <pt x="848" y="1656" on="0"/>
        <pt x="901" y="1603" on="0"/>
        <pt x="933" y="1603" on="1"/>
        <pt x="957" y="1603" on="1"/>
        <pt x="969" y="1606" on="0"/>
        <pt x="993" y="1606" on="0"/>
        <pt x="1058" y="1671" on="0"/>
        <pt x="1058" y="1716" on="1"/>
        <pt x="1058" y="1730" on="1"/>
        <pt x="1058" y="1769" on="0"/>
        <pt x="1006" y="1821" on="0"/>
        <pt x="986" y="1821" on="1"/>
        <pt x="969" y="1824" on="1"/>
      </contour>
      <contour>
        <pt x="953" y="709" on="0"/>
        <pt x="953" y="747" on="0"/>
        <pt x="877" y="1234" on="0"/>
        <pt x="857" y="1234" on="1"/>
        <pt x="849" y="1234" on="0"/>
        <pt x="518" y="645" on="0"/>
        <pt x="518" y="620" on="0"/>
        <pt x="713" y="620" on="1"/>
        <pt x="749" y="619" on="1"/>
        <pt x="777" y="619" on="1"/>
        <pt x="786" y="620" on="1"/>
        <pt x="867" y="621" on="1"/>
        <pt x="903" y="623" on="1"/>
        <pt x="958" y="623" on="0"/>
        <pt x="958" y="658" on="1"/>
        <pt x="957" y="667" on="1"/>
        <pt x="957" y="675" on="1"/>
      </contour>
      <contour>
        <pt x="947" y="1535" on="1"/>
        <pt x="923" y="1535" on="1"/>
        <pt x="867" y="1535" on="0"/>
        <pt x="769" y="1621" on="0"/>
        <pt x="769" y="1687" on="1"/>
        <pt x="769" y="1705" on="1"/>
        <pt x="769" y="1769" on="0"/>
        <pt x="878" y="1892" on="0"/>
        <pt x="953" y="1892" on="1"/>
        <pt x="982" y="1892" on="1"/>
        <pt x="1039" y="1892" on="0"/>
        <pt x="1137" y="1806" on="0"/>
        <pt x="1137" y="1746" on="1"/>
        <pt x="1137" y="1716" on="1"/>
        <pt x="1137" y="1644" on="0"/>
        <pt x="1015" y="1535" on="0"/>
      </contour>
      <contour>
        <pt x="926" y="1428" on="1"/>
        <pt x="967" y="1428" on="0"/>
        <pt x="1015" y="1345" on="0"/>
        <pt x="1053" y="1187" on="0"/>
        <pt x="1135" y="393" on="0"/>
        <pt x="1157" y="265" on="0"/>
        <pt x="1231" y="159" on="0"/>
        <pt x="1231" y="105" on="0"/>
        <pt x="1200" y="80" on="1"/>
        <pt x="1137" y="29" on="0"/>
        <pt x="1064" y="29" on="1"/>
        <pt x="925" y="29" on="0"/>
        <pt x="925" y="86" on="1"/>
        <pt x="925" y="93" on="0"/>
        <pt x="980" y="200" on="0"/>
        <pt x="980" y="275" on="1"/>
        <pt x="980" y="429" on="0"/>
        <pt x="917" y="488" on="1"/>
        <pt x="888" y="515" on="0"/>
        <pt x="482" y="515" on="0"/>
        <pt x="364" y="403" on="0"/>
        <pt x="293" y="249" on="1"/>
        <pt x="269" y="197" on="0"/>
        <pt x="269" y="101" on="1"/>
        <pt x="269" y="35" on="0"/>
        <pt x="169" y="35" on="1"/>
        <pt x="104" y="35" on="0"/>
        <pt x="29" y="98" on="0"/>
        <pt x="29" y="114" on="1"/>
        <pt x="29" y="132" on="1"/>
        <pt x="29" y="157" on="0"/>
        <pt x="160" y="278" on="0"/>
        <pt x="663" y="1158" on="0"/>
        <pt x="801" y="1346" on="1"/>
        <pt x="861" y="1428" on="0"/>
      </contour>
    </TTGlyph>
    <TTGlyph name="Atilde" xMin="30" yMin="35" xMax="1264" yMax="1764">
      <contour>
        <pt x="948" y="657" on="1"/>
        <pt x="948" y="674" on="1"/>
        <pt x="948" y="751" on="0"/>
        <pt x="872" y="1232" on="0"/>
        <pt x="855" y="1232" on="1"/>
        <pt x="851" y="1232" on="1"/>
        <pt x="847" y="1232" on="0"/>
        <pt x="807" y="1166" on="1"/>
        <pt x="756" y="1080" on="1"/>
        <pt x="505" y="678" on="0"/>
        <pt x="505" y="629" on="1"/>
        <pt x="505" y="616" on="0"/>
        <pt x="703" y="616" on="1"/>
        <pt x="850" y="616" on="1"/>
        <pt x="948" y="616" on="0"/>
      </contour>
      <contour>
        <pt x="831" y="1764" on="1"/>
        <pt x="846" y="1764" on="1"/>
        <pt x="896" y="1764" on="0"/>
        <pt x="1051" y="1671" on="0"/>
        <pt x="1124" y="1671" on="0"/>
        <pt x="1233" y="1762" on="0"/>
        <pt x="1243" y="1762" on="1"/>
        <pt x="1264" y="1762" on="0"/>
        <pt x="1264" y="1744" on="1"/>
        <pt x="1264" y="1682" on="0"/>
        <pt x="1130" y="1582" on="0"/>
        <pt x="995" y="1582" on="0"/>
        <pt x="849" y="1660" on="0"/>
        <pt x="767" y="1660" on="0"/>
        <pt x="658" y="1569" on="0"/>
        <pt x="652" y="1569" on="1"/>
        <pt x="645" y="1569" on="1"/>
        <pt x="623" y="1569" on="0"/>
        <pt x="623" y="1587" on="1"/>
        <pt x="623" y="1594" on="1"/>
        <pt x="623" y="1656" on="0"/>
        <pt x="720" y="1723" on="1"/>
        <pt x="779" y="1764" on="0"/>
      </contour>
      <contour>
        <pt x="913" y="1417" on="1"/>
        <pt x="934" y="1417" on="1"/>
        <pt x="984" y="1417" on="0"/>
        <pt x="1019" y="1259" on="1"/>
        <pt x="1025" y="1231" on="0"/>
        <pt x="1103" y="618" on="0"/>
        <pt x="1132" y="304" on="0"/>
        <pt x="1141" y="256" on="0"/>
        <pt x="1215" y="170" on="0"/>
        <pt x="1215" y="110" on="0"/>
        <pt x="1118" y="37" on="0"/>
        <pt x="1058" y="37" on="1"/>
        <pt x="937" y="37" on="0"/>
        <pt x="937" y="83" on="1"/>
        <pt x="937" y="102" on="0"/>
        <pt x="977" y="182" on="0"/>
        <pt x="977" y="321" on="0"/>
        <pt x="920" y="453" on="0"/>
        <pt x="856" y="492" on="0"/>
        <pt x="612" y="492" on="1"/>
        <pt x="472" y="492" on="0"/>
        <pt x="353" y="370" on="0"/>
        <pt x="295" y="253" on="1"/>
        <pt x="274" y="212" on="0"/>
        <pt x="254" y="80" on="0"/>
        <pt x="252" y="75" on="1"/>
        <pt x="231" y="35" on="0"/>
        <pt x="161" y="35" on="1"/>
        <pt x="141" y="35" on="1"/>
        <pt x="99" y="35" on="0"/>
        <pt x="30" y="95" on="0"/>
        <pt x="30" y="114" on="1"/>
        <pt x="30" y="131" on="1"/>
        <pt x="30" y="173" on="0"/>
        <pt x="780" y="1310" on="1"/>
        <pt x="851" y="1417" on="0"/>
      </contour>
    </TTGlyph>
    <TTGlyph name="B" xMin="86" yMin="6" xMax="1165" yMax="1408">
      <contour>
        <pt x="496" y="791" on="1"/>
        <pt x="612" y="791" on="1"/>
        <pt x="886" y="791" on="0"/>
        <pt x="971" y="961" on="1"/>
        <pt x="1001" y="1021" on="0"/>
        <pt x="1001" y="1085" on="1"/>
        <pt x="1001" y="1104" on="1"/>
        <pt x="1001" y="1199" on="0"/>
        <pt x="864" y="1304" on="0"/>
        <pt x="730" y="1304" on="1"/>
        <pt x="693" y="1304" on="1"/>
        <pt x="566" y="1304" on="0"/>
        <pt x="532" y="1236" on="0"/>
        <pt x="508" y="1092" on="1"/>
        <pt x="465" y="844" on="1"/>
        <pt x="462" y="830" on="0"/>
        <pt x="462" y="827" on="1"/>
        <pt x="462" y="811" on="1"/>
        <pt x="462" y="791" on="0"/>
      </contour>
      <contour>
        <pt x="441" y="113" on="1"/>
        <pt x="545" y="113" on="1"/>
        <pt x="829" y="113" on="0"/>
        <pt x="922" y="300" on="1"/>
        <pt x="954" y="364" on="0"/>
        <pt x="954" y="429" on="1"/>
        <pt x="954" y="472" on="1"/>
        <pt x="954" y="581" on="0"/>
        <pt x="854" y="643" on="1"/>
        <pt x="779" y="690" on="0"/>
        <pt x="636" y="690" on="1"/>
        <pt x="573" y="690" on="1"/>
        <pt x="543" y="687" on="0"/>
        <pt x="523" y="687" on="1"/>
        <pt x="444" y="687" on="0"/>
        <pt x="431" y="649" on="1"/>
        <pt x="430" y="646" on="0"/>
        <pt x="395" y="467" on="0"/>
        <pt x="394" y="460" on="1"/>
        <pt x="388" y="430" on="1"/>
        <pt x="384" y="406" on="0"/>
        <pt x="342" y="194" on="0"/>
        <pt x="342" y="157" on="1"/>
        <pt x="342" y="140" on="1"/>
        <pt x="342" y="113" on="0"/>
      </contour>
      <contour>
        <pt x="1122" y="446" on="1"/>
        <pt x="1122" y="249" on="0"/>
        <pt x="822" y="8" on="0"/>
        <pt x="563" y="8" on="1"/>
        <pt x="514" y="6" on="1"/>
        <pt x="416" y="6" on="1"/>
        <pt x="392" y="7" on="1"/>
        <pt x="320" y="7" on="1"/>
        <pt x="86" y="7" on="0"/>
        <pt x="86" y="51" on="0"/>
        <pt x="168" y="165" on="0"/>
        <pt x="187" y="245" on="1"/>
        <pt x="229" y="426" on="0"/>
        <pt x="360" y="1210" on="0"/>
        <pt x="360" y="1270" on="0"/>
        <pt x="324" y="1347" on="0"/>
        <pt x="324" y="1363" on="1"/>
        <pt x="324" y="1408" on="0"/>
        <pt x="602" y="1408" on="1"/>
        <pt x="699" y="1408" on="1"/>
        <pt x="945" y="1408" on="0"/>
        <pt x="1049" y="1338" on="1"/>
        <pt x="1108" y="1298" on="0"/>
        <pt x="1165" y="1182" on="0"/>
        <pt x="1165" y="1126" on="1"/>
        <pt x="1165" y="1077" on="1"/>
        <pt x="1165" y="991" on="0"/>
        <pt x="1101" y="901" on="1"/>
        <pt x="1063" y="847" on="0"/>
        <pt x="919" y="749" on="0"/>
        <pt x="919" y="743" on="1"/>
        <pt x="993" y="693" on="1"/>
        <pt x="1042" y="660" on="0"/>
        <pt x="1122" y="546" on="0"/>
      </contour>
    </TTGlyph>
    <TTGlyph name="C" xMin="140" yMin="-16" xMax="1295" yMax="1416">
      <contour>
        <pt x="140" y="572" on="1"/>
        <pt x="140" y="723" on="0"/>
        <pt x="202" y="884" on="1"/>
        <pt x="329" y="1216" on="0"/>
        <pt x="613" y="1352" on="1"/>
        <pt x="746" y="1416" on="0"/>
        <pt x="883" y="1416" on="1"/>
        <pt x="914" y="1416" on="1"/>
        <pt x="1149" y="1416" on="0"/>
        <pt x="1295" y="1317" on="0"/>
        <pt x="1295" y="1227" on="1"/>
        <pt x="1295" y="1176" on="0"/>
        <pt x="1246" y="1119" on="0"/>
        <pt x="1213" y="1119" on="1"/>
        <pt x="1197" y="1119" on="0"/>
        <pt x="1086" y="1230" on="0"/>
        <pt x="963" y="1298" on="0"/>
        <pt x="752" y="1298" on="0"/>
        <pt x="648" y="1232" on="1"/>
        <pt x="439" y="1099" on="0"/>
        <pt x="354" y="792" on="1"/>
        <pt x="323" y="678" on="0"/>
        <pt x="323" y="560" on="1"/>
        <pt x="323" y="337" on="0"/>
        <pt x="527" y="109" on="0"/>
        <pt x="700" y="109" on="1"/>
        <pt x="838" y="109" on="0"/>
        <pt x="1090" y="266" on="0"/>
        <pt x="1102" y="266" on="1"/>
        <pt x="1145" y="266" on="0"/>
        <pt x="1145" y="236" on="1"/>
        <pt x="1145" y="201" on="0"/>
        <pt x="1124" y="169" on="1"/>
        <pt x="1077" y="98" on="0"/>
        <pt x="997" y="51" on="1"/>
        <pt x="883" y="-16" on="0"/>
        <pt x="421" y="-16" on="0"/>
        <pt x="140" y="293" on="0"/>
      </contour>
    </TTGlyph>
    <TTGlyph name="Ccedilla" xMin="155" yMin="-425" xMax="1359" yMax="1466">
      <contour>
        <pt x="155" y="553" on="1"/>
        <pt x="155" y="587" on="1"/>
        <pt x="155" y="745" on="0"/>
        <pt x="210" y="905" on="1"/>
        <pt x="329" y="1251" on="0"/>
        <pt x="639" y="1397" on="1"/>
        <pt x="785" y="1466" on="0"/>
        <pt x="1116" y="1466" on="0"/>
        <pt x="1223" y="1429" on="1"/>
        <pt x="1265" y="1414" on="0"/>
        <pt x="1359" y="1298" on="0"/>
        <pt x="1359" y="1268" on="1"/>
        <pt x="1359" y="1190" on="0"/>
        <pt x="1311" y="1190" on="1"/>
        <pt x="1282" y="1190" on="0"/>
        <pt x="1226" y="1231" on="1"/>
        <pt x="1092" y="1330" on="0"/>
        <pt x="902" y="1330" on="1"/>
        <pt x="667" y="1330" on="0"/>
        <pt x="502" y="1112" on="1"/>
        <pt x="421" y="1006" on="0"/>
        <pt x="342" y="724" on="0"/>
        <pt x="342" y="462" on="0"/>
        <pt x="373" y="374" on="1"/>
        <pt x="464" y="115" on="0"/>
        <pt x="744" y="115" on="1"/>
        <pt x="912" y="115" on="0"/>
        <pt x="1077" y="219" on="1"/>
        <pt x="1146" y="263" on="0"/>
        <pt x="1166" y="263" on="1"/>
        <pt x="1202" y="263" on="0"/>
        <pt x="1202" y="202" on="1"/>
        <pt x="1202" y="183" on="0"/>
        <pt x="1178" y="152" on="1"/>
        <pt x="1117" y="74" on="0"/>
        <pt x="1041" y="41" on="1"/>
        <pt x="904" y="-19" on="0"/>
        <pt x="729" y="-19" on="1"/>
        <pt x="696" y="-19" on="1"/>
        <pt x="581" y="-19" on="0"/>
        <pt x="479" y="24" on="1"/>
        <pt x="270" y="112" on="0"/>
        <pt x="195" y="328" on="1"/>
        <pt x="155" y="442" on="0"/>
      </contour>
      <contour>
        <pt x="805" y="-219" on="1"/>
        <pt x="805" y="-247" on="1"/>
        <pt x="805" y="-319" on="0"/>
        <pt x="664" y="-425" on="0"/>
        <pt x="584" y="-425" on="1"/>
        <pt x="577" y="-425" on="1"/>
        <pt x="486" y="-425" on="0"/>
        <pt x="486" y="-385" on="1"/>
        <pt x="486" y="-379" on="1"/>
        <pt x="486" y="-352" on="0"/>
        <pt x="601" y="-352" on="0"/>
        <pt x="665" y="-288" on="0"/>
        <pt x="665" y="-220" on="0"/>
        <pt x="594" y="-172" on="0"/>
        <pt x="594" y="-153" on="1"/>
        <pt x="594" y="-111" on="0"/>
        <pt x="634" y="-48" on="1"/>
        <pt x="647" y="-27" on="0"/>
        <pt x="694" y="-27" on="1"/>
        <pt x="701" y="-27" on="1"/>
        <pt x="716" y="-27" on="0"/>
        <pt x="716" y="-78" on="1"/>
        <pt x="716" y="-101" on="0"/>
        <pt x="805" y="-172" on="0"/>
      </contour>
    </TTGlyph>
    <TTGlyph name="D" xMin="93" yMin="3" xMax="1357" yMax="1403">
      <contour>
        <pt x="1179" y="817" on="1"/>
        <pt x="1179" y="869" on="1"/>
        <pt x="1179" y="1077" on="0"/>
        <pt x="1052" y="1200" on="1"/>
        <pt x="951" y="1297" on="0"/>
        <pt x="755" y="1297" on="1"/>
        <pt x="720" y="1297" on="1"/>
        <pt x="627" y="1297" on="0"/>
        <pt x="579" y="1274" on="1"/>
        <pt x="553" y="1262" on="0"/>
        <pt x="528" y="1177" on="0"/>
        <pt x="349" y="165" on="0"/>
        <pt x="349" y="151" on="1"/>
        <pt x="349" y="111" on="0"/>
        <pt x="500" y="111" on="1"/>
        <pt x="518" y="111" on="1"/>
        <pt x="661" y="112" on="0"/>
        <pt x="769" y="150" on="1"/>
        <pt x="999" y="232" on="0"/>
        <pt x="1117" y="512" on="1"/>
        <pt x="1179" y="660" on="0"/>
      </contour>
      <contour>
        <pt x="93" y="42" on="1"/>
        <pt x="93" y="43" on="0"/>
        <pt x="154" y="137" on="1"/>
        <pt x="177" y="173" on="0"/>
        <pt x="271" y="572" on="0"/>
        <pt x="351" y="1161" on="0"/>
        <pt x="351" y="1252" on="0"/>
        <pt x="317" y="1329" on="0"/>
        <pt x="317" y="1340" on="1"/>
        <pt x="317" y="1371" on="0"/>
        <pt x="366" y="1380" on="1"/>
        <pt x="488" y="1403" on="0"/>
        <pt x="686" y="1403" on="1"/>
        <pt x="759" y="1403" on="1"/>
        <pt x="1034" y="1403" on="0"/>
        <pt x="1196" y="1260" on="1"/>
        <pt x="1270" y="1195" on="0"/>
        <pt x="1357" y="986" on="0"/>
        <pt x="1357" y="860" on="1"/>
        <pt x="1357" y="812" on="1"/>
        <pt x="1357" y="646" on="0"/>
        <pt x="1286" y="482" on="1"/>
        <pt x="1146" y="157" on="0"/>
        <pt x="817" y="48" on="1"/>
        <pt x="682" y="3" on="0"/>
        <pt x="461" y="3" on="1"/>
        <pt x="294" y="3" on="1"/>
        <pt x="158" y="8" on="1"/>
        <pt x="93" y="8" on="0"/>
      </contour>
    </TTGlyph>
    <TTGlyph name="E" xMin="99" yMin="-1" xMax="1193" yMax="1407">
      <contour>
        <pt x="424" y="-1" on="1"/>
        <pt x="215" y="-1" on="0"/>
        <pt x="99" y="25" on="0"/>
        <pt x="99" y="58" on="1"/>
        <pt x="99" y="82" on="1"/>
        <pt x="99" y="83" on="0"/>
        <pt x="171" y="210" on="0"/>
        <pt x="191" y="297" on="1"/>
        <pt x="366" y="1046" on="0"/>
        <pt x="366" y="1215" on="1"/>
        <pt x="366" y="1238" on="0"/>
        <pt x="331" y="1324" on="0"/>
        <pt x="331" y="1342" on="1"/>
        <pt x="331" y="1374" on="0"/>
        <pt x="489" y="1407" on="0"/>
        <pt x="895" y="1407" on="1"/>
        <pt x="1015" y="1407" on="1"/>
        <pt x="1128" y="1407" on="0"/>
        <pt x="1193" y="1374" on="0"/>
        <pt x="1193" y="1263" on="0"/>
        <pt x="1144" y="1211" on="0"/>
        <pt x="1109" y="1211" on="0"/>
        <pt x="1019" y="1251" on="0"/>
        <pt x="879" y="1290" on="0"/>
        <pt x="718" y="1290" on="1"/>
        <pt x="623" y="1290" on="0"/>
        <pt x="581" y="1226" on="1"/>
        <pt x="558" y="1192" on="0"/>
        <pt x="490" y="942" on="0"/>
        <pt x="490" y="833" on="0"/>
        <pt x="575" y="797" on="0"/>
        <pt x="721" y="797" on="0"/>
        <pt x="880" y="835" on="0"/>
        <pt x="914" y="835" on="0"/>
        <pt x="967" y="797" on="0"/>
        <pt x="967" y="695" on="0"/>
        <pt x="901" y="612" on="0"/>
        <pt x="823" y="612" on="1"/>
        <pt x="795" y="621" on="1"/>
        <pt x="743" y="646" on="1"/>
        <pt x="701" y="661" on="0"/>
        <pt x="606" y="661" on="1"/>
        <pt x="467" y="661" on="0"/>
        <pt x="427" y="589" on="1"/>
        <pt x="377" y="500" on="0"/>
        <pt x="377" y="225" on="1"/>
        <pt x="377" y="178" on="0"/>
        <pt x="446" y="113" on="0"/>
        <pt x="525" y="113" on="1"/>
        <pt x="670" y="113" on="0"/>
        <pt x="825" y="150" on="0"/>
        <pt x="982" y="212" on="0"/>
        <pt x="989" y="212" on="1"/>
        <pt x="1037" y="212" on="0"/>
        <pt x="1037" y="186" on="1"/>
        <pt x="1037" y="69" on="0"/>
        <pt x="962" y="28" on="1"/>
        <pt x="912" y="1" on="0"/>
        <pt x="703" y="1" on="1"/>
        <pt x="624" y="0" on="1"/>
        <pt x="584" y="-1" on="1"/>
      </contour>
    </TTGlyph>
    <TTGlyph name="Eacute" xMin="102" yMin="13" xMax="1197" yMax="1869">
      <contour>
        <pt x="1032" y="1869" on="1"/>
        <pt x="1062" y="1869" on="1"/>
        <pt x="1113" y="1869" on="0"/>
        <pt x="1113" y="1843" on="1"/>
        <pt x="1113" y="1839" on="1"/>
        <pt x="1113" y="1800" on="0"/>
        <pt x="999" y="1711" on="1"/>
        <pt x="800" y="1556" on="0"/>
        <pt x="757" y="1556" on="1"/>
        <pt x="748" y="1556" on="1"/>
        <pt x="727" y="1556" on="0"/>
        <pt x="727" y="1573" on="1"/>
        <pt x="727" y="1577" on="1"/>
        <pt x="727" y="1639" on="0"/>
        <pt x="932" y="1818" on="1"/>
        <pt x="990" y="1869" on="0"/>
      </contour>
      <contour>
        <pt x="1077" y="1429" on="1"/>
        <pt x="1197" y="1429" on="0"/>
        <pt x="1197" y="1336" on="1"/>
        <pt x="1197" y="1286" on="0"/>
        <pt x="1154" y="1229" on="0"/>
        <pt x="1118" y="1229" on="0"/>
        <pt x="1015" y="1289" on="0"/>
        <pt x="880" y="1325" on="0"/>
        <pt x="625" y="1325" on="0"/>
        <pt x="578" y="1241" on="1"/>
        <pt x="557" y="1204" on="0"/>
        <pt x="496" y="981" on="0"/>
        <pt x="496" y="868" on="0"/>
        <pt x="567" y="821" on="0"/>
        <pt x="702" y="821" on="0"/>
        <pt x="851" y="855" on="0"/>
        <pt x="861" y="855" on="1"/>
        <pt x="898" y="855" on="0"/>
        <pt x="949" y="796" on="0"/>
        <pt x="949" y="694" on="0"/>
        <pt x="882" y="624" on="0"/>
        <pt x="831" y="624" on="1"/>
        <pt x="827" y="624" on="0"/>
        <pt x="706" y="674" on="0"/>
        <pt x="621" y="674" on="1"/>
        <pt x="480" y="674" on="0"/>
        <pt x="433" y="610" on="1"/>
        <pt x="414" y="584" on="0"/>
        <pt x="376" y="361" on="0"/>
        <pt x="376" y="190" on="0"/>
        <pt x="403" y="164" on="1"/>
        <pt x="452" y="116" on="0"/>
        <pt x="749" y="116" on="0"/>
        <pt x="907" y="195" on="1"/>
        <pt x="978" y="231" on="0"/>
        <pt x="1007" y="231" on="1"/>
        <pt x="1042" y="231" on="0"/>
        <pt x="1042" y="191" on="1"/>
        <pt x="1042" y="72" on="0"/>
        <pt x="950" y="32" on="1"/>
        <pt x="912" y="16" on="0"/>
        <pt x="695" y="15" on="1"/>
        <pt x="614" y="13" on="1"/>
        <pt x="412" y="13" on="1"/>
        <pt x="210" y="13" on="0"/>
        <pt x="102" y="45" on="0"/>
        <pt x="102" y="87" on="1"/>
        <pt x="102" y="100" on="0"/>
        <pt x="179" y="203" on="0"/>
        <pt x="201" y="294" on="1"/>
        <pt x="389" y="1056" on="0"/>
        <pt x="389" y="1215" on="1"/>
        <pt x="389" y="1251" on="0"/>
        <pt x="337" y="1330" on="0"/>
        <pt x="337" y="1370" on="1"/>
        <pt x="354" y="1386" on="1"/>
        <pt x="419" y="1429" on="0"/>
        <pt x="877" y="1429" on="1"/>
      </contour>
    </TTGlyph>
    <TTGlyph name="Ecircumflex" xMin="103" yMin="9" xMax="1197" yMax="1865">
      <contour>
        <pt x="596" y="1559" on="1"/>
        <pt x="583" y="1559" on="1"/>
        <pt x="561" y="1559" on="0"/>
        <pt x="561" y="1575" on="1"/>
        <pt x="561" y="1580" on="1"/>
        <pt x="561" y="1582" on="0"/>
        <pt x="844" y="1865" on="0"/>
        <pt x="883" y="1865" on="1"/>
        <pt x="890" y="1864" on="1"/>
        <pt x="897" y="1864" on="1"/>
        <pt x="934" y="1864" on="0"/>
        <pt x="978" y="1796" on="1"/>
        <pt x="1100" y="1606" on="0"/>
        <pt x="1100" y="1586" on="1"/>
        <pt x="1100" y="1581" on="1"/>
        <pt x="1100" y="1561" on="0"/>
        <pt x="1025" y="1561" on="0"/>
        <pt x="876" y="1739" on="0"/>
        <pt x="865" y="1739" on="1"/>
        <pt x="860" y="1739" on="0"/>
        <pt x="626" y="1559" on="0"/>
      </contour>
      <contour>
        <pt x="1077" y="1425" on="1"/>
        <pt x="1197" y="1425" on="0"/>
        <pt x="1197" y="1332" on="1"/>
        <pt x="1197" y="1281" on="0"/>
        <pt x="1155" y="1225" on="0"/>
        <pt x="1117" y="1225" on="0"/>
        <pt x="1017" y="1284" on="0"/>
        <pt x="880" y="1321" on="0"/>
        <pt x="626" y="1321" on="0"/>
        <pt x="578" y="1237" on="1"/>
        <pt x="559" y="1203" on="0"/>
        <pt x="496" y="974" on="0"/>
        <pt x="496" y="864" on="0"/>
        <pt x="568" y="817" on="0"/>
        <pt x="706" y="817" on="0"/>
        <pt x="849" y="852" on="0"/>
        <pt x="898" y="852" on="0"/>
        <pt x="950" y="792" on="0"/>
        <pt x="950" y="689" on="0"/>
        <pt x="883" y="620" on="0"/>
        <pt x="831" y="620" on="1"/>
        <pt x="803" y="628" on="1"/>
        <pt x="778" y="640" on="1"/>
        <pt x="752" y="651" on="1"/>
        <pt x="703" y="670" on="0"/>
        <pt x="621" y="670" on="1"/>
        <pt x="478" y="670" on="0"/>
        <pt x="433" y="607" on="1"/>
        <pt x="414" y="580" on="0"/>
        <pt x="376" y="338" on="0"/>
        <pt x="376" y="187" on="0"/>
        <pt x="403" y="161" on="1"/>
        <pt x="454" y="113" on="0"/>
        <pt x="550" y="113" on="1"/>
        <pt x="755" y="113" on="0"/>
        <pt x="908" y="191" on="1"/>
        <pt x="979" y="227" on="0"/>
        <pt x="1008" y="227" on="1"/>
        <pt x="1043" y="227" on="0"/>
        <pt x="1043" y="187" on="1"/>
        <pt x="1043" y="67" on="0"/>
        <pt x="951" y="28" on="1"/>
        <pt x="911" y="11" on="0"/>
        <pt x="695" y="11" on="1"/>
        <pt x="615" y="9" on="1"/>
        <pt x="413" y="9" on="1"/>
        <pt x="214" y="9" on="0"/>
        <pt x="103" y="42" on="0"/>
        <pt x="103" y="84" on="1"/>
        <pt x="103" y="96" on="0"/>
        <pt x="175" y="193" on="0"/>
        <pt x="215" y="330" on="0"/>
        <pt x="389" y="1159" on="0"/>
        <pt x="389" y="1245" on="0"/>
        <pt x="377" y="1268" on="1"/>
        <pt x="361" y="1291" on="1"/>
        <pt x="337" y="1328" on="0"/>
        <pt x="337" y="1339" on="1"/>
        <pt x="337" y="1388" on="0"/>
        <pt x="412" y="1401" on="1"/>
        <pt x="546" y="1425" on="0"/>
        <pt x="878" y="1425" on="1"/>
      </contour>
    </TTGlyph>
    <TTGlyph name="Edieresis" xMin="108" yMin="11" xMax="1203" yMax="1790">
      <contour>
        <pt x="591" y="1686" on="1"/>
        <pt x="597" y="1704" on="0"/>
        <pt x="597" y="1727" on="0"/>
        <pt x="646" y="1789" on="0"/>
        <pt x="687" y="1789" on="1"/>
        <pt x="708" y="1789" on="1"/>
        <pt x="711" y="1788" on="1"/>
        <pt x="718" y="1788" on="1"/>
        <pt x="726" y="1785" on="0"/>
        <pt x="729" y="1785" on="1"/>
        <pt x="779" y="1785" on="0"/>
        <pt x="779" y="1714" on="1"/>
        <pt x="779" y="1705" on="1"/>
        <pt x="779" y="1670" on="0"/>
        <pt x="725" y="1603" on="0"/>
        <pt x="696" y="1603" on="1"/>
        <pt x="681" y="1600" on="1"/>
        <pt x="657" y="1600" on="1"/>
        <pt x="591" y="1600" on="0"/>
        <pt x="591" y="1668" on="1"/>
      </contour>
      <contour>
        <pt x="1138" y="1724" on="1"/>
        <pt x="1138" y="1697" on="1"/>
        <pt x="1135" y="1688" on="0"/>
        <pt x="1135" y="1659" on="0"/>
        <pt x="1078" y="1602" on="0"/>
        <pt x="1050" y="1602" on="1"/>
        <pt x="1035" y="1600" on="1"/>
        <pt x="1023" y="1600" on="1"/>
        <pt x="950" y="1600" on="0"/>
        <pt x="950" y="1669" on="1"/>
        <pt x="950" y="1687" on="1"/>
        <pt x="950" y="1721" on="0"/>
        <pt x="1005" y="1790" on="0"/>
        <pt x="1046" y="1790" on="1"/>
        <pt x="1070" y="1790" on="1"/>
        <pt x="1082" y="1787" on="0"/>
        <pt x="1085" y="1787" on="1"/>
        <pt x="1138" y="1787" on="0"/>
      </contour>
      <contour>
        <pt x="501" y="920" on="1"/>
        <pt x="501" y="819" on="0"/>
        <pt x="641" y="819" on="1"/>
        <pt x="644" y="819" on="1"/>
        <pt x="713" y="819" on="0"/>
        <pt x="859" y="853" on="0"/>
        <pt x="867" y="853" on="1"/>
        <pt x="905" y="853" on="0"/>
        <pt x="955" y="793" on="0"/>
        <pt x="955" y="691" on="0"/>
        <pt x="888" y="622" on="0"/>
        <pt x="837" y="622" on="1"/>
        <pt x="833" y="622" on="0"/>
        <pt x="712" y="672" on="0"/>
        <pt x="626" y="672" on="1"/>
        <pt x="486" y="672" on="0"/>
        <pt x="438" y="608" on="1"/>
        <pt x="424" y="589" on="0"/>
        <pt x="381" y="393" on="0"/>
        <pt x="381" y="189" on="0"/>
        <pt x="409" y="162" on="1"/>
        <pt x="458" y="114" on="0"/>
        <pt x="757" y="114" on="0"/>
        <pt x="913" y="192" on="1"/>
        <pt x="986" y="229" on="0"/>
        <pt x="1013" y="229" on="1"/>
        <pt x="1048" y="229" on="0"/>
        <pt x="1048" y="188" on="1"/>
        <pt x="1048" y="70" on="0"/>
        <pt x="956" y="30" on="1"/>
        <pt x="918" y="14" on="0"/>
        <pt x="741" y="13" on="1"/>
        <pt x="661" y="12" on="1"/>
        <pt x="620" y="11" on="1"/>
        <pt x="418" y="11" on="1"/>
        <pt x="217" y="11" on="0"/>
        <pt x="108" y="43" on="0"/>
        <pt x="108" y="85" on="1"/>
        <pt x="108" y="98" on="0"/>
        <pt x="186" y="204" on="0"/>
        <pt x="207" y="292" on="1"/>
        <pt x="395" y="1096" on="0"/>
        <pt x="395" y="1213" on="1"/>
        <pt x="395" y="1249" on="0"/>
        <pt x="343" y="1328" on="0"/>
        <pt x="343" y="1368" on="1"/>
        <pt x="359" y="1384" on="1"/>
        <pt x="424" y="1427" on="0"/>
        <pt x="883" y="1427" on="1"/>
        <pt x="1083" y="1427" on="1"/>
        <pt x="1203" y="1427" on="0"/>
        <pt x="1203" y="1334" on="1"/>
        <pt x="1203" y="1284" on="0"/>
        <pt x="1160" y="1227" on="0"/>
        <pt x="1122" y="1227" on="0"/>
        <pt x="1021" y="1287" on="0"/>
        <pt x="884" y="1322" on="0"/>
        <pt x="630" y="1322" on="0"/>
        <pt x="583" y="1238" on="1"/>
        <pt x="564" y="1203" on="0"/>
        <pt x="501" y="974" on="0"/>
      </contour>
    </TTGlyph>
    <TTGlyph name="Egrave" xMin="103" yMin="13" xMax="1197" yMax="1876">
      <contour>
        <pt x="903" y="1559" on="1"/>
        <pt x="894" y="1559" on="1"/>
        <pt x="858" y="1559" on="0"/>
        <pt x="591" y="1792" on="0"/>
        <pt x="591" y="1830" on="1"/>
        <pt x="591" y="1847" on="1"/>
        <pt x="591" y="1876" on="0"/>
        <pt x="649" y="1876" on="1"/>
        <pt x="668" y="1876" on="1"/>
        <pt x="715" y="1876" on="0"/>
        <pt x="787" y="1804" on="0"/>
        <pt x="923" y="1600" on="0"/>
        <pt x="923" y="1587" on="1"/>
        <pt x="923" y="1575" on="1"/>
        <pt x="923" y="1559" on="0"/>
      </contour>
      <contour>
        <pt x="1077" y="1430" on="1"/>
        <pt x="1197" y="1430" on="0"/>
        <pt x="1197" y="1337" on="1"/>
        <pt x="1197" y="1285" on="0"/>
        <pt x="1155" y="1230" on="0"/>
        <pt x="1116" y="1230" on="0"/>
        <pt x="1018" y="1288" on="0"/>
        <pt x="881" y="1325" on="0"/>
        <pt x="626" y="1325" on="0"/>
        <pt x="578" y="1241" on="1"/>
        <pt x="559" y="1207" on="0"/>
        <pt x="496" y="978" on="0"/>
        <pt x="496" y="868" on="0"/>
        <pt x="567" y="822" on="0"/>
        <pt x="711" y="822" on="0"/>
        <pt x="847" y="856" on="0"/>
        <pt x="898" y="856" on="0"/>
        <pt x="950" y="796" on="0"/>
        <pt x="950" y="693" on="0"/>
        <pt x="884" y="625" on="0"/>
        <pt x="831" y="625" on="1"/>
        <pt x="803" y="632" on="1"/>
        <pt x="752" y="656" on="1"/>
        <pt x="703" y="675" on="0"/>
        <pt x="621" y="675" on="1"/>
        <pt x="479" y="675" on="0"/>
        <pt x="433" y="611" on="1"/>
        <pt x="414" y="584" on="0"/>
        <pt x="376" y="342" on="0"/>
        <pt x="376" y="191" on="0"/>
        <pt x="403" y="165" on="1"/>
        <pt x="454" y="117" on="0"/>
        <pt x="752" y="117" on="0"/>
        <pt x="908" y="195" on="1"/>
        <pt x="981" y="231" on="0"/>
        <pt x="1008" y="231" on="1"/>
        <pt x="1043" y="231" on="0"/>
        <pt x="1043" y="191" on="1"/>
        <pt x="1042" y="72" on="0"/>
        <pt x="950" y="32" on="1"/>
        <pt x="910" y="15" on="0"/>
        <pt x="695" y="15" on="1"/>
        <pt x="615" y="14" on="1"/>
        <pt x="575" y="13" on="1"/>
        <pt x="452" y="13" on="1"/>
        <pt x="214" y="13" on="0"/>
        <pt x="103" y="46" on="0"/>
        <pt x="103" y="88" on="1"/>
        <pt x="103" y="100" on="0"/>
        <pt x="175" y="197" on="0"/>
        <pt x="216" y="342" on="0"/>
        <pt x="389" y="1163" on="0"/>
        <pt x="389" y="1250" on="0"/>
        <pt x="377" y="1273" on="1"/>
        <pt x="361" y="1295" on="1"/>
        <pt x="337" y="1331" on="0"/>
        <pt x="337" y="1343" on="1"/>
        <pt x="337" y="1393" on="0"/>
        <pt x="412" y="1406" on="1"/>
        <pt x="548" y="1430" on="0"/>
        <pt x="878" y="1430" on="1"/>
      </contour>
    </TTGlyph>
    <TTGlyph name="Eth" xMin="104" yMin="5" xMax="1374" yMax="1414">
      <contour>
        <pt x="580" y="666" on="1"/>
        <pt x="457" y="666" on="0"/>
        <pt x="431" y="621" on="1"/>
        <pt x="423" y="607" on="0"/>
        <pt x="353" y="199" on="0"/>
        <pt x="353" y="184" on="1"/>
        <pt x="353" y="129" on="0"/>
        <pt x="403" y="105" on="0"/>
        <pt x="497" y="105" on="1"/>
        <pt x="518" y="105" on="1"/>
        <pt x="971" y="105" on="0"/>
        <pt x="1143" y="509" on="1"/>
        <pt x="1207" y="661" on="0"/>
        <pt x="1207" y="806" on="1"/>
        <pt x="1207" y="811" on="0"/>
        <pt x="1207" y="815" on="1"/>
        <pt x="1207" y="954" on="0"/>
        <pt x="1178" y="1040" on="1"/>
        <pt x="1086" y="1318" on="0"/>
        <pt x="738" y="1318" on="1"/>
        <pt x="587" y="1318" on="0"/>
        <pt x="527" y="1198" on="0"/>
        <pt x="469" y="859" on="0"/>
        <pt x="469" y="809" on="0"/>
        <pt x="521" y="783" on="0"/>
        <pt x="748" y="759" on="0"/>
        <pt x="748" y="726" on="1"/>
        <pt x="748" y="668" on="0"/>
        <pt x="638" y="668" on="1"/>
        <pt x="600" y="666" on="0"/>
      </contour>
      <contour>
        <pt x="1374" y="847" on="1"/>
        <pt x="1374" y="820" on="1"/>
        <pt x="1374" y="638" on="0"/>
        <pt x="1298" y="474" on="1"/>
        <pt x="1143" y="143" on="0"/>
        <pt x="806" y="47" on="1"/>
        <pt x="659" y="5" on="0"/>
        <pt x="418" y="5" on="1"/>
        <pt x="341" y="5" on="1"/>
        <pt x="104" y="5" on="0"/>
        <pt x="104" y="48" on="1"/>
        <pt x="104" y="65" on="0"/>
        <pt x="183" y="165" on="0"/>
        <pt x="198" y="217" on="1"/>
        <pt x="259" y="433" on="0"/>
        <pt x="259" y="644" on="1"/>
        <pt x="259" y="667" on="0"/>
        <pt x="148" y="684" on="0"/>
        <pt x="148" y="706" on="1"/>
        <pt x="148" y="758" on="0"/>
        <pt x="210" y="774" on="1"/>
        <pt x="293" y="795" on="0"/>
        <pt x="312" y="838" on="1"/>
        <pt x="356" y="936" on="0"/>
        <pt x="356" y="1203" on="1"/>
        <pt x="356" y="1243" on="0"/>
        <pt x="311" y="1327" on="0"/>
        <pt x="311" y="1363" on="0"/>
        <pt x="336" y="1373" on="1"/>
        <pt x="439" y="1414" on="0"/>
        <pt x="711" y="1414" on="1"/>
        <pt x="791" y="1414" on="1"/>
        <pt x="919" y="1414" on="0"/>
        <pt x="1031" y="1371" on="1"/>
        <pt x="1257" y="1284" on="0"/>
        <pt x="1335" y="1076" on="1"/>
        <pt x="1374" y="972" on="0"/>
      </contour>
    </TTGlyph>
    <TTGlyph name="Euro" xMin="118" yMin="4" xMax="1190" yMax="1343">
      <contour>
        <pt x="843" y="563" on="1"/>
        <pt x="843" y="521" on="0"/>
        <pt x="563" y="487" on="0"/>
        <pt x="453" y="431" on="0"/>
        <pt x="453" y="377" on="1"/>
        <pt x="453" y="278" on="0"/>
        <pt x="614" y="144" on="0"/>
        <pt x="733" y="144" on="1"/>
        <pt x="785" y="144" on="0"/>
        <pt x="1019" y="222" on="0"/>
        <pt x="1024" y="222" on="1"/>
        <pt x="1060" y="222" on="0"/>
        <pt x="1060" y="202" on="1"/>
        <pt x="1060" y="191" on="0"/>
        <pt x="997" y="97" on="0"/>
        <pt x="834" y="4" on="0"/>
        <pt x="713" y="4" on="1"/>
        <pt x="396" y="4" on="0"/>
        <pt x="281" y="282" on="1"/>
        <pt x="255" y="355" on="1"/>
        <pt x="225" y="439" on="0"/>
        <pt x="211" y="462" on="0"/>
        <pt x="149" y="513" on="1"/>
        <pt x="118" y="539" on="0"/>
        <pt x="118" y="573" on="1"/>
        <pt x="118" y="588" on="0"/>
        <pt x="188" y="615" on="1"/>
        <pt x="239" y="635" on="0"/>
        <pt x="239" y="718" on="0"/>
        <pt x="220" y="733" on="1"/>
        <pt x="162" y="778" on="0"/>
        <pt x="162" y="779" on="1"/>
        <pt x="162" y="810" on="0"/>
        <pt x="254" y="873" on="0"/>
        <pt x="491" y="1174" on="0"/>
        <pt x="618" y="1278" on="0"/>
        <pt x="801" y="1343" on="0"/>
        <pt x="1047" y="1343" on="0"/>
        <pt x="1190" y="1256" on="0"/>
        <pt x="1190" y="1184" on="1"/>
        <pt x="1190" y="1130" on="0"/>
        <pt x="1132" y="1130" on="1"/>
        <pt x="1114" y="1130" on="0"/>
        <pt x="1008" y="1184" on="1"/>
        <pt x="949" y="1214" on="0"/>
        <pt x="747" y="1214" on="0"/>
        <pt x="553" y="1043" on="0"/>
        <pt x="553" y="954" on="1"/>
        <pt x="553" y="902" on="0"/>
        <pt x="660" y="870" on="0"/>
        <pt x="926" y="852" on="0"/>
        <pt x="926" y="811" on="1"/>
        <pt x="926" y="782" on="0"/>
        <pt x="818" y="753" on="0"/>
        <pt x="520" y="753" on="0"/>
        <pt x="485" y="742" on="1"/>
        <pt x="428" y="724" on="0"/>
        <pt x="428" y="636" on="0"/>
        <pt x="516" y="613" on="0"/>
        <pt x="843" y="613" on="0"/>
      </contour>
    </TTGlyph>
    <TTGlyph name="F" xMin="114" yMin="14" xMax="1180" yMax="1410">
      <contour>
        <pt x="244" y="14" on="1"/>
        <pt x="217" y="14" on="1"/>
        <pt x="173" y="14" on="0"/>
        <pt x="114" y="59" on="0"/>
        <pt x="114" y="137" on="0"/>
        <pt x="187" y="236" on="0"/>
        <pt x="228" y="387" on="0"/>
        <pt x="367" y="1173" on="0"/>
        <pt x="367" y="1255" on="0"/>
        <pt x="329" y="1337" on="0"/>
        <pt x="329" y="1340" on="1"/>
        <pt x="329" y="1377" on="0"/>
        <pt x="389" y="1387" on="1"/>
        <pt x="483" y="1403" on="0"/>
        <pt x="697" y="1403" on="1"/>
        <pt x="730" y="1404" on="1"/>
        <pt x="763" y="1405" on="0"/>
        <pt x="795" y="1405" on="1"/>
        <pt x="893" y="1405" on="1"/>
        <pt x="927" y="1405" on="0"/>
        <pt x="992" y="1407" on="1"/>
        <pt x="1086" y="1410" on="1"/>
        <pt x="1115" y="1410" on="1"/>
        <pt x="1180" y="1410" on="0"/>
        <pt x="1180" y="1259" on="0"/>
        <pt x="1142" y="1222" on="1"/>
        <pt x="1129" y="1209" on="0"/>
        <pt x="1094" y="1209" on="0"/>
        <pt x="1023" y="1270" on="0"/>
        <pt x="930" y="1302" on="0"/>
        <pt x="629" y="1302" on="0"/>
        <pt x="567" y="1218" on="0"/>
        <pt x="508" y="969" on="0"/>
        <pt x="508" y="833" on="0"/>
        <pt x="573" y="787" on="0"/>
        <pt x="693" y="787" on="0"/>
        <pt x="846" y="832" on="0"/>
        <pt x="895" y="832" on="0"/>
        <pt x="950" y="763" on="0"/>
        <pt x="950" y="648" on="0"/>
        <pt x="899" y="606" on="0"/>
        <pt x="859" y="606" on="0"/>
        <pt x="765" y="647" on="0"/>
        <pt x="718" y="647" on="1"/>
        <pt x="512" y="647" on="0"/>
        <pt x="458" y="570" on="1"/>
        <pt x="430" y="531" on="0"/>
        <pt x="376" y="330" on="0"/>
        <pt x="376" y="188" on="1"/>
        <pt x="394" y="93" on="1"/>
        <pt x="394" y="66" on="0"/>
        <pt x="321" y="14" on="0"/>
      </contour>
    </TTGlyph>
    <TTGlyph name="G" xMin="146" yMin="-30" xMax="1301" yMax="1401">
      <contour>
        <pt x="888" y="1401" on="1"/>
        <pt x="926" y="1401" on="1"/>
        <pt x="1132" y="1401" on="0"/>
        <pt x="1214" y="1366" on="1"/>
        <pt x="1256" y="1348" on="0"/>
        <pt x="1301" y="1270" on="0"/>
        <pt x="1301" y="1204" on="0"/>
        <pt x="1248" y="1137" on="0"/>
        <pt x="1207" y="1137" on="1"/>
        <pt x="1189" y="1137" on="0"/>
        <pt x="1075" y="1232" on="0"/>
        <pt x="959" y="1282" on="0"/>
        <pt x="750" y="1282" on="0"/>
        <pt x="554" y="1165" on="0"/>
        <pt x="416" y="985" on="0"/>
        <pt x="325" y="728" on="0"/>
        <pt x="325" y="608" on="1"/>
        <pt x="325" y="286" on="0"/>
        <pt x="537" y="177" on="1"/>
        <pt x="618" y="135" on="0"/>
        <pt x="707" y="135" on="1"/>
        <pt x="860" y="135" on="0"/>
        <pt x="1032" y="279" on="0"/>
        <pt x="1032" y="389" on="1"/>
        <pt x="1032" y="460" on="0"/>
        <pt x="988" y="507" on="1"/>
        <pt x="911" y="589" on="0"/>
        <pt x="911" y="598" on="1"/>
        <pt x="911" y="627" on="0"/>
        <pt x="1166" y="627" on="0"/>
        <pt x="1202" y="605" on="1"/>
        <pt x="1220" y="594" on="0"/>
        <pt x="1220" y="494" on="0"/>
        <pt x="1153" y="233" on="1"/>
        <pt x="1125" y="124" on="0"/>
        <pt x="1046" y="45" on="0"/>
        <pt x="789" y="-30" on="0"/>
        <pt x="698" y="-30" on="1"/>
        <pt x="662" y="-30" on="1"/>
        <pt x="563" y="-30" on="0"/>
        <pt x="459" y="19" on="1"/>
        <pt x="354" y="68" on="0"/>
        <pt x="282" y="154" on="1"/>
        <pt x="146" y="316" on="0"/>
        <pt x="146" y="576" on="1"/>
        <pt x="146" y="746" on="0"/>
        <pt x="271" y="1049" on="0"/>
        <pt x="484" y="1283" on="0"/>
        <pt x="757" y="1401" on="0"/>
      </contour>
    </TTGlyph>
    <TTGlyph name="H" xMin="88" yMin="5" xMax="1477" yMax="1388">
      <contour>
        <pt x="1189" y="1296" on="1"/>
        <pt x="1189" y="1337" on="0"/>
        <pt x="1282" y="1388" on="0"/>
        <pt x="1477" y="1388" on="0"/>
        <pt x="1477" y="1313" on="1"/>
        <pt x="1477" y="1295" on="0"/>
        <pt x="1402" y="1212" on="0"/>
        <pt x="1385" y="1154" on="0"/>
        <pt x="1363" y="1031" on="0"/>
        <pt x="1321" y="834" on="0"/>
        <pt x="1274" y="597" on="0"/>
        <pt x="1212" y="295" on="0"/>
        <pt x="1212" y="194" on="1"/>
        <pt x="1212" y="164" on="0"/>
        <pt x="1262" y="89" on="0"/>
        <pt x="1262" y="85" on="1"/>
        <pt x="1262" y="14" on="0"/>
        <pt x="1081" y="14" on="0"/>
        <pt x="1033" y="36" on="1"/>
        <pt x="965" y="67" on="0"/>
        <pt x="965" y="114" on="1"/>
        <pt x="965" y="131" on="0"/>
        <pt x="1032" y="233" on="0"/>
        <pt x="1042" y="265" on="1"/>
        <pt x="1089" y="418" on="0"/>
        <pt x="1089" y="550" on="1"/>
        <pt x="1089" y="646" on="0"/>
        <pt x="1006" y="659" on="1"/>
        <pt x="953" y="667" on="0"/>
        <pt x="636" y="667" on="1"/>
        <pt x="493" y="667" on="0"/>
        <pt x="457" y="619" on="1"/>
        <pt x="431" y="584" on="0"/>
        <pt x="360" y="299" on="0"/>
        <pt x="360" y="223" on="0"/>
        <pt x="385" y="114" on="0"/>
        <pt x="385" y="107" on="1"/>
        <pt x="385" y="5" on="0"/>
        <pt x="160" y="5" on="1"/>
        <pt x="88" y="5" on="0"/>
        <pt x="88" y="91" on="0"/>
        <pt x="175" y="183" on="0"/>
        <pt x="189" y="240" on="1"/>
        <pt x="235" y="423" on="0"/>
        <pt x="361" y="1177" on="0"/>
        <pt x="361" y="1230" on="0"/>
        <pt x="309" y="1304" on="0"/>
        <pt x="309" y="1314" on="1"/>
        <pt x="309" y="1375" on="0"/>
        <pt x="407" y="1375" on="1"/>
        <pt x="606" y="1375" on="0"/>
        <pt x="606" y="1284" on="1"/>
        <pt x="606" y="1269" on="0"/>
        <pt x="538" y="1179" on="0"/>
        <pt x="528" y="1140" on="1"/>
        <pt x="488" y="992" on="0"/>
        <pt x="488" y="812" on="0"/>
        <pt x="537" y="790" on="1"/>
        <pt x="570" y="775" on="0"/>
        <pt x="911" y="775" on="1"/>
        <pt x="1098" y="775" on="0"/>
        <pt x="1130" y="820" on="1"/>
        <pt x="1152" y="851" on="0"/>
        <pt x="1216" y="1117" on="0"/>
        <pt x="1216" y="1198" on="0"/>
        <pt x="1189" y="1288" on="0"/>
      </contour>
    </TTGlyph>
    <TTGlyph name="I" xMin="101" yMin="-2" xMax="673" yMax="1398">
      <contour>
        <pt x="289" y="-2" on="1"/>
        <pt x="232" y="-2" on="1"/>
        <pt x="171" y="-2" on="0"/>
        <pt x="101" y="39" on="0"/>
        <pt x="101" y="54" on="1"/>
        <pt x="101" y="70" on="1"/>
        <pt x="101" y="92" on="0"/>
        <pt x="199" y="186" on="0"/>
        <pt x="229" y="295" on="0"/>
        <pt x="379" y="1109" on="0"/>
        <pt x="379" y="1186" on="1"/>
        <pt x="379" y="1211" on="0"/>
        <pt x="314" y="1280" on="0"/>
        <pt x="314" y="1305" on="1"/>
        <pt x="314" y="1350" on="0"/>
        <pt x="430" y="1398" on="0"/>
        <pt x="520" y="1398" on="1"/>
        <pt x="577" y="1398" on="1"/>
        <pt x="616" y="1398" on="0"/>
        <pt x="673" y="1362" on="0"/>
        <pt x="673" y="1314" on="0"/>
        <pt x="611" y="1252" on="1"/>
        <pt x="577" y="1218" on="0"/>
        <pt x="542" y="1074" on="0"/>
        <pt x="395" y="275" on="0"/>
        <pt x="395" y="180" on="0"/>
        <pt x="455" y="106" on="0"/>
        <pt x="455" y="52" on="0"/>
        <pt x="431" y="36" on="1"/>
        <pt x="375" y="-2" on="0"/>
      </contour>
    </TTGlyph>
    <TTGlyph name="Iacute" xMin="95" yMin="8" xMax="804" yMax="1859">
      <contour>
        <pt x="730" y="1859" on="1"/>
        <pt x="740" y="1859" on="1"/>
        <pt x="804" y="1859" on="0"/>
        <pt x="804" y="1831" on="1"/>
        <pt x="804" y="1827" on="1"/>
        <pt x="804" y="1786" on="0"/>
        <pt x="578" y="1610" on="1"/>
        <pt x="497" y="1547" on="0"/>
        <pt x="449" y="1547" on="1"/>
        <pt x="444" y="1547" on="1"/>
        <pt x="421" y="1547" on="0"/>
        <pt x="421" y="1561" on="1"/>
        <pt x="421" y="1569" on="1"/>
        <pt x="421" y="1579" on="0"/>
        <pt x="446" y="1612" on="1"/>
        <pt x="631" y="1859" on="0"/>
      </contour>
      <contour>
        <pt x="263" y="8" on="1"/>
        <pt x="227" y="8" on="1"/>
        <pt x="155" y="8" on="0"/>
        <pt x="112" y="40" on="1"/>
        <pt x="95" y="53" on="0"/>
        <pt x="95" y="104" on="0"/>
        <pt x="197" y="189" on="0"/>
        <pt x="211" y="249" on="1"/>
        <pt x="252" y="422" on="0"/>
        <pt x="353" y="1029" on="0"/>
        <pt x="383" y="1182" on="0"/>
        <pt x="383" y="1236" on="0"/>
        <pt x="316" y="1303" on="0"/>
        <pt x="316" y="1371" on="0"/>
        <pt x="413" y="1421" on="0"/>
        <pt x="520" y="1421" on="1"/>
        <pt x="539" y="1421" on="1"/>
        <pt x="653" y="1421" on="0"/>
        <pt x="653" y="1363" on="1"/>
        <pt x="653" y="1331" on="0"/>
        <pt x="560" y="1257" on="0"/>
        <pt x="546" y="1200" on="1"/>
        <pt x="541" y="1179" on="0"/>
        <pt x="366" y="230" on="0"/>
        <pt x="366" y="185" on="0"/>
        <pt x="431" y="114" on="0"/>
        <pt x="431" y="52" on="0"/>
        <pt x="339" y="8" on="0"/>
      </contour>
    </TTGlyph>
    <TTGlyph name="Icircumflex" xMin="90" yMin="4" xMax="790" yMax="1853">
      <contour>
        <pt x="285" y="1549" on="1"/>
        <pt x="271" y="1549" on="1"/>
        <pt x="252" y="1549" on="0"/>
        <pt x="252" y="1561" on="1"/>
        <pt x="252" y="1566" on="1"/>
        <pt x="252" y="1574" on="0"/>
        <pt x="531" y="1853" on="0"/>
        <pt x="573" y="1853" on="1"/>
        <pt x="580" y="1853" on="1"/>
        <pt x="617" y="1853" on="0"/>
        <pt x="675" y="1769" on="1"/>
        <pt x="790" y="1603" on="0"/>
        <pt x="790" y="1550" on="0"/>
        <pt x="718" y="1550" on="0"/>
        <pt x="556" y="1727" on="0"/>
        <pt x="550" y="1727" on="0"/>
        <pt x="318" y="1549" on="0"/>
      </contour>
      <contour>
        <pt x="258" y="4" on="1"/>
        <pt x="222" y="4" on="1"/>
        <pt x="150" y="4" on="0"/>
        <pt x="107" y="36" on="1"/>
        <pt x="90" y="49" on="0"/>
        <pt x="90" y="100" on="0"/>
        <pt x="191" y="185" on="0"/>
        <pt x="206" y="245" on="1"/>
        <pt x="248" y="417" on="0"/>
        <pt x="351" y="1037" on="1"/>
        <pt x="358" y="1073" on="1"/>
        <pt x="378" y="1193" on="0"/>
        <pt x="378" y="1195" on="1"/>
        <pt x="378" y="1233" on="0"/>
        <pt x="311" y="1303" on="0"/>
        <pt x="311" y="1329" on="1"/>
        <pt x="311" y="1417" on="0"/>
        <pt x="515" y="1417" on="1"/>
        <pt x="534" y="1417" on="1"/>
        <pt x="648" y="1417" on="0"/>
        <pt x="648" y="1359" on="1"/>
        <pt x="648" y="1327" on="0"/>
        <pt x="555" y="1253" on="0"/>
        <pt x="524" y="1128" on="0"/>
        <pt x="361" y="220" on="0"/>
        <pt x="361" y="182" on="0"/>
        <pt x="426" y="111" on="0"/>
        <pt x="426" y="48" on="0"/>
        <pt x="334" y="4" on="0"/>
      </contour>
    </TTGlyph>
    <TTGlyph name="Idieresis" xMin="96" yMin="5" xMax="823" yMax="1784">
      <contour>
        <pt x="351" y="1587" on="1"/>
        <pt x="284" y="1587" on="0"/>
        <pt x="284" y="1652" on="1"/>
        <pt x="284" y="1683" on="1"/>
        <pt x="284" y="1722" on="0"/>
        <pt x="345" y="1783" on="0"/>
        <pt x="382" y="1783" on="1"/>
        <pt x="392" y="1783" on="1"/>
        <pt x="467" y="1783" on="0"/>
        <pt x="467" y="1702" on="1"/>
        <pt x="467" y="1699" on="1"/>
        <pt x="467" y="1657" on="0"/>
        <pt x="415" y="1592" on="0"/>
        <pt x="393" y="1592" on="1"/>
        <pt x="384" y="1589" on="0"/>
        <pt x="381" y="1589" on="1"/>
        <pt x="366" y="1587" on="1"/>
      </contour>
      <contour>
        <pt x="820" y="1679" on="0"/>
        <pt x="820" y="1654" on="0"/>
        <pt x="771" y="1592" on="0"/>
        <pt x="747" y="1592" on="1"/>
        <pt x="741" y="1590" on="0"/>
        <pt x="738" y="1590" on="1"/>
        <pt x="726" y="1588" on="1"/>
        <pt x="705" y="1588" on="1"/>
        <pt x="644" y="1588" on="0"/>
        <pt x="644" y="1638" on="1"/>
        <pt x="642" y="1642" on="0"/>
        <pt x="642" y="1646" on="1"/>
        <pt x="640" y="1658" on="1"/>
        <pt x="640" y="1683" on="1"/>
        <pt x="645" y="1698" on="0"/>
        <pt x="645" y="1722" on="0"/>
        <pt x="692" y="1780" on="0"/>
        <pt x="717" y="1780" on="1"/>
        <pt x="723" y="1782" on="0"/>
        <pt x="726" y="1782" on="1"/>
        <pt x="741" y="1784" on="1"/>
        <pt x="750" y="1784" on="1"/>
        <pt x="819" y="1784" on="0"/>
        <pt x="819" y="1731" on="1"/>
        <pt x="821" y="1725" on="0"/>
        <pt x="821" y="1722" on="1"/>
        <pt x="823" y="1710" on="1"/>
        <pt x="823" y="1688" on="1"/>
      </contour>
      <contour>
        <pt x="283" y="5" on="1"/>
        <pt x="229" y="5" on="1"/>
        <pt x="158" y="5" on="0"/>
        <pt x="113" y="36" on="1"/>
        <pt x="96" y="48" on="0"/>
        <pt x="96" y="101" on="0"/>
        <pt x="196" y="181" on="0"/>
        <pt x="209" y="227" on="1"/>
        <pt x="253" y="384" on="0"/>
        <pt x="343" y="957" on="0"/>
        <pt x="386" y="1184" on="0"/>
        <pt x="386" y="1236" on="0"/>
        <pt x="317" y="1305" on="0"/>
        <pt x="317" y="1332" on="1"/>
        <pt x="317" y="1418" on="0"/>
        <pt x="543" y="1418" on="1"/>
        <pt x="659" y="1418" on="0"/>
        <pt x="659" y="1360" on="1"/>
        <pt x="659" y="1330" on="0"/>
        <pt x="565" y="1255" on="0"/>
        <pt x="542" y="1164" on="0"/>
        <pt x="436" y="573" on="0"/>
        <pt x="370" y="261" on="0"/>
        <pt x="370" y="180" on="0"/>
        <pt x="436" y="108" on="0"/>
        <pt x="436" y="47" on="0"/>
        <pt x="346" y="5" on="0"/>
      </contour>
    </TTGlyph>
    <TTGlyph name="Igrave" xMin="88" yMin="8" xMax="646" yMax="1861">
      <contour>
        <pt x="605" y="1575" on="1"/>
        <pt x="605" y="1566" on="1"/>
        <pt x="605" y="1549" on="0"/>
        <pt x="581" y="1549" on="1"/>
        <pt x="577" y="1549" on="1"/>
        <pt x="572" y="1550" on="1"/>
        <pt x="519" y="1550" on="0"/>
        <pt x="440" y="1629" on="1"/>
        <pt x="272" y="1797" on="0"/>
        <pt x="272" y="1824" on="1"/>
        <pt x="271" y="1828" on="1"/>
        <pt x="271" y="1861" on="0"/>
        <pt x="328" y="1861" on="1"/>
        <pt x="357" y="1861" on="1"/>
        <pt x="406" y="1861" on="0"/>
        <pt x="444" y="1817" on="1"/>
        <pt x="605" y="1629" on="0"/>
      </contour>
      <contour>
        <pt x="256" y="8" on="1"/>
        <pt x="220" y="8" on="1"/>
        <pt x="145" y="8" on="0"/>
        <pt x="105" y="40" on="1"/>
        <pt x="88" y="54" on="0"/>
        <pt x="88" y="106" on="0"/>
        <pt x="189" y="187" on="0"/>
        <pt x="204" y="249" on="1"/>
        <pt x="243" y="408" on="0"/>
        <pt x="291" y="697" on="1"/>
        <pt x="340" y="986" on="0"/>
        <pt x="376" y="1182" on="0"/>
        <pt x="376" y="1236" on="0"/>
        <pt x="309" y="1306" on="0"/>
        <pt x="309" y="1378" on="0"/>
        <pt x="416" y="1421" on="0"/>
        <pt x="494" y="1421" on="1"/>
        <pt x="549" y="1421" on="1"/>
        <pt x="646" y="1421" on="0"/>
        <pt x="646" y="1363" on="1"/>
        <pt x="646" y="1332" on="0"/>
        <pt x="554" y="1259" on="0"/>
        <pt x="532" y="1172" on="0"/>
        <pt x="359" y="234" on="0"/>
        <pt x="359" y="186" on="0"/>
        <pt x="424" y="115" on="0"/>
        <pt x="424" y="55" on="0"/>
        <pt x="337" y="8" on="0"/>
      </contour>
    </TTGlyph>
    <TTGlyph name="J" xMin="-19" yMin="-202" xMax="766" yMax="1394">
      <contour>
        <pt x="492" y="643" on="1"/>
        <pt x="516" y="748" on="0"/>
        <pt x="516" y="1174" on="0"/>
        <pt x="448" y="1248" on="0"/>
        <pt x="448" y="1331" on="0"/>
        <pt x="551" y="1394" on="0"/>
        <pt x="622" y="1394" on="1"/>
        <pt x="644" y="1394" on="1"/>
        <pt x="681" y="1394" on="0"/>
        <pt x="766" y="1319" on="0"/>
        <pt x="766" y="1275" on="1"/>
        <pt x="766" y="1260" on="1"/>
        <pt x="766" y="1102" on="0"/>
        <pt x="640" y="486" on="1"/>
        <pt x="604" y="310" on="0"/>
        <pt x="516" y="106" on="1"/>
        <pt x="453" y="-39" on="0"/>
        <pt x="249" y="-202" on="0"/>
        <pt x="130" y="-202" on="1"/>
        <pt x="109" y="-202" on="1"/>
        <pt x="53" y="-202" on="0"/>
        <pt x="5" y="-172" on="1"/>
        <pt x="-19" y="-157" on="0"/>
        <pt x="-19" y="-132" on="1"/>
        <pt x="-19" y="-72" on="0"/>
        <pt x="207" y="-16" on="0"/>
        <pt x="240" y="11" on="1"/>
        <pt x="306" y="65" on="0"/>
        <pt x="409" y="283" on="0"/>
      </contour>
    </TTGlyph>
    <TTGlyph name="K" xMin="113" yMin="-10" xMax="1284" yMax="1386">
      <contour>
        <pt x="1133" y="1386" on="0"/>
        <pt x="1284" y="1386" on="0"/>
        <pt x="1284" y="1344" on="1"/>
        <pt x="1284" y="1321" on="0"/>
        <pt x="1055" y="1124" on="0"/>
        <pt x="1018" y="1085" on="1"/>
        <pt x="731" y="787" on="0"/>
        <pt x="731" y="695" on="0"/>
        <pt x="930" y="363" on="1"/>
        <pt x="1009" y="231" on="0"/>
        <pt x="1163" y="71" on="0"/>
        <pt x="1163" y="36" on="1"/>
        <pt x="1163" y="-10" on="0"/>
        <pt x="965" y="-10" on="0"/>
        <pt x="920" y="44" on="1"/>
        <pt x="898" y="71" on="0"/>
        <pt x="764" y="355" on="0"/>
        <pt x="595" y="641" on="0"/>
        <pt x="558" y="641" on="1"/>
        <pt x="486" y="641" on="0"/>
        <pt x="377" y="398" on="0"/>
        <pt x="377" y="278" on="1"/>
        <pt x="377" y="259" on="0"/>
        <pt x="383" y="212" on="1"/>
        <pt x="391" y="155" on="1"/>
        <pt x="391" y="94" on="0"/>
        <pt x="318" y="45" on="1"/>
        <pt x="273" y="15" on="0"/>
        <pt x="113" y="15" on="0"/>
        <pt x="113" y="64" on="1"/>
        <pt x="113" y="93" on="0"/>
        <pt x="181" y="179" on="0"/>
        <pt x="193" y="233" on="1"/>
        <pt x="355" y="982" on="0"/>
        <pt x="355" y="1187" on="1"/>
        <pt x="355" y="1224" on="0"/>
        <pt x="322" y="1322" on="0"/>
        <pt x="322" y="1324" on="1"/>
        <pt x="322" y="1378" on="0"/>
        <pt x="439" y="1378" on="1"/>
        <pt x="494" y="1378" on="0"/>
        <pt x="582" y="1337" on="0"/>
        <pt x="582" y="1287" on="1"/>
        <pt x="582" y="1267" on="0"/>
        <pt x="556" y="1207" on="1"/>
        <pt x="472" y="1016" on="0"/>
        <pt x="471" y="856" on="1"/>
        <pt x="471" y="814" on="0"/>
        <pt x="500" y="814" on="1"/>
        <pt x="563" y="814" on="0"/>
        <pt x="983" y="1197" on="0"/>
        <pt x="1079" y="1344" on="0"/>
        <pt x="1088" y="1351" on="1"/>
      </contour>
    </TTGlyph>
    <TTGlyph name="L" xMin="95" yMin="-6" xMax="1031" yMax="1400">
      <contour>
        <pt x="834" y="-6" on="1"/>
        <pt x="731" y="-6" on="1"/>
        <pt x="705" y="-5" on="1"/>
        <pt x="572" y="-3" on="1"/>
        <pt x="292" y="-3" on="0"/>
        <pt x="95" y="14" on="0"/>
        <pt x="95" y="59" on="1"/>
        <pt x="95" y="87" on="0"/>
        <pt x="152" y="164" on="1"/>
        <pt x="202" y="230" on="0"/>
        <pt x="298" y="820" on="1"/>
        <pt x="354" y="1157" on="0"/>
        <pt x="354" y="1189" on="1"/>
        <pt x="354" y="1219" on="0"/>
        <pt x="332" y="1262" on="1"/>
        <pt x="310" y="1304" on="0"/>
        <pt x="310" y="1346" on="0"/>
        <pt x="380" y="1400" on="0"/>
        <pt x="447" y="1400" on="1"/>
        <pt x="473" y="1400" on="1"/>
        <pt x="626" y="1400" on="0"/>
        <pt x="626" y="1321" on="1"/>
        <pt x="626" y="1296" on="0"/>
        <pt x="542" y="1192" on="0"/>
        <pt x="503" y="1036" on="0"/>
        <pt x="363" y="241" on="0"/>
        <pt x="363" y="214" on="1"/>
        <pt x="363" y="145" on="0"/>
        <pt x="417" y="125" on="1"/>
        <pt x="455" y="111" on="0"/>
        <pt x="709" y="111" on="0"/>
        <pt x="855" y="161" on="0"/>
        <pt x="966" y="222" on="0"/>
        <pt x="1005" y="222" on="1"/>
        <pt x="1031" y="222" on="0"/>
        <pt x="1031" y="183" on="1"/>
        <pt x="1031" y="87" on="0"/>
        <pt x="1000" y="50" on="1"/>
        <pt x="953" y="-6" on="0"/>
      </contour>
    </TTGlyph>
    <TTGlyph name="Lslash" xMin="96" yMin="-12" xMax="1079" yMax="1379">
      <contour>
        <pt x="96" y="61" on="1"/>
        <pt x="96" y="85" on="0"/>
        <pt x="180" y="185" on="0"/>
        <pt x="241" y="364" on="0"/>
        <pt x="241" y="483" on="1"/>
        <pt x="241" y="521" on="0"/>
        <pt x="202" y="526" on="1"/>
        <pt x="143" y="534" on="0"/>
        <pt x="143" y="560" on="1"/>
        <pt x="143" y="594" on="0"/>
        <pt x="258" y="706" on="0"/>
        <pt x="274" y="746" on="1"/>
        <pt x="382" y="1018" on="0"/>
        <pt x="382" y="1188" on="1"/>
        <pt x="382" y="1224" on="0"/>
        <pt x="318" y="1296" on="0"/>
        <pt x="318" y="1331" on="0"/>
        <pt x="392" y="1379" on="0"/>
        <pt x="581" y="1379" on="0"/>
        <pt x="650" y="1330" on="0"/>
        <pt x="650" y="1281" on="0"/>
        <pt x="612" y="1233" on="1"/>
        <pt x="528" y="1128" on="0"/>
        <pt x="527" y="928" on="1"/>
        <pt x="527" y="847" on="0"/>
        <pt x="573" y="847" on="1"/>
        <pt x="594" y="847" on="0"/>
        <pt x="762" y="903" on="0"/>
        <pt x="808" y="903" on="1"/>
        <pt x="826" y="903" on="0"/>
        <pt x="826" y="879" on="1"/>
        <pt x="826" y="837" on="0"/>
        <pt x="546" y="689" on="0"/>
        <pt x="490" y="607" on="1"/>
        <pt x="455" y="555" on="0"/>
        <pt x="392" y="293" on="0"/>
        <pt x="392" y="260" on="1"/>
        <pt x="392" y="175" on="0"/>
        <pt x="505" y="98" on="0"/>
        <pt x="759" y="98" on="0"/>
        <pt x="861" y="146" on="1"/>
        <pt x="884" y="157" on="0"/>
        <pt x="1012" y="239" on="0"/>
        <pt x="1079" y="239" on="0"/>
        <pt x="1079" y="206" on="1"/>
        <pt x="1079" y="184" on="1"/>
        <pt x="1079" y="67" on="0"/>
        <pt x="989" y="-12" on="0"/>
        <pt x="887" y="-12" on="1"/>
        <pt x="854" y="-12" on="1"/>
        <pt x="821" y="-11" on="1"/>
        <pt x="688" y="-9" on="1"/>
        <pt x="655" y="-7" on="1"/>
        <pt x="317" y="0" on="1"/>
        <pt x="96" y="0" on="0"/>
      </contour>
    </TTGlyph>
    <TTGlyph name="M" xMin="106" yMin="24" xMax="1718" yMax="1375">
      <contour>
        <pt x="349" y="1305" on="1"/>
        <pt x="349" y="1305" on="0"/>
        <pt x="349" y="1306" on="1"/>
        <pt x="349" y="1375" on="0"/>
        <pt x="456" y="1375" on="1"/>
        <pt x="570" y="1375" on="0"/>
        <pt x="693" y="1117" on="0"/>
        <pt x="821" y="662" on="1"/>
        <pt x="858" y="532" on="0"/>
        <pt x="867" y="509" on="1"/>
        <pt x="886" y="472" on="1"/>
        <pt x="909" y="472" on="0"/>
        <pt x="1149" y="822" on="1"/>
        <pt x="1180" y="868" on="0"/>
        <pt x="1212" y="915" on="1"/>
        <pt x="1275" y="1010" on="1"/>
        <pt x="1390" y="1181" on="0"/>
        <pt x="1427" y="1230" on="1"/>
        <pt x="1457" y="1269" on="1"/>
        <pt x="1540" y="1366" on="0"/>
        <pt x="1650" y="1366" on="1"/>
        <pt x="1718" y="1366" on="0"/>
        <pt x="1718" y="1321" on="1"/>
        <pt x="1718" y="1317" on="0"/>
        <pt x="1664" y="1199" on="0"/>
        <pt x="1644" y="1102" on="1"/>
        <pt x="1634" y="1046" on="1"/>
        <pt x="1626" y="999" on="0"/>
        <pt x="1586" y="707" on="0"/>
        <pt x="1511" y="257" on="0"/>
        <pt x="1511" y="185" on="0"/>
        <pt x="1547" y="99" on="0"/>
        <pt x="1547" y="65" on="1"/>
        <pt x="1547" y="24" on="0"/>
        <pt x="1397" y="24" on="0"/>
        <pt x="1308" y="87" on="0"/>
        <pt x="1308" y="139" on="1"/>
        <pt x="1308" y="158" on="0"/>
        <pt x="1350" y="269" on="0"/>
        <pt x="1378" y="382" on="0"/>
        <pt x="1454" y="1010" on="0"/>
        <pt x="1454" y="1053" on="0"/>
        <pt x="1446" y="1053" on="1"/>
        <pt x="1421" y="1053" on="0"/>
        <pt x="987" y="335" on="0"/>
        <pt x="870" y="183" on="0"/>
        <pt x="811" y="183" on="1"/>
        <pt x="781" y="183" on="0"/>
        <pt x="756" y="245" on="1"/>
        <pt x="740" y="296" on="1"/>
        <pt x="729" y="333" on="0"/>
        <pt x="692" y="479" on="0"/>
        <pt x="670" y="559" on="1"/>
        <pt x="631" y="722" on="1"/>
        <pt x="598" y="857" on="0"/>
        <pt x="538" y="1054" on="0"/>
        <pt x="502" y="1054" on="1"/>
        <pt x="486" y="1054" on="0"/>
        <pt x="334" y="379" on="0"/>
        <pt x="321" y="280" on="0"/>
        <pt x="315" y="145" on="0"/>
        <pt x="302" y="99" on="0"/>
        <pt x="232" y="46" on="0"/>
        <pt x="106" y="46" on="0"/>
        <pt x="106" y="101" on="1"/>
        <pt x="121" y="139" on="1"/>
        <pt x="172" y="217" on="1"/>
        <pt x="192" y="257" on="0"/>
        <pt x="216" y="368" on="1"/>
        <pt x="359" y="1039" on="0"/>
        <pt x="359" y="1230" on="1"/>
        <pt x="353" y="1272" on="1"/>
      </contour>
    </TTGlyph>
    <TTGlyph name="N" xMin="95" yMin="17" xMax="1504" yMax="1381">
      <contour>
        <pt x="1410" y="1381" on="1"/>
        <pt x="1504" y="1381" on="0"/>
        <pt x="1504" y="1296" on="1"/>
        <pt x="1504" y="1278" on="0"/>
        <pt x="1417" y="1155" on="0"/>
        <pt x="1369" y="993" on="0"/>
        <pt x="1243" y="335" on="0"/>
        <pt x="1211" y="92" on="0"/>
        <pt x="1209" y="84" on="1"/>
        <pt x="1195" y="29" on="0"/>
        <pt x="1153" y="29" on="1"/>
        <pt x="1086" y="29" on="0"/>
        <pt x="1037" y="103" on="1"/>
        <pt x="974" y="200" on="0"/>
        <pt x="546" y="1098" on="0"/>
        <pt x="499" y="1098" on="1"/>
        <pt x="484" y="1098" on="0"/>
        <pt x="465" y="1043" on="0"/>
        <pt x="341" y="387" on="0"/>
        <pt x="341" y="275" on="0"/>
        <pt x="362" y="170" on="0"/>
        <pt x="362" y="152" on="1"/>
        <pt x="362" y="99" on="0"/>
        <pt x="242" y="17" on="0"/>
        <pt x="95" y="17" on="0"/>
        <pt x="95" y="59" on="1"/>
        <pt x="95" y="87" on="0"/>
        <pt x="180" y="213" on="0"/>
        <pt x="199" y="302" on="1"/>
        <pt x="364" y="1058" on="0"/>
        <pt x="364" y="1219" on="1"/>
        <pt x="364" y="1250" on="0"/>
        <pt x="352" y="1289" on="1"/>
        <pt x="341" y="1318" on="1"/>
        <pt x="334" y="1342" on="1"/>
        <pt x="334" y="1376" on="0"/>
        <pt x="470" y="1376" on="0"/>
        <pt x="601" y="1295" on="0"/>
        <pt x="693" y="1162" on="0"/>
        <pt x="1104" y="321" on="0"/>
        <pt x="1127" y="321" on="1"/>
        <pt x="1138" y="344" on="1"/>
        <pt x="1147" y="372" on="0"/>
        <pt x="1267" y="1013" on="0"/>
        <pt x="1267" y="1155" on="1"/>
        <pt x="1265" y="1189" on="1"/>
        <pt x="1263" y="1222" on="0"/>
        <pt x="1263" y="1251" on="1"/>
        <pt x="1263" y="1381" on="0"/>
      </contour>
    </TTGlyph>
    <TTGlyph name="Nacute" xMin="96" yMin="39" xMax="1589" yMax="1886">
      <contour>
        <pt x="964" y="1560" on="1"/>
        <pt x="959" y="1560" on="1"/>
        <pt x="935" y="1560" on="0"/>
        <pt x="935" y="1583" on="1"/>
        <pt x="935" y="1638" on="0"/>
        <pt x="1165" y="1842" on="1"/>
        <pt x="1215" y="1886" on="0"/>
        <pt x="1267" y="1886" on="1"/>
        <pt x="1273" y="1885" on="1"/>
        <pt x="1278" y="1885" on="1"/>
        <pt x="1353" y="1885" on="0"/>
        <pt x="1353" y="1847" on="1"/>
        <pt x="1353" y="1843" on="1"/>
        <pt x="1353" y="1814" on="0"/>
        <pt x="1153" y="1658" on="1"/>
        <pt x="1027" y="1560" on="0"/>
      </contour>
      <contour>
        <pt x="394" y="138" on="1"/>
        <pt x="394" y="49" on="0"/>
        <pt x="200" y="49" on="1"/>
        <pt x="96" y="49" on="0"/>
        <pt x="96" y="95" on="1"/>
        <pt x="96" y="121" on="1"/>
        <pt x="96" y="137" on="0"/>
        <pt x="127" y="176" on="1"/>
        <pt x="175" y="238" on="1"/>
        <pt x="192" y="266" on="0"/>
        <pt x="231" y="404" on="1"/>
        <pt x="402" y="1003" on="0"/>
        <pt x="402" y="1225" on="1"/>
        <pt x="402" y="1266" on="0"/>
        <pt x="387" y="1299" on="1"/>
        <pt x="370" y="1328" on="1"/>
        <pt x="349" y="1361" on="0"/>
        <pt x="349" y="1372" on="1"/>
        <pt x="349" y="1411" on="0"/>
        <pt x="493" y="1411" on="0"/>
        <pt x="649" y="1342" on="0"/>
        <pt x="734" y="1226" on="0"/>
        <pt x="1144" y="387" on="0"/>
        <pt x="1150" y="387" on="1"/>
        <pt x="1187" y="387" on="0"/>
        <pt x="1234" y="588" on="1"/>
        <pt x="1330" y="1002" on="0"/>
        <pt x="1330" y="1131" on="1"/>
        <pt x="1320" y="1202" on="1"/>
        <pt x="1315" y="1249" on="0"/>
        <pt x="1315" y="1261" on="1"/>
        <pt x="1315" y="1333" on="0"/>
        <pt x="1380" y="1387" on="0"/>
        <pt x="1589" y="1387" on="0"/>
        <pt x="1589" y="1322" on="1"/>
        <pt x="1589" y="1321" on="0"/>
        <pt x="1502" y="1221" on="1"/>
        <pt x="1433" y="1139" on="0"/>
        <pt x="1306" y="560" on="1"/>
        <pt x="1249" y="302" on="0"/>
        <pt x="1236" y="98" on="0"/>
        <pt x="1234" y="90" on="1"/>
        <pt x="1222" y="39" on="0"/>
        <pt x="1176" y="39" on="1"/>
        <pt x="1116" y="39" on="0"/>
        <pt x="997" y="257" on="1"/>
        <pt x="981" y="286" on="0"/>
        <pt x="934" y="394" on="1"/>
        <pt x="610" y="1142" on="0"/>
        <pt x="553" y="1143" on="1"/>
        <pt x="535" y="1143" on="0"/>
        <pt x="503" y="1060" on="0"/>
        <pt x="346" y="349" on="0"/>
        <pt x="346" y="261" on="0"/>
        <pt x="361" y="219" on="1"/>
        <pt x="374" y="188" on="1"/>
        <pt x="394" y="145" on="0"/>
      </contour>
    </TTGlyph>
    <TTGlyph name="Ntilde" xMin="102" yMin="21" xMax="1530" yMax="1784">
      <contour>
        <pt x="868" y="1784" on="1"/>
        <pt x="898" y="1784" on="1"/>
        <pt x="941" y="1784" on="0"/>
        <pt x="1086" y="1697" on="0"/>
        <pt x="1167" y="1697" on="0"/>
        <pt x="1269" y="1782" on="0"/>
        <pt x="1281" y="1782" on="1"/>
        <pt x="1307" y="1782" on="0"/>
        <pt x="1307" y="1760" on="1"/>
        <pt x="1307" y="1704" on="0"/>
        <pt x="1178" y="1586" on="0"/>
        <pt x="1114" y="1586" on="1"/>
        <pt x="1092" y="1586" on="1"/>
        <pt x="1052" y="1586" on="0"/>
        <pt x="883" y="1676" on="0"/>
        <pt x="810" y="1676" on="0"/>
        <pt x="711" y="1593" on="0"/>
        <pt x="672" y="1593" on="0"/>
        <pt x="672" y="1613" on="1"/>
        <pt x="672" y="1620" on="1"/>
        <pt x="672" y="1664" on="0"/>
        <pt x="803" y="1784" on="0"/>
      </contour>
      <contour>
        <pt x="1359" y="1393" on="0"/>
        <pt x="1481" y="1393" on="0"/>
        <pt x="1530" y="1348" on="0"/>
        <pt x="1530" y="1288" on="0"/>
        <pt x="1438" y="1187" on="0"/>
        <pt x="1422" y="1134" on="1"/>
        <pt x="1378" y="988" on="0"/>
        <pt x="1296" y="522" on="0"/>
        <pt x="1251" y="290" on="0"/>
        <pt x="1243" y="234" on="1"/>
        <pt x="1237" y="190" on="1"/>
        <pt x="1227" y="105" on="1"/>
        <pt x="1213" y="39" on="0"/>
        <pt x="1156" y="39" on="1"/>
        <pt x="1107" y="39" on="0"/>
        <pt x="1001" y="211" on="1"/>
        <pt x="966" y="268" on="0"/>
        <pt x="548" y="1124" on="0"/>
        <pt x="507" y="1124" on="1"/>
        <pt x="490" y="1124" on="0"/>
        <pt x="471" y="1081" on="0"/>
        <pt x="335" y="383" on="0"/>
        <pt x="335" y="295" on="0"/>
        <pt x="341" y="261" on="1"/>
        <pt x="348" y="227" on="1"/>
        <pt x="362" y="169" on="0"/>
        <pt x="362" y="164" on="1"/>
        <pt x="362" y="101" on="0"/>
        <pt x="251" y="21" on="0"/>
        <pt x="137" y="21" on="0"/>
        <pt x="102" y="43" on="0"/>
        <pt x="102" y="85" on="1"/>
        <pt x="102" y="94" on="0"/>
        <pt x="182" y="222" on="0"/>
        <pt x="218" y="353" on="0"/>
        <pt x="298" y="790" on="0"/>
        <pt x="371" y="1150" on="0"/>
        <pt x="371" y="1258" on="1"/>
        <pt x="364" y="1293" on="1"/>
        <pt x="344" y="1348" on="1"/>
        <pt x="344" y="1387" on="0"/>
        <pt x="478" y="1387" on="0"/>
        <pt x="619" y="1295" on="0"/>
        <pt x="710" y="1166" on="0"/>
        <pt x="1128" y="321" on="0"/>
        <pt x="1155" y="321" on="0"/>
        <pt x="1197" y="489" on="0"/>
        <pt x="1294" y="1042" on="0"/>
        <pt x="1294" y="1115" on="1"/>
        <pt x="1286" y="1288" on="1"/>
        <pt x="1286" y="1332" on="0"/>
      </contour>
    </TTGlyph>
    <TTGlyph name="O" xMin="143" yMin="-18" xMax="1420" yMax="1424">
      <contour>
        <pt x="1243" y="838" on="1"/>
        <pt x="1243" y="873" on="1"/>
        <pt x="1243" y="1078" on="0"/>
        <pt x="1145" y="1195" on="1"/>
        <pt x="1047" y="1311" on="0"/>
        <pt x="884" y="1311" on="1"/>
        <pt x="659" y="1311" on="0"/>
        <pt x="497" y="1103" on="1"/>
        <pt x="418" y="1001" on="0"/>
        <pt x="321" y="711" on="0"/>
        <pt x="321" y="588" on="1"/>
        <pt x="321" y="518" on="1"/>
        <pt x="321" y="515" on="0"/>
        <pt x="321" y="512" on="1"/>
        <pt x="321" y="429" on="0"/>
        <pt x="350" y="346" on="1"/>
        <pt x="496" y="142" on="0"/>
        <pt x="672" y="97" on="1"/>
        <pt x="909" y="97" on="0"/>
        <pt x="1067" y="307" on="1"/>
        <pt x="1147" y="413" on="0"/>
        <pt x="1243" y="693" on="0"/>
      </contour>
      <contour>
        <pt x="1420" y="873" on="1"/>
        <pt x="1420" y="829" on="1"/>
        <pt x="1420" y="677" on="0"/>
        <pt x="1303" y="358" on="0"/>
        <pt x="1093" y="110" on="0"/>
        <pt x="815" y="-18" on="0"/>
        <pt x="690" y="-18" on="1"/>
        <pt x="645" y="-18" on="1"/>
        <pt x="534" y="-18" on="0"/>
        <pt x="437" y="26" on="1"/>
        <pt x="251" y="109" on="0"/>
        <pt x="178" y="317" on="1"/>
        <pt x="143" y="417" on="0"/>
        <pt x="143" y="531" on="1"/>
        <pt x="143" y="554" on="1"/>
        <pt x="144" y="576" on="1"/>
        <pt x="144" y="740" on="0"/>
        <pt x="272" y="1067" on="0"/>
        <pt x="489" y="1307" on="0"/>
        <pt x="757" y="1424" on="0"/>
        <pt x="896" y="1424" on="1"/>
        <pt x="919" y="1424" on="1"/>
        <pt x="1027" y="1424" on="0"/>
        <pt x="1123" y="1384" on="1"/>
        <pt x="1316" y="1303" on="0"/>
        <pt x="1386" y="1087" on="1"/>
        <pt x="1420" y="982" on="0"/>
      </contour>
    </TTGlyph>
    <TTGlyph name="OE" xMin="201" yMin="-3" xMax="1926" yMax="1410">
      <contour>
        <pt x="1089" y="1156" on="1"/>
        <pt x="1089" y="1313" on="0"/>
        <pt x="902" y="1313" on="1"/>
        <pt x="871" y="1313" on="1"/>
        <pt x="666" y="1313" on="0"/>
        <pt x="498" y="1086" on="1"/>
        <pt x="425" y="987" on="0"/>
        <pt x="340" y="707" on="0"/>
        <pt x="340" y="575" on="1"/>
        <pt x="341" y="558" on="1"/>
        <pt x="341" y="376" on="0"/>
        <pt x="428" y="260" on="1"/>
        <pt x="477" y="195" on="0"/>
        <pt x="604" y="127" on="0"/>
        <pt x="662" y="127" on="1"/>
        <pt x="710" y="127" on="1"/>
        <pt x="787" y="127" on="0"/>
        <pt x="928" y="200" on="0"/>
        <pt x="1005" y="356" on="0"/>
        <pt x="1081" y="734" on="0"/>
        <pt x="1081" y="891" on="1"/>
        <pt x="1085" y="959" on="0"/>
        <pt x="1085" y="974" on="1"/>
        <pt x="1087" y="1041" on="1"/>
        <pt x="1089" y="1123" on="1"/>
      </contour>
      <contour>
        <pt x="1748" y="151" on="1"/>
        <pt x="1741" y="144" on="0"/>
        <pt x="1734" y="137" on="1"/>
        <pt x="1707" y="110" on="0"/>
        <pt x="1682" y="90" on="1"/>
        <pt x="1653" y="68" on="0"/>
        <pt x="1538" y="27" on="0"/>
        <pt x="1397" y="27" on="0"/>
        <pt x="1170" y="77" on="0"/>
        <pt x="1152" y="77" on="0"/>
        <pt x="815" y="-3" on="0"/>
        <pt x="719" y="-3" on="1"/>
        <pt x="676" y="-3" on="1"/>
        <pt x="574" y="-3" on="0"/>
        <pt x="486" y="36" on="1"/>
        <pt x="304" y="117" on="0"/>
        <pt x="237" y="314" on="1"/>
        <pt x="201" y="418" on="0"/>
        <pt x="201" y="529" on="1"/>
        <pt x="201" y="575" on="1"/>
        <pt x="201" y="722" on="0"/>
        <pt x="255" y="876" on="1"/>
        <pt x="367" y="1195" on="0"/>
        <pt x="633" y="1337" on="1"/>
        <pt x="770" y="1410" on="0"/>
        <pt x="901" y="1410" on="1"/>
        <pt x="942" y="1410" on="1"/>
        <pt x="1023" y="1410" on="0"/>
        <pt x="1298" y="1344" on="0"/>
        <pt x="1341" y="1344" on="0"/>
        <pt x="1475" y="1383" on="0"/>
        <pt x="1597" y="1408" on="0"/>
        <pt x="1764" y="1408" on="0"/>
        <pt x="1926" y="1312" on="0"/>
        <pt x="1926" y="1276" on="1"/>
        <pt x="1926" y="1275" on="0"/>
        <pt x="1904" y="1275" on="0"/>
        <pt x="1661" y="1293" on="0"/>
        <pt x="1449" y="1293" on="0"/>
        <pt x="1398" y="1224" on="1"/>
        <pt x="1376" y="1194" on="0"/>
        <pt x="1348" y="1100" on="1"/>
        <pt x="1321" y="1007" on="0"/>
        <pt x="1321" y="943" on="1"/>
        <pt x="1321" y="805" on="0"/>
        <pt x="1446" y="805" on="1"/>
        <pt x="1448" y="805" on="1"/>
        <pt x="1504" y="805" on="0"/>
        <pt x="1639" y="835" on="0"/>
        <pt x="1663" y="835" on="1"/>
        <pt x="1720" y="835" on="0"/>
        <pt x="1741" y="801" on="1"/>
        <pt x="1752" y="784" on="0"/>
        <pt x="1752" y="701" on="0"/>
        <pt x="1698" y="631" on="0"/>
        <pt x="1640" y="631" on="1"/>
        <pt x="1636" y="631" on="0"/>
        <pt x="1482" y="670" on="0"/>
        <pt x="1348" y="670" on="0"/>
        <pt x="1312" y="648" on="1"/>
        <pt x="1215" y="587" on="0"/>
        <pt x="1215" y="246" on="1"/>
        <pt x="1215" y="198" on="0"/>
        <pt x="1299" y="131" on="0"/>
        <pt x="1385" y="131" on="1"/>
        <pt x="1729" y="148" on="1"/>
        <pt x="1739" y="148" on="0"/>
      </contour>
    </TTGlyph>
    <TTGlyph name="Oacute" xMin="144" yMin="1" xMax="1429" yMax="1852">
      <contour>
        <pt x="670" y="133" on="1"/>
        <pt x="705" y="133" on="1"/>
        <pt x="806" y="133" on="0"/>
        <pt x="1020" y="254" on="0"/>
        <pt x="1101" y="368" on="1"/>
        <pt x="1265" y="599" on="0"/>
        <pt x="1265" y="895" on="1"/>
        <pt x="1264" y="912" on="1"/>
        <pt x="1264" y="1113" on="0"/>
        <pt x="1060" y="1353" on="0"/>
        <pt x="913" y="1353" on="1"/>
        <pt x="878" y="1353" on="1"/>
        <pt x="774" y="1353" on="0"/>
        <pt x="672" y="1293" on="1"/>
        <pt x="459" y="1168" on="0"/>
        <pt x="365" y="886" on="1"/>
        <pt x="318" y="745" on="0"/>
        <pt x="318" y="609" on="1"/>
        <pt x="318" y="591" on="1"/>
        <pt x="319" y="573" on="1"/>
        <pt x="319" y="492" on="0"/>
        <pt x="346" y="402" on="1"/>
        <pt x="399" y="225" on="0"/>
        <pt x="537" y="161" on="1"/>
        <pt x="597" y="133" on="0"/>
      </contour>
      <contour>
        <pt x="1151" y="1852" on="1"/>
        <pt x="1171" y="1852" on="1"/>
        <pt x="1219" y="1852" on="0"/>
        <pt x="1219" y="1827" on="1"/>
        <pt x="1219" y="1793" on="0"/>
        <pt x="1089" y="1692" on="1"/>
        <pt x="881" y="1530" on="0"/>
        <pt x="857" y="1530" on="1"/>
        <pt x="843" y="1530" on="1"/>
        <pt x="824" y="1530" on="0"/>
        <pt x="824" y="1543" on="1"/>
        <pt x="824" y="1547" on="1"/>
        <pt x="824" y="1607" on="0"/>
        <pt x="1054" y="1808" on="1"/>
        <pt x="1104" y="1852" on="0"/>
      </contour>
      <contour>
        <pt x="1428" y="826" on="1"/>
        <pt x="1428" y="690" on="0"/>
        <pt x="1307" y="367" on="0"/>
        <pt x="1088" y="125" on="0"/>
        <pt x="819" y="1" on="0"/>
        <pt x="694" y="1" on="1"/>
        <pt x="649" y="1" on="1"/>
        <pt x="546" y="1" on="0"/>
        <pt x="450" y="43" on="1"/>
        <pt x="262" y="125" on="0"/>
        <pt x="188" y="320" on="1"/>
        <pt x="144" y="437" on="0"/>
        <pt x="144" y="555" on="1"/>
        <pt x="144" y="622" on="1"/>
        <pt x="144" y="765" on="0"/>
        <pt x="270" y="1088" on="0"/>
        <pt x="485" y="1325" on="0"/>
        <pt x="754" y="1449" on="0"/>
        <pt x="879" y="1449" on="1"/>
        <pt x="924" y="1449" on="1"/>
        <pt x="1023" y="1449" on="0"/>
        <pt x="1220" y="1368" on="0"/>
        <pt x="1290" y="1288" on="1"/>
        <pt x="1429" y="1128" on="0"/>
        <pt x="1429" y="874" on="1"/>
        <pt x="1429" y="870" on="1"/>
        <pt x="1428" y="848" on="1"/>
      </contour>
    </TTGlyph>
    <TTGlyph name="Ocircumflex" xMin="148" yMin="-7" xMax="1433" yMax="1831">
      <contour>
        <pt x="1268" y="859" on="1"/>
        <pt x="1268" y="894" on="1"/>
        <pt x="1268" y="981" on="0"/>
        <pt x="1241" y="1071" on="1"/>
        <pt x="1159" y="1346" on="0"/>
        <pt x="887" y="1346" on="1"/>
        <pt x="782" y="1346" on="0"/>
        <pt x="570" y="1229" on="0"/>
        <pt x="409" y="1015" on="0"/>
        <pt x="318" y="741" on="0"/>
        <pt x="318" y="608" on="1"/>
        <pt x="318" y="590" on="1"/>
        <pt x="319" y="572" on="1"/>
        <pt x="319" y="569" on="0"/>
        <pt x="319" y="566" on="1"/>
        <pt x="319" y="481" on="0"/>
        <pt x="346" y="396" on="1"/>
        <pt x="400" y="225" on="0"/>
        <pt x="533" y="158" on="1"/>
        <pt x="595" y="127" on="0"/>
        <pt x="665" y="127" on="1"/>
        <pt x="701" y="127" on="1"/>
        <pt x="925" y="127" on="0"/>
        <pt x="1103" y="354" on="1"/>
        <pt x="1177" y="449" on="0"/>
        <pt x="1268" y="723" on="0"/>
      </contour>
      <contour>
        <pt x="990" y="1831" on="1"/>
        <pt x="997" y="1831" on="1"/>
        <pt x="1004" y="1830" on="1"/>
        <pt x="1039" y="1830" on="0"/>
        <pt x="1093" y="1752" on="1"/>
        <pt x="1204" y="1592" on="0"/>
        <pt x="1204" y="1547" on="0"/>
        <pt x="1132" y="1547" on="0"/>
        <pt x="960" y="1719" on="0"/>
        <pt x="948" y="1719" on="0"/>
        <pt x="899" y="1678" on="1"/>
        <pt x="724" y="1532" on="0"/>
        <pt x="688" y="1532" on="1"/>
        <pt x="681" y="1532" on="1"/>
        <pt x="658" y="1532" on="0"/>
        <pt x="658" y="1545" on="1"/>
        <pt x="658" y="1549" on="1"/>
        <pt x="658" y="1564" on="0"/>
        <pt x="759" y="1648" on="0"/>
        <pt x="798" y="1687" on="1"/>
        <pt x="942" y="1831" on="0"/>
      </contour>
      <contour>
        <pt x="1433" y="885" on="1"/>
        <pt x="1433" y="841" on="1"/>
        <pt x="1433" y="689" on="0"/>
        <pt x="1364" y="500" on="1"/>
        <pt x="1320" y="380" on="0"/>
        <pt x="1119" y="134" on="0"/>
        <pt x="829" y="-7" on="0"/>
        <pt x="699" y="-7" on="1"/>
        <pt x="654" y="-7" on="1"/>
        <pt x="550" y="-7" on="0"/>
        <pt x="454" y="35" on="1"/>
        <pt x="258" y="120" on="0"/>
        <pt x="185" y="333" on="1"/>
        <pt x="148" y="441" on="0"/>
        <pt x="148" y="547" on="1"/>
        <pt x="148" y="592" on="1"/>
        <pt x="148" y="746" on="0"/>
        <pt x="268" y="1073" on="0"/>
        <pt x="494" y="1322" on="0"/>
        <pt x="768" y="1442" on="0"/>
        <pt x="892" y="1442" on="1"/>
        <pt x="1268" y="1442" on="0"/>
        <pt x="1392" y="1111" on="1"/>
        <pt x="1432" y="1003" on="0"/>
      </contour>
    </TTGlyph>
    <TTGlyph name="Odieresis" xMin="148" yMin="-7" xMax="1433" yMax="1779">
      <contour>
        <pt x="663" y="125" on="1"/>
        <pt x="699" y="125" on="1"/>
        <pt x="805" y="125" on="0"/>
        <pt x="1007" y="236" on="0"/>
        <pt x="1168" y="444" on="0"/>
        <pt x="1262" y="726" on="0"/>
        <pt x="1262" y="878" on="1"/>
        <pt x="1261" y="896" on="1"/>
        <pt x="1261" y="1084" on="0"/>
        <pt x="1164" y="1215" on="1"/>
        <pt x="1116" y="1280" on="0"/>
        <pt x="981" y="1343" on="0"/>
        <pt x="918" y="1343" on="1"/>
        <pt x="883" y="1343" on="1"/>
        <pt x="795" y="1343" on="0"/>
        <pt x="587" y="1249" on="0"/>
        <pt x="413" y="1025" on="0"/>
        <pt x="319" y="743" on="0"/>
        <pt x="319" y="608" on="1"/>
        <pt x="319" y="590" on="1"/>
        <pt x="320" y="573" on="1"/>
        <pt x="320" y="379" on="0"/>
        <pt x="418" y="252" on="1"/>
        <pt x="466" y="190" on="0"/>
        <pt x="596" y="125" on="0"/>
      </contour>
      <contour>
        <pt x="866" y="1672" on="0"/>
        <pt x="866" y="1654" on="0"/>
        <pt x="818" y="1594" on="0"/>
        <pt x="793" y="1594" on="1"/>
        <pt x="784" y="1591" on="0"/>
        <pt x="781" y="1591" on="1"/>
        <pt x="766" y="1589" on="1"/>
        <pt x="753" y="1589" on="1"/>
        <pt x="681" y="1589" on="0"/>
        <pt x="681" y="1658" on="1"/>
        <pt x="681" y="1676" on="1"/>
        <pt x="681" y="1710" on="0"/>
        <pt x="732" y="1774" on="0"/>
        <pt x="756" y="1774" on="1"/>
        <pt x="765" y="1777" on="0"/>
        <pt x="768" y="1777" on="1"/>
        <pt x="783" y="1779" on="1"/>
        <pt x="796" y="1779" on="1"/>
        <pt x="870" y="1779" on="0"/>
        <pt x="870" y="1704" on="1"/>
        <pt x="870" y="1698" on="1"/>
        <pt x="869" y="1695" on="1"/>
        <pt x="869" y="1685" on="1"/>
      </contour>
      <contour>
        <pt x="1083" y="1565" on="1"/>
        <pt x="1037" y="1565" on="0"/>
        <pt x="1037" y="1603" on="1"/>
        <pt x="1034" y="1614" on="1"/>
        <pt x="1034" y="1617" on="0"/>
        <pt x="1034" y="1620" on="1"/>
        <pt x="1033" y="1629" on="1"/>
        <pt x="1033" y="1632" on="1"/>
        <pt x="1034" y="1635" on="1"/>
        <pt x="1034" y="1642" on="1"/>
        <pt x="1038" y="1667" on="0"/>
        <pt x="1038" y="1668" on="1"/>
        <pt x="1038" y="1692" on="0"/>
        <pt x="1098" y="1767" on="0"/>
        <pt x="1125" y="1767" on="1"/>
        <pt x="1149" y="1772" on="1"/>
        <pt x="1164" y="1772" on="1"/>
        <pt x="1212" y="1772" on="0"/>
        <pt x="1212" y="1728" on="1"/>
        <pt x="1215" y="1710" on="1"/>
        <pt x="1215" y="1695" on="1"/>
        <pt x="1215" y="1650" on="0"/>
        <pt x="1147" y="1568" on="0"/>
        <pt x="1115" y="1568" on="1"/>
        <pt x="1101" y="1565" on="1"/>
      </contour>
      <contour>
        <pt x="1433" y="885" on="1"/>
        <pt x="1433" y="840" on="1"/>
        <pt x="1433" y="840" on="0"/>
        <pt x="1433" y="835" on="1"/>
        <pt x="1433" y="685" on="0"/>
        <pt x="1376" y="531" on="1"/>
        <pt x="1259" y="213" on="0"/>
        <pt x="988" y="70" on="1"/>
        <pt x="842" y="-7" on="0"/>
        <pt x="699" y="-7" on="1"/>
        <pt x="654" y="-7" on="1"/>
        <pt x="555" y="-7" on="0"/>
        <pt x="361" y="72" on="0"/>
        <pt x="291" y="150" on="1"/>
        <pt x="148" y="309" on="0"/>
        <pt x="148" y="569" on="1"/>
        <pt x="148" y="592" on="1"/>
        <pt x="148" y="744" on="0"/>
        <pt x="264" y="1061" on="0"/>
        <pt x="467" y="1300" on="0"/>
        <pt x="749" y="1441" on="0"/>
        <pt x="883" y="1441" on="1"/>
        <pt x="929" y="1441" on="1"/>
        <pt x="931" y="1441" on="0"/>
        <pt x="934" y="1441" on="1"/>
        <pt x="1031" y="1441" on="0"/>
        <pt x="1124" y="1402" on="1"/>
        <pt x="1312" y="1325" on="0"/>
        <pt x="1389" y="1119" on="1"/>
        <pt x="1433" y="1002" on="0"/>
      </contour>
    </TTGlyph>
    <TTGlyph name="Ograve" xMin="149" yMin="1" xMax="1434" yMax="1853">
      <contour>
        <pt x="319" y="628" on="1"/>
        <pt x="319" y="575" on="1"/>
        <pt x="319" y="572" on="0"/>
        <pt x="319" y="569" on="1"/>
        <pt x="319" y="481" on="0"/>
        <pt x="348" y="398" on="1"/>
        <pt x="439" y="134" on="0"/>
        <pt x="684" y="133" on="1"/>
        <pt x="929" y="133" on="0"/>
        <pt x="1095" y="356" on="1"/>
        <pt x="1262" y="579" on="0"/>
        <pt x="1262" y="876" on="1"/>
        <pt x="1262" y="894" on="1"/>
        <pt x="1262" y="1084" on="0"/>
        <pt x="1179" y="1202" on="1"/>
        <pt x="1074" y="1353" on="0"/>
        <pt x="910" y="1353" on="1"/>
        <pt x="874" y="1353" on="1"/>
        <pt x="767" y="1353" on="0"/>
        <pt x="563" y="1233" on="0"/>
        <pt x="409" y="1028" on="0"/>
        <pt x="319" y="757" on="0"/>
      </contour>
      <contour>
        <pt x="1034" y="1557" on="1"/>
        <pt x="1034" y="1549" on="1"/>
        <pt x="1034" y="1535" on="0"/>
        <pt x="1013" y="1535" on="1"/>
        <pt x="1009" y="1535" on="1"/>
        <pt x="983" y="1535" on="0"/>
        <pt x="692" y="1790" on="0"/>
        <pt x="692" y="1821" on="1"/>
        <pt x="692" y="1825" on="1"/>
        <pt x="692" y="1853" on="0"/>
        <pt x="745" y="1853" on="1"/>
        <pt x="763" y="1853" on="1"/>
        <pt x="773" y="1851" on="0"/>
        <pt x="777" y="1851" on="1"/>
        <pt x="828" y="1851" on="0"/>
        <pt x="897" y="1747" on="1"/>
        <pt x="933" y="1694" on="0"/>
        <pt x="1034" y="1578" on="0"/>
      </contour>
      <contour>
        <pt x="1433" y="827" on="1"/>
        <pt x="1433" y="668" on="0"/>
        <pt x="1366" y="510" on="1"/>
        <pt x="1227" y="181" on="0"/>
        <pt x="950" y="60" on="1"/>
        <pt x="815" y="1" on="0"/>
        <pt x="686" y="1" on="1"/>
        <pt x="445" y="1" on="0"/>
        <pt x="305" y="145" on="1"/>
        <pt x="230" y="223" on="0"/>
        <pt x="149" y="438" on="0"/>
        <pt x="149" y="556" on="1"/>
        <pt x="149" y="601" on="1"/>
        <pt x="149" y="759" on="0"/>
        <pt x="271" y="1084" on="0"/>
        <pt x="488" y="1324" on="0"/>
        <pt x="761" y="1450" on="0"/>
        <pt x="907" y="1450" on="1"/>
        <pt x="929" y="1450" on="1"/>
        <pt x="1033" y="1450" on="0"/>
        <pt x="1131" y="1408" on="1"/>
        <pt x="1229" y="1364" on="0"/>
        <pt x="1297" y="1286" on="1"/>
        <pt x="1434" y="1128" on="0"/>
        <pt x="1434" y="871" on="1"/>
        <pt x="1433" y="849" on="1"/>
      </contour>
    </TTGlyph>
    <TTGlyph name="Oslash" xMin="203" yMin="-11" xMax="1415" yMax="1432">
      <contour>
        <pt x="328" y="615" on="1"/>
        <pt x="328" y="555" on="1"/>
        <pt x="328" y="455" on="0"/>
        <pt x="393" y="259" on="0"/>
        <pt x="427" y="259" on="1"/>
        <pt x="437" y="259" on="1"/>
        <pt x="453" y="259" on="0"/>
        <pt x="476" y="282" on="1"/>
        <pt x="630" y="436" on="0"/>
        <pt x="759" y="618" on="1"/>
        <pt x="1107" y="1109" on="0"/>
        <pt x="1107" y="1195" on="1"/>
        <pt x="1107" y="1257" on="0"/>
        <pt x="1006" y="1332" on="0"/>
        <pt x="935" y="1332" on="1"/>
        <pt x="920" y="1332" on="1"/>
        <pt x="799" y="1332" on="0"/>
        <pt x="696" y="1278" on="1"/>
        <pt x="496" y="1174" on="0"/>
        <pt x="393" y="920" on="1"/>
        <pt x="328" y="760" on="0"/>
      </contour>
      <contour>
        <pt x="1234" y="992" on="1"/>
        <pt x="1234" y="1031" on="1"/>
        <pt x="1234" y="1175" on="0"/>
        <pt x="1193" y="1175" on="1"/>
        <pt x="1185" y="1175" on="1"/>
        <pt x="1170" y="1175" on="0"/>
        <pt x="881" y="693" on="0"/>
        <pt x="516" y="199" on="0"/>
        <pt x="516" y="180" on="1"/>
        <pt x="516" y="170" on="1"/>
        <pt x="516" y="152" on="0"/>
        <pt x="562" y="102" on="0"/>
        <pt x="602" y="102" on="1"/>
        <pt x="614" y="102" on="1"/>
        <pt x="720" y="102" on="0"/>
        <pt x="931" y="246" on="0"/>
        <pt x="1118" y="510" on="0"/>
        <pt x="1234" y="871" on="0"/>
      </contour>
      <contour>
        <pt x="1021" y="1426" on="1"/>
        <pt x="1164" y="1417" on="1"/>
        <pt x="1211" y="1417" on="0"/>
        <pt x="1268" y="1432" on="1"/>
        <pt x="1282" y="1432" on="1"/>
        <pt x="1349" y="1432" on="0"/>
        <pt x="1349" y="1369" on="1"/>
        <pt x="1342" y="1309" on="0"/>
        <pt x="1342" y="1245" on="0"/>
        <pt x="1415" y="986" on="0"/>
        <pt x="1415" y="891" on="1"/>
        <pt x="1415" y="865" on="1"/>
        <pt x="1415" y="708" on="0"/>
        <pt x="1292" y="367" on="0"/>
        <pt x="1177" y="242" on="1"/>
        <pt x="948" y="-7" on="0"/>
        <pt x="630" y="-7" on="1"/>
        <pt x="419" y="6" on="1"/>
        <pt x="379" y="6" on="0"/>
        <pt x="319" y="-11" on="1"/>
        <pt x="305" y="-11" on="1"/>
        <pt x="242" y="-11" on="0"/>
        <pt x="242" y="58" on="1"/>
        <pt x="269" y="161" on="0"/>
        <pt x="269" y="229" on="0"/>
        <pt x="225" y="358" on="0"/>
        <pt x="203" y="454" on="0"/>
        <pt x="203" y="539" on="1"/>
        <pt x="204" y="744" on="0"/>
        <pt x="270" y="910" on="1"/>
        <pt x="478" y="1426" on="0"/>
      </contour>
    </TTGlyph>
    <TTGlyph name="Otilde" xMin="147" yMin="-13" xMax="1432" yMax="1763">
      <contour>
        <pt x="1267" y="861" on="1"/>
        <pt x="1267" y="896" on="1"/>
        <pt x="1267" y="994" on="0"/>
        <pt x="1238" y="1078" on="1"/>
        <pt x="1149" y="1338" on="0"/>
        <pt x="899" y="1338" on="1"/>
        <pt x="789" y="1338" on="0"/>
        <pt x="579" y="1233" on="0"/>
        <pt x="411" y="1017" on="0"/>
        <pt x="318" y="738" on="0"/>
        <pt x="318" y="616" on="1"/>
        <pt x="318" y="562" on="1"/>
        <pt x="318" y="468" on="0"/>
        <pt x="348" y="383" on="1"/>
        <pt x="439" y="120" on="0"/>
        <pt x="687" y="120" on="1"/>
        <pt x="928" y="120" on="0"/>
        <pt x="1098" y="346" on="1"/>
        <pt x="1176" y="450" on="0"/>
        <pt x="1267" y="721" on="0"/>
      </contour>
      <contour>
        <pt x="1261" y="1736" on="1"/>
        <pt x="1261" y="1679" on="0"/>
        <pt x="1125" y="1577" on="0"/>
        <pt x="1004" y="1577" on="0"/>
        <pt x="838" y="1660" on="0"/>
        <pt x="762" y="1660" on="0"/>
        <pt x="664" y="1570" on="0"/>
        <pt x="651" y="1570" on="1"/>
        <pt x="645" y="1570" on="1"/>
        <pt x="623" y="1570" on="0"/>
        <pt x="623" y="1589" on="1"/>
        <pt x="623" y="1596" on="1"/>
        <pt x="623" y="1647" on="0"/>
        <pt x="760" y="1752" on="0"/>
        <pt x="889" y="1752" on="0"/>
        <pt x="1039" y="1672" on="0"/>
        <pt x="1118" y="1672" on="0"/>
        <pt x="1227" y="1763" on="0"/>
        <pt x="1234" y="1763" on="1"/>
        <pt x="1240" y="1763" on="1"/>
        <pt x="1261" y="1763" on="0"/>
        <pt x="1261" y="1743" on="1"/>
      </contour>
      <contour>
        <pt x="1432" y="880" on="1"/>
        <pt x="1432" y="835" on="1"/>
        <pt x="1432" y="679" on="0"/>
        <pt x="1306" y="344" on="0"/>
        <pt x="1197" y="227" on="1"/>
        <pt x="973" y="-13" on="0"/>
        <pt x="675" y="-13" on="1"/>
        <pt x="442" y="-13" on="0"/>
        <pt x="303" y="130" on="1"/>
        <pt x="228" y="207" on="0"/>
        <pt x="147" y="424" on="0"/>
        <pt x="147" y="542" on="1"/>
        <pt x="147" y="587" on="1"/>
        <pt x="147" y="741" on="0"/>
        <pt x="266" y="1066" on="0"/>
        <pt x="377" y="1188" on="1"/>
        <pt x="601" y="1436" on="0"/>
        <pt x="904" y="1436" on="1"/>
        <pt x="927" y="1436" on="1"/>
        <pt x="1028" y="1436" on="0"/>
        <pt x="1126" y="1395" on="1"/>
        <pt x="1312" y="1317" on="0"/>
        <pt x="1388" y="1114" on="1"/>
        <pt x="1432" y="997" on="0"/>
      </contour>
    </TTGlyph>
    <TTGlyph name="P" xMin="117" yMin="0" xMax="1218" yMax="1415">
      <contour>
        <pt x="516" y="697" on="1"/>
        <pt x="578" y="697" on="1"/>
        <pt x="589" y="698" on="1"/>
        <pt x="662" y="701" on="1"/>
        <pt x="673" y="702" on="0"/>
        <pt x="683" y="702" on="1"/>
        <pt x="826" y="702" on="0"/>
        <pt x="943" y="803" on="1"/>
        <pt x="991" y="844" on="0"/>
        <pt x="1051" y="987" on="0"/>
        <pt x="1051" y="1050" on="1"/>
        <pt x="1051" y="1083" on="1"/>
        <pt x="1051" y="1189" on="0"/>
        <pt x="902" y="1308" on="0"/>
        <pt x="763" y="1308" on="1"/>
        <pt x="742" y="1308" on="1"/>
        <pt x="731" y="1307" on="1"/>
        <pt x="581" y="1307" on="0"/>
        <pt x="559" y="1260" on="1"/>
        <pt x="552" y="1245" on="0"/>
        <pt x="457" y="746" on="0"/>
        <pt x="457" y="736" on="1"/>
        <pt x="457" y="718" on="1"/>
        <pt x="457" y="697" on="0"/>
      </contour>
      <contour>
        <pt x="345" y="1346" on="1"/>
        <pt x="345" y="1379" on="0"/>
        <pt x="420" y="1392" on="1"/>
        <pt x="555" y="1415" on="0"/>
        <pt x="719" y="1415" on="1"/>
        <pt x="769" y="1415" on="1"/>
        <pt x="1095" y="1415" on="0"/>
        <pt x="1186" y="1226" on="1"/>
        <pt x="1218" y="1160" on="0"/>
        <pt x="1218" y="1090" on="1"/>
        <pt x="1218" y="1065" on="1"/>
        <pt x="1218" y="971" on="0"/>
        <pt x="1177" y="883" on="1"/>
        <pt x="1090" y="696" on="0"/>
        <pt x="884" y="630" on="1"/>
        <pt x="806" y="605" on="0"/>
        <pt x="564" y="585" on="0"/>
        <pt x="429" y="496" on="0"/>
        <pt x="385" y="400" on="0"/>
        <pt x="385" y="296" on="1"/>
        <pt x="385" y="294" on="0"/>
        <pt x="404" y="173" on="0"/>
        <pt x="404" y="147" on="1"/>
        <pt x="404" y="92" on="0"/>
        <pt x="297" y="0" on="0"/>
        <pt x="221" y="0" on="1"/>
        <pt x="200" y="0" on="1"/>
        <pt x="117" y="0" on="0"/>
        <pt x="117" y="76" on="1"/>
        <pt x="117" y="100" on="0"/>
        <pt x="175" y="216" on="1"/>
        <pt x="199" y="265" on="0"/>
        <pt x="232" y="418" on="1"/>
        <pt x="364" y="1038" on="0"/>
        <pt x="364" y="1252" on="1"/>
        <pt x="364" y="1269" on="0"/>
        <pt x="345" y="1324" on="0"/>
      </contour>
    </TTGlyph>
    <TTGlyph name="Q" xMin="162" yMin="-218" xMax="1438" yMax="1422">
      <contour>
        <pt x="310" y="594" on="1"/>
        <pt x="310" y="557" on="1"/>
        <pt x="310" y="345" on="0"/>
        <pt x="529" y="96" on="0"/>
        <pt x="703" y="96" on="1"/>
        <pt x="722" y="96" on="1"/>
        <pt x="811" y="96" on="0"/>
        <pt x="906" y="157" on="1"/>
        <pt x="1053" y="251" on="0"/>
        <pt x="1156" y="381" on="1"/>
        <pt x="1213" y="453" on="0"/>
        <pt x="1284" y="694" on="0"/>
        <pt x="1284" y="806" on="1"/>
        <pt x="1284" y="842" on="1"/>
        <pt x="1284" y="1053" on="0"/>
        <pt x="1068" y="1309" on="0"/>
        <pt x="890" y="1309" on="1"/>
        <pt x="871" y="1309" on="1"/>
        <pt x="640" y="1309" on="0"/>
        <pt x="469" y="1083" on="1"/>
        <pt x="397" y="987" on="0"/>
        <pt x="310" y="718" on="0"/>
      </contour>
      <contour>
        <pt x="1438" y="981" on="0"/>
        <pt x="1438" y="740" on="0"/>
        <pt x="1383" y="516" on="0"/>
        <pt x="1251" y="263" on="0"/>
        <pt x="1028" y="40" on="0"/>
        <pt x="1028" y="25" on="1"/>
        <pt x="1028" y="-16" on="0"/>
        <pt x="1154" y="-103" on="1"/>
        <pt x="1199" y="-134" on="0"/>
        <pt x="1289" y="-145" on="0"/>
        <pt x="1289" y="-165" on="0"/>
        <pt x="1266" y="-180" on="1"/>
        <pt x="1208" y="-218" on="0"/>
        <pt x="1136" y="-218" on="1"/>
        <pt x="1112" y="-218" on="1"/>
        <pt x="1004" y="-218" on="0"/>
        <pt x="801" y="-134" on="1"/>
        <pt x="457" y="8" on="0"/>
        <pt x="274" y="170" on="0"/>
        <pt x="162" y="426" on="0"/>
        <pt x="162" y="586" on="1"/>
        <pt x="162" y="936" on="0"/>
        <pt x="386" y="1191" on="1"/>
        <pt x="480" y="1298" on="0"/>
        <pt x="744" y="1422" on="0"/>
        <pt x="893" y="1422" on="1"/>
        <pt x="922" y="1422" on="1"/>
        <pt x="1035" y="1422" on="0"/>
        <pt x="1241" y="1334" on="0"/>
        <pt x="1365" y="1188" on="0"/>
      </contour>
    </TTGlyph>
    <TTGlyph name="R" xMin="87" yMin="2" xMax="1168" yMax="1407">
      <contour>
        <pt x="499" y="743" on="1"/>
        <pt x="606" y="743" on="1"/>
        <pt x="790" y="743" on="0"/>
        <pt x="1009" y="915" on="0"/>
        <pt x="1009" y="1068" on="1"/>
        <pt x="1009" y="1088" on="1"/>
        <pt x="1009" y="1188" on="0"/>
        <pt x="862" y="1304" on="0"/>
        <pt x="741" y="1304" on="1"/>
        <pt x="672" y="1304" on="1"/>
        <pt x="561" y="1304" on="0"/>
        <pt x="525" y="1242" on="0"/>
        <pt x="490" y="1020" on="0"/>
        <pt x="446" y="811" on="0"/>
        <pt x="446" y="784" on="1"/>
        <pt x="446" y="767" on="1"/>
        <pt x="446" y="743" on="0"/>
      </contour>
      <contour>
        <pt x="267" y="11" on="0"/>
        <pt x="87" y="11" on="0"/>
        <pt x="87" y="65" on="1"/>
        <pt x="87" y="87" on="1"/>
        <pt x="87" y="104" on="0"/>
        <pt x="172" y="225" on="0"/>
        <pt x="188" y="293" on="1"/>
        <pt x="236" y="497" on="0"/>
        <pt x="351" y="1212" on="0"/>
        <pt x="351" y="1274" on="0"/>
        <pt x="345" y="1296" on="1"/>
        <pt x="337" y="1317" on="1"/>
        <pt x="326" y="1346" on="0"/>
        <pt x="326" y="1351" on="1"/>
        <pt x="326" y="1385" on="0"/>
        <pt x="427" y="1407" on="0"/>
        <pt x="582" y="1407" on="1"/>
        <pt x="708" y="1407" on="1"/>
        <pt x="934" y="1407" on="0"/>
        <pt x="1041" y="1338" on="1"/>
        <pt x="1168" y="1255" on="0"/>
        <pt x="1168" y="1089" on="1"/>
        <pt x="1168" y="869" on="0"/>
        <pt x="975" y="728" on="1"/>
        <pt x="865" y="648" on="0"/>
        <pt x="865" y="618" on="1"/>
        <pt x="865" y="552" on="0"/>
        <pt x="992" y="272" on="1"/>
        <pt x="1020" y="210" on="0"/>
        <pt x="1130" y="100" on="0"/>
        <pt x="1130" y="73" on="1"/>
        <pt x="1130" y="2" on="0"/>
        <pt x="1031" y="2" on="1"/>
        <pt x="1003" y="2" on="1"/>
        <pt x="928" y="2" on="0"/>
        <pt x="878" y="87" on="1"/>
        <pt x="846" y="142" on="0"/>
        <pt x="742" y="483" on="0"/>
        <pt x="700" y="539" on="1"/>
        <pt x="642" y="618" on="0"/>
        <pt x="469" y="618" on="0"/>
        <pt x="365" y="446" on="0"/>
        <pt x="365" y="298" on="1"/>
        <pt x="387" y="154" on="1"/>
        <pt x="387" y="81" on="0"/>
        <pt x="310" y="36" on="1"/>
      </contour>
    </TTGlyph>
    <TTGlyph name="S" xMin="87" yMin="-11" xMax="1082" yMax="1421">
      <contour>
        <pt x="1082" y="1291" on="0"/>
        <pt x="1082" y="1201" on="0"/>
        <pt x="1030" y="1141" on="0"/>
        <pt x="982" y="1141" on="0"/>
        <pt x="928" y="1197" on="1"/>
        <pt x="822" y="1306" on="0"/>
        <pt x="576" y="1306" on="0"/>
        <pt x="431" y="1174" on="0"/>
        <pt x="431" y="981" on="0"/>
        <pt x="515" y="908" on="1"/>
        <pt x="558" y="871" on="0"/>
        <pt x="860" y="707" on="0"/>
        <pt x="1002" y="545" on="0"/>
        <pt x="1002" y="398" on="1"/>
        <pt x="1002" y="322" on="0"/>
        <pt x="962" y="243" on="1"/>
        <pt x="880" y="79" on="0"/>
        <pt x="692" y="19" on="1"/>
        <pt x="599" y="-11" on="0"/>
        <pt x="468" y="-11" on="0"/>
        <pt x="194" y="35" on="0"/>
        <pt x="162" y="53" on="1"/>
        <pt x="87" y="94" on="0"/>
        <pt x="87" y="189" on="1"/>
        <pt x="87" y="253" on="0"/>
        <pt x="139" y="310" on="0"/>
        <pt x="157" y="310" on="1"/>
        <pt x="192" y="310" on="0"/>
        <pt x="311" y="175" on="0"/>
        <pt x="434" y="108" on="0"/>
        <pt x="660" y="108" on="0"/>
        <pt x="830" y="253" on="0"/>
        <pt x="830" y="463" on="0"/>
        <pt x="758" y="535" on="1"/>
        <pt x="716" y="577" on="0"/>
        <pt x="390" y="759" on="0"/>
        <pt x="268" y="919" on="0"/>
        <pt x="268" y="1045" on="1"/>
        <pt x="268" y="1104" on="0"/>
        <pt x="300" y="1176" on="1"/>
        <pt x="363" y="1321" on="0"/>
        <pt x="530" y="1387" on="1"/>
        <pt x="615" y="1421" on="0"/>
        <pt x="688" y="1421" on="1"/>
        <pt x="721" y="1421" on="1"/>
        <pt x="905" y="1421" on="0"/>
        <pt x="997" y="1391" on="1"/>
        <pt x="1033" y="1379" on="0"/>
      </contour>
    </TTGlyph>
    <TTGlyph name="Scaron" xMin="129" yMin="65" xMax="1089" yMax="1857">
      <contour>
        <pt x="762" y="1506" on="1"/>
        <pt x="736" y="1506" on="1"/>
        <pt x="716" y="1506" on="0"/>
        <pt x="663" y="1573" on="1"/>
        <pt x="572" y="1689" on="0"/>
        <pt x="572" y="1760" on="1"/>
        <pt x="572" y="1766" on="1"/>
        <pt x="572" y="1807" on="0"/>
        <pt x="680" y="1807" on="0"/>
        <pt x="771" y="1678" on="0"/>
        <pt x="781" y="1678" on="1"/>
        <pt x="785" y="1678" on="0"/>
        <pt x="868" y="1746" on="0"/>
        <pt x="1053" y="1857" on="0"/>
        <pt x="1073" y="1857" on="1"/>
        <pt x="1079" y="1857" on="1"/>
        <pt x="1089" y="1857" on="0"/>
        <pt x="1089" y="1849" on="1"/>
        <pt x="1089" y="1844" on="1"/>
        <pt x="1089" y="1836" on="0"/>
        <pt x="959" y="1695" on="0"/>
        <pt x="946" y="1676" on="1"/>
        <pt x="921" y="1639" on="1"/>
        <pt x="885" y="1577" on="0"/>
        <pt x="814" y="1506" on="0"/>
      </contour>
      <contour>
        <pt x="1030" y="1184" on="0"/>
        <pt x="986" y="1184" on="0"/>
        <pt x="940" y="1236" on="1"/>
        <pt x="838" y="1352" on="0"/>
        <pt x="619" y="1352" on="0"/>
        <pt x="488" y="1239" on="0"/>
        <pt x="488" y="1059" on="0"/>
        <pt x="560" y="985" on="1"/>
        <pt x="597" y="947" on="0"/>
        <pt x="874" y="769" on="0"/>
        <pt x="999" y="607" on="0"/>
        <pt x="999" y="474" on="1"/>
        <pt x="999" y="401" on="0"/>
        <pt x="961" y="319" on="1"/>
        <pt x="890" y="166" on="0"/>
        <pt x="715" y="100" on="1"/>
        <pt x="623" y="65" on="0"/>
        <pt x="533" y="65" on="1"/>
        <pt x="500" y="65" on="1"/>
        <pt x="438" y="65" on="0"/>
        <pt x="203" y="119" on="0"/>
        <pt x="182" y="133" on="1"/>
        <pt x="129" y="169" on="0"/>
        <pt x="129" y="315" on="0"/>
        <pt x="175" y="397" on="0"/>
        <pt x="229" y="397" on="0"/>
        <pt x="334" y="269" on="0"/>
        <pt x="372" y="245" on="1"/>
        <pt x="446" y="198" on="0"/>
        <pt x="665" y="198" on="0"/>
        <pt x="806" y="343" on="0"/>
        <pt x="806" y="534" on="0"/>
        <pt x="726" y="610" on="1"/>
        <pt x="689" y="646" on="0"/>
        <pt x="439" y="807" on="0"/>
        <pt x="386" y="871" on="1"/>
        <pt x="307" y="967" on="0"/>
        <pt x="307" y="1096" on="1"/>
        <pt x="307" y="1167" on="0"/>
        <pt x="378" y="1314" on="0"/>
        <pt x="439" y="1365" on="1"/>
        <pt x="564" y="1469" on="0"/>
        <pt x="727" y="1469" on="1"/>
        <pt x="758" y="1469" on="1"/>
        <pt x="791" y="1469" on="0"/>
        <pt x="915" y="1445" on="0"/>
        <pt x="1020" y="1445" on="0"/>
        <pt x="1042" y="1421" on="1"/>
        <pt x="1082" y="1377" on="0"/>
        <pt x="1082" y="1329" on="1"/>
        <pt x="1082" y="1303" on="1"/>
        <pt x="1082" y="1237" on="0"/>
        <pt x="1042" y="1196" on="1"/>
      </contour>
    </TTGlyph>
    <TTGlyph name="T" xMin="195" yMin="-2" xMax="1305" yMax="1416">
      <contour>
        <pt x="1305" y="1338" on="1"/>
        <pt x="1305" y="1202" on="0"/>
        <pt x="1229" y="1202" on="1"/>
        <pt x="1223" y="1202" on="0"/>
        <pt x="1091" y="1287" on="0"/>
        <pt x="1015" y="1287" on="1"/>
        <pt x="874" y="1287" on="0"/>
        <pt x="835" y="1187" on="1"/>
        <pt x="815" y="1135" on="0"/>
        <pt x="659" y="282" on="0"/>
        <pt x="659" y="212" on="0"/>
        <pt x="706" y="115" on="0"/>
        <pt x="706" y="97" on="1"/>
        <pt x="706" y="49" on="0"/>
        <pt x="641" y="18" on="1"/>
        <pt x="599" y="-2" on="0"/>
        <pt x="431" y="-2" on="0"/>
        <pt x="369" y="54" on="0"/>
        <pt x="369" y="72" on="1"/>
        <pt x="369" y="115" on="0"/>
        <pt x="469" y="221" on="0"/>
        <pt x="489" y="311" on="1"/>
        <pt x="642" y="994" on="0"/>
        <pt x="642" y="1176" on="1"/>
        <pt x="642" y="1282" on="0"/>
        <pt x="510" y="1282" on="1"/>
        <pt x="437" y="1282" on="0"/>
        <pt x="365" y="1247" on="1"/>
        <pt x="357" y="1243" on="0"/>
        <pt x="256" y="1175" on="0"/>
        <pt x="231" y="1175" on="1"/>
        <pt x="231" y="1175" on="0"/>
        <pt x="230" y="1175" on="1"/>
        <pt x="195" y="1175" on="0"/>
        <pt x="195" y="1236" on="1"/>
        <pt x="195" y="1360" on="0"/>
        <pt x="286" y="1396" on="1"/>
        <pt x="336" y="1416" on="0"/>
        <pt x="647" y="1416" on="1"/>
        <pt x="703" y="1416" on="1"/>
        <pt x="732" y="1415" on="1"/>
        <pt x="847" y="1414" on="1"/>
        <pt x="1230" y="1414" on="0"/>
        <pt x="1251" y="1410" on="1"/>
        <pt x="1305" y="1400" on="0"/>
      </contour>
    </TTGlyph>
    <TTGlyph name="Thorn" xMin="117" yMin="15" xMax="1152" yMax="1411">
      <contour>
        <pt x="501" y="420" on="1"/>
        <pt x="531" y="420" on="1"/>
        <pt x="618" y="420" on="0"/>
        <pt x="714" y="454" on="1"/>
        <pt x="896" y="518" on="0"/>
        <pt x="959" y="673" on="1"/>
        <pt x="990" y="751" on="0"/>
        <pt x="990" y="831" on="1"/>
        <pt x="990" y="842" on="1"/>
        <pt x="990" y="953" on="0"/>
        <pt x="837" y="1095" on="0"/>
        <pt x="554" y="1095" on="0"/>
        <pt x="528" y="1025" on="1"/>
        <pt x="517" y="996" on="0"/>
        <pt x="419" y="479" on="0"/>
        <pt x="419" y="420" on="0"/>
      </contour>
      <contour>
        <pt x="273" y="15" on="1"/>
        <pt x="230" y="15" on="1"/>
        <pt x="117" y="15" on="0"/>
        <pt x="117" y="74" on="1"/>
        <pt x="117" y="99" on="0"/>
        <pt x="214" y="200" on="0"/>
        <pt x="232" y="269" on="1"/>
        <pt x="281" y="461" on="0"/>
        <pt x="403" y="1162" on="0"/>
        <pt x="403" y="1252" on="0"/>
        <pt x="347" y="1324" on="0"/>
        <pt x="347" y="1362" on="1"/>
        <pt x="347" y="1411" on="0"/>
        <pt x="458" y="1411" on="1"/>
        <pt x="533" y="1411" on="0"/>
        <pt x="630" y="1361" on="1"/>
        <pt x="672" y="1339" on="0"/>
        <pt x="672" y="1229" on="0"/>
        <pt x="729" y="1192" on="1"/>
        <pt x="739" y="1185" on="0"/>
        <pt x="1008" y="1102" on="0"/>
        <pt x="1058" y="1055" on="1"/>
        <pt x="1152" y="967" on="0"/>
        <pt x="1152" y="823" on="1"/>
        <pt x="1152" y="798" on="1"/>
        <pt x="1152" y="706" on="0"/>
        <pt x="1106" y="623" on="1"/>
        <pt x="978" y="389" on="0"/>
        <pt x="659" y="357" on="1"/>
        <pt x="522" y="343" on="0"/>
        <pt x="484" y="328" on="0"/>
        <pt x="410" y="249" on="0"/>
        <pt x="410" y="210" on="1"/>
        <pt x="431" y="147" on="1"/>
        <pt x="431" y="90" on="0"/>
        <pt x="320" y="15" on="0"/>
      </contour>
    </TTGlyph>
    <TTGlyph name="U" xMin="225" yMin="0" xMax="1450" yMax="1390">
      <contour>
        <pt x="395" y="523" on="0"/>
        <pt x="395" y="258" on="0"/>
        <pt x="555" y="111" on="0"/>
        <pt x="679" y="111" on="1"/>
        <pt x="939" y="111" on="0"/>
        <pt x="1055" y="360" on="1"/>
        <pt x="1098" y="454" on="0"/>
        <pt x="1221" y="1059" on="0"/>
        <pt x="1221" y="1166" on="1"/>
        <pt x="1221" y="1190" on="0"/>
        <pt x="1214" y="1224" on="1"/>
        <pt x="1208" y="1249" on="1"/>
        <pt x="1198" y="1291" on="0"/>
        <pt x="1198" y="1300" on="1"/>
        <pt x="1198" y="1350" on="0"/>
        <pt x="1250" y="1390" on="0"/>
        <pt x="1335" y="1390" on="1"/>
        <pt x="1367" y="1390" on="1"/>
        <pt x="1391" y="1390" on="0"/>
        <pt x="1450" y="1333" on="0"/>
        <pt x="1450" y="1260" on="0"/>
        <pt x="1367" y="1122" on="0"/>
        <pt x="1350" y="1069" on="0"/>
        <pt x="1273" y="607" on="0"/>
        <pt x="1218" y="362" on="0"/>
        <pt x="1148" y="242" on="1"/>
        <pt x="1078" y="124" on="0"/>
        <pt x="954" y="62" on="1"/>
        <pt x="828" y="0" on="0"/>
        <pt x="700" y="0" on="1"/>
        <pt x="459" y="0" on="0"/>
        <pt x="225" y="202" on="0"/>
        <pt x="225" y="383" on="1"/>
        <pt x="225" y="457" on="1"/>
        <pt x="225" y="502" on="0"/>
        <pt x="282" y="878" on="0"/>
        <pt x="324" y="1096" on="0"/>
        <pt x="324" y="1159" on="0"/>
        <pt x="285" y="1252" on="0"/>
        <pt x="285" y="1262" on="1"/>
        <pt x="285" y="1325" on="0"/>
        <pt x="349" y="1371" on="1"/>
        <pt x="375" y="1390" on="0"/>
        <pt x="507" y="1390" on="0"/>
        <pt x="574" y="1347" on="0"/>
        <pt x="574" y="1301" on="0"/>
        <pt x="518" y="1189" on="0"/>
        <pt x="508" y="1135" on="1"/>
      </contour>
    </TTGlyph>
    <TTGlyph name="Uacute" xMin="234" yMin="18" xMax="1463" yMax="1866">
      <contour>
        <pt x="1230" y="1843" on="1"/>
        <pt x="1230" y="1835" on="1"/>
        <pt x="1230" y="1808" on="0"/>
        <pt x="940" y="1555" on="0"/>
        <pt x="876" y="1555" on="1"/>
        <pt x="862" y="1555" on="1"/>
        <pt x="844" y="1555" on="0"/>
        <pt x="844" y="1569" on="1"/>
        <pt x="844" y="1577" on="1"/>
        <pt x="844" y="1613" on="0"/>
        <pt x="1046" y="1815" on="1"/>
        <pt x="1097" y="1866" on="0"/>
        <pt x="1151" y="1866" on="1"/>
        <pt x="1177" y="1866" on="1"/>
        <pt x="1230" y="1866" on="0"/>
      </contour>
      <contour>
        <pt x="401" y="1410" on="1"/>
        <pt x="570" y="1410" on="0"/>
        <pt x="570" y="1335" on="1"/>
        <pt x="570" y="1312" on="0"/>
        <pt x="513" y="1196" on="0"/>
        <pt x="504" y="1153" on="1"/>
        <pt x="392" y="633" on="0"/>
        <pt x="392" y="408" on="1"/>
        <pt x="392" y="334" on="0"/>
        <pt x="420" y="276" on="1"/>
        <pt x="496" y="117" on="0"/>
        <pt x="691" y="117" on="1"/>
        <pt x="828" y="117" on="0"/>
        <pt x="1016" y="258" on="0"/>
        <pt x="1115" y="461" on="0"/>
        <pt x="1247" y="1079" on="0"/>
        <pt x="1247" y="1183" on="1"/>
        <pt x="1247" y="1215" on="0"/>
        <pt x="1213" y="1330" on="0"/>
        <pt x="1213" y="1344" on="1"/>
        <pt x="1213" y="1381" on="0"/>
        <pt x="1289" y="1407" on="0"/>
        <pt x="1378" y="1407" on="1"/>
        <pt x="1406" y="1407" on="0"/>
        <pt x="1463" y="1341" on="0"/>
        <pt x="1463" y="1328" on="1"/>
        <pt x="1463" y="1301" on="1"/>
        <pt x="1463" y="1276" on="0"/>
        <pt x="1386" y="1168" on="0"/>
        <pt x="1363" y="1098" on="0"/>
        <pt x="1284" y="627" on="0"/>
        <pt x="1230" y="383" on="0"/>
        <pt x="1090" y="144" on="0"/>
        <pt x="845" y="18" on="0"/>
        <pt x="572" y="18" on="0"/>
        <pt x="410" y="66" on="0"/>
        <pt x="354" y="118" on="1"/>
        <pt x="234" y="228" on="0"/>
        <pt x="234" y="409" on="1"/>
        <pt x="234" y="483" on="1"/>
        <pt x="234" y="523" on="0"/>
        <pt x="297" y="939" on="0"/>
        <pt x="339" y="1142" on="0"/>
        <pt x="339" y="1201" on="0"/>
        <pt x="326" y="1224" on="1"/>
        <pt x="311" y="1245" on="1"/>
        <pt x="287" y="1279" on="0"/>
        <pt x="287" y="1290" on="1"/>
        <pt x="287" y="1341" on="0"/>
        <pt x="358" y="1410" on="0"/>
      </contour>
    </TTGlyph>
    <TTGlyph name="Ucircumflex" xMin="234" yMin="14" xMax="1463" yMax="1860">
      <contour>
        <pt x="1028" y="1858" on="1"/>
        <pt x="1052" y="1858" on="0"/>
        <pt x="1095" y="1791" on="1"/>
        <pt x="1218" y="1600" on="0"/>
        <pt x="1218" y="1582" on="1"/>
        <pt x="1218" y="1577" on="1"/>
        <pt x="1218" y="1557" on="0"/>
        <pt x="1141" y="1557" on="0"/>
        <pt x="992" y="1735" on="0"/>
        <pt x="980" y="1735" on="1"/>
        <pt x="977" y="1735" on="0"/>
        <pt x="744" y="1556" on="0"/>
        <pt x="712" y="1556" on="1"/>
        <pt x="705" y="1556" on="1"/>
        <pt x="678" y="1556" on="0"/>
        <pt x="678" y="1573" on="1"/>
        <pt x="678" y="1579" on="0"/>
        <pt x="959" y="1860" on="0"/>
        <pt x="1001" y="1860" on="1"/>
        <pt x="1007" y="1860" on="1"/>
        <pt x="1021" y="1858" on="0"/>
      </contour>
      <contour>
        <pt x="401" y="1406" on="1"/>
        <pt x="570" y="1406" on="0"/>
        <pt x="570" y="1331" on="1"/>
        <pt x="570" y="1308" on="0"/>
        <pt x="513" y="1192" on="0"/>
        <pt x="504" y="1149" on="1"/>
        <pt x="392" y="629" on="0"/>
        <pt x="392" y="404" on="1"/>
        <pt x="392" y="330" on="0"/>
        <pt x="420" y="272" on="1"/>
        <pt x="496" y="113" on="0"/>
        <pt x="691" y="113" on="1"/>
        <pt x="807" y="113" on="0"/>
        <pt x="1005" y="235" on="0"/>
        <pt x="1114" y="452" on="0"/>
        <pt x="1247" y="1075" on="0"/>
        <pt x="1247" y="1179" on="1"/>
        <pt x="1247" y="1211" on="0"/>
        <pt x="1213" y="1326" on="0"/>
        <pt x="1213" y="1340" on="1"/>
        <pt x="1213" y="1377" on="0"/>
        <pt x="1289" y="1403" on="0"/>
        <pt x="1378" y="1403" on="1"/>
        <pt x="1406" y="1403" on="0"/>
        <pt x="1463" y="1337" on="0"/>
        <pt x="1463" y="1324" on="1"/>
        <pt x="1463" y="1297" on="1"/>
        <pt x="1463" y="1272" on="0"/>
        <pt x="1386" y="1164" on="0"/>
        <pt x="1363" y="1094" on="0"/>
        <pt x="1284" y="623" on="0"/>
        <pt x="1229" y="376" on="0"/>
        <pt x="1088" y="140" on="0"/>
        <pt x="844" y="14" on="0"/>
        <pt x="710" y="14" on="1"/>
        <pt x="460" y="14" on="0"/>
        <pt x="234" y="224" on="0"/>
        <pt x="234" y="405" on="1"/>
        <pt x="234" y="479" on="1"/>
        <pt x="234" y="519" on="0"/>
        <pt x="297" y="935" on="0"/>
        <pt x="339" y="1138" on="0"/>
        <pt x="339" y="1197" on="0"/>
        <pt x="326" y="1220" on="1"/>
        <pt x="311" y="1241" on="1"/>
        <pt x="287" y="1275" on="0"/>
        <pt x="287" y="1286" on="1"/>
        <pt x="287" y="1337" on="0"/>
        <pt x="358" y="1406" on="0"/>
      </contour>
    </TTGlyph>
    <TTGlyph name="Udieresis" xMin="233" yMin="14" xMax="1462" yMax="1788">
      <contour>
        <pt x="875" y="1681" on="0"/>
        <pt x="875" y="1648" on="0"/>
        <pt x="810" y="1596" on="0"/>
        <pt x="770" y="1596" on="1"/>
        <pt x="691" y="1596" on="0"/>
        <pt x="691" y="1669" on="1"/>
        <pt x="691" y="1681" on="1"/>
        <pt x="691" y="1717" on="0"/>
        <pt x="744" y="1783" on="0"/>
        <pt x="770" y="1783" on="1"/>
        <pt x="776" y="1785" on="0"/>
        <pt x="779" y="1785" on="1"/>
        <pt x="791" y="1787" on="1"/>
        <pt x="810" y="1787" on="1"/>
        <pt x="877" y="1787" on="0"/>
        <pt x="877" y="1732" on="1"/>
        <pt x="880" y="1714" on="1"/>
        <pt x="880" y="1696" on="1"/>
      </contour>
      <contour>
        <pt x="1242" y="1698" on="1"/>
        <pt x="1240" y="1683" on="1"/>
        <pt x="1240" y="1657" on="0"/>
        <pt x="1183" y="1600" on="0"/>
        <pt x="1158" y="1600" on="1"/>
        <pt x="1140" y="1597" on="1"/>
        <pt x="1124" y="1597" on="1"/>
        <pt x="1103" y="1601" on="1"/>
        <pt x="1053" y="1601" on="0"/>
        <pt x="1053" y="1668" on="1"/>
        <pt x="1053" y="1683" on="1"/>
        <pt x="1058" y="1710" on="1"/>
        <pt x="1058" y="1723" on="0"/>
        <pt x="1107" y="1785" on="0"/>
        <pt x="1136" y="1785" on="1"/>
        <pt x="1155" y="1788" on="1"/>
        <pt x="1170" y="1788" on="1"/>
        <pt x="1179" y="1785" on="0"/>
        <pt x="1188" y="1785" on="1"/>
        <pt x="1243" y="1785" on="0"/>
        <pt x="1243" y="1714" on="1"/>
        <pt x="1243" y="1702" on="1"/>
      </contour>
      <contour>
        <pt x="400" y="1405" on="1"/>
        <pt x="570" y="1405" on="0"/>
        <pt x="570" y="1331" on="1"/>
        <pt x="570" y="1311" on="0"/>
        <pt x="511" y="1184" on="0"/>
        <pt x="504" y="1149" on="1"/>
        <pt x="392" y="621" on="0"/>
        <pt x="392" y="404" on="1"/>
        <pt x="392" y="262" on="0"/>
        <pt x="562" y="112" on="0"/>
        <pt x="805" y="112" on="0"/>
        <pt x="1006" y="235" on="0"/>
        <pt x="1114" y="454" on="0"/>
        <pt x="1246" y="1074" on="0"/>
        <pt x="1246" y="1179" on="1"/>
        <pt x="1246" y="1213" on="0"/>
        <pt x="1212" y="1324" on="0"/>
        <pt x="1212" y="1339" on="1"/>
        <pt x="1212" y="1377" on="0"/>
        <pt x="1288" y="1403" on="0"/>
        <pt x="1377" y="1403" on="1"/>
        <pt x="1399" y="1403" on="0"/>
        <pt x="1462" y="1349" on="0"/>
        <pt x="1462" y="1324" on="1"/>
        <pt x="1462" y="1297" on="1"/>
        <pt x="1462" y="1271" on="0"/>
        <pt x="1385" y="1160" on="0"/>
        <pt x="1360" y="1086" on="0"/>
        <pt x="1318" y="830" on="1"/>
        <pt x="1274" y="574" on="0"/>
        <pt x="1246" y="466" on="1"/>
        <pt x="1127" y="14" on="0"/>
        <pt x="687" y="14" on="1"/>
        <pt x="339" y="14" on="0"/>
        <pt x="257" y="261" on="1"/>
        <pt x="233" y="333" on="0"/>
        <pt x="233" y="543" on="0"/>
        <pt x="303" y="968" on="0"/>
        <pt x="339" y="1142" on="0"/>
        <pt x="339" y="1194" on="0"/>
        <pt x="325" y="1220" on="1"/>
        <pt x="311" y="1240" on="1"/>
        <pt x="286" y="1274" on="0"/>
        <pt x="286" y="1285" on="1"/>
        <pt x="286" y="1336" on="0"/>
        <pt x="355" y="1405" on="0"/>
      </contour>
    </TTGlyph>
    <TTGlyph name="Ugrave" xMin="234" yMin="19" xMax="1463" yMax="1873">
      <contour>
        <pt x="999" y="1558" on="1"/>
        <pt x="986" y="1558" on="1"/>
        <pt x="950" y="1558" on="0"/>
        <pt x="686" y="1789" on="0"/>
        <pt x="686" y="1834" on="1"/>
        <pt x="686" y="1839" on="1"/>
        <pt x="686" y="1873" on="0"/>
        <pt x="752" y="1873" on="1"/>
        <pt x="757" y="1873" on="1"/>
        <pt x="812" y="1873" on="0"/>
        <pt x="882" y="1803" on="0"/>
        <pt x="1018" y="1599" on="0"/>
        <pt x="1018" y="1583" on="1"/>
        <pt x="1018" y="1575" on="1"/>
        <pt x="1018" y="1558" on="0"/>
      </contour>
      <contour>
        <pt x="401" y="1410" on="1"/>
        <pt x="571" y="1410" on="0"/>
        <pt x="571" y="1336" on="1"/>
        <pt x="571" y="1316" on="0"/>
        <pt x="513" y="1195" on="0"/>
        <pt x="504" y="1154" on="1"/>
        <pt x="392" y="634" on="0"/>
        <pt x="392" y="409" on="1"/>
        <pt x="392" y="335" on="0"/>
        <pt x="420" y="277" on="1"/>
        <pt x="496" y="117" on="0"/>
        <pt x="691" y="117" on="1"/>
        <pt x="824" y="117" on="0"/>
        <pt x="1017" y="257" on="0"/>
        <pt x="1116" y="465" on="0"/>
        <pt x="1247" y="1080" on="0"/>
        <pt x="1247" y="1184" on="1"/>
        <pt x="1247" y="1216" on="0"/>
        <pt x="1213" y="1331" on="0"/>
        <pt x="1213" y="1344" on="1"/>
        <pt x="1213" y="1383" on="0"/>
        <pt x="1291" y="1408" on="0"/>
        <pt x="1378" y="1408" on="1"/>
        <pt x="1406" y="1408" on="0"/>
        <pt x="1463" y="1342" on="0"/>
        <pt x="1463" y="1329" on="1"/>
        <pt x="1463" y="1302" on="1"/>
        <pt x="1463" y="1276" on="0"/>
        <pt x="1387" y="1171" on="0"/>
        <pt x="1361" y="1093" on="0"/>
        <pt x="1286" y="639" on="0"/>
        <pt x="1229" y="381" on="0"/>
        <pt x="1162" y="269" on="1"/>
        <pt x="1012" y="19" on="0"/>
        <pt x="687" y="19" on="1"/>
        <pt x="464" y="19" on="0"/>
        <pt x="234" y="227" on="0"/>
        <pt x="234" y="410" on="1"/>
        <pt x="234" y="484" on="1"/>
        <pt x="234" y="520" on="0"/>
        <pt x="295" y="932" on="0"/>
        <pt x="339" y="1145" on="0"/>
        <pt x="339" y="1202" on="0"/>
        <pt x="326" y="1225" on="1"/>
        <pt x="311" y="1246" on="1"/>
        <pt x="287" y="1280" on="0"/>
        <pt x="287" y="1291" on="1"/>
        <pt x="287" y="1342" on="0"/>
        <pt x="357" y="1410" on="0"/>
      </contour>
    </TTGlyph>
    <TTGlyph name="V" xMin="221" yMin="5" xMax="1428" yMax="1403">
      <contour>
        <pt x="615" y="246" on="1"/>
        <pt x="665" y="246" on="0"/>
        <pt x="1051" y="981" on="1"/>
        <pt x="1150" y="1169" on="0"/>
        <pt x="1150" y="1270" on="1"/>
        <pt x="1150" y="1335" on="0"/>
        <pt x="1255" y="1403" on="0"/>
        <pt x="1347" y="1403" on="1"/>
        <pt x="1377" y="1403" on="1"/>
        <pt x="1428" y="1403" on="0"/>
        <pt x="1428" y="1351" on="1"/>
        <pt x="1428" y="1316" on="0"/>
        <pt x="1406" y="1284" on="1"/>
        <pt x="1148" y="906" on="0"/>
        <pt x="1053" y="738" on="1"/>
        <pt x="819" y="327" on="0"/>
        <pt x="697" y="142" on="1"/>
        <pt x="607" y="5" on="0"/>
        <pt x="544" y="5" on="1"/>
        <pt x="498" y="5" on="0"/>
        <pt x="451" y="61" on="0"/>
        <pt x="416" y="221" on="0"/>
        <pt x="351" y="843" on="0"/>
        <pt x="307" y="1106" on="1"/>
        <pt x="295" y="1178" on="0"/>
        <pt x="221" y="1300" on="0"/>
        <pt x="221" y="1309" on="1"/>
        <pt x="221" y="1392" on="0"/>
        <pt x="303" y="1392" on="1"/>
        <pt x="516" y="1392" on="0"/>
        <pt x="516" y="1274" on="1"/>
        <pt x="500" y="1158" on="1"/>
        <pt x="500" y="1106" on="0"/>
        <pt x="598" y="287" on="0"/>
        <pt x="607" y="246" on="0"/>
      </contour>
    </TTGlyph>
    <TTGlyph name="W" xMin="288" yMin="120" xMax="1933" yMax="1351">
      <contour>
        <pt x="357" y="1333" on="1"/>
        <pt x="514" y="1333" on="0"/>
        <pt x="514" y="1095" on="1"/>
        <pt x="510" y="1051" on="1"/>
        <pt x="506" y="1006" on="0"/>
        <pt x="506" y="957" on="1"/>
        <pt x="506" y="749" on="0"/>
        <pt x="549" y="466" on="1"/>
        <pt x="561" y="385" on="0"/>
        <pt x="592" y="385" on="1"/>
        <pt x="602" y="385" on="0"/>
        <pt x="624" y="417" on="1"/>
        <pt x="749" y="596" on="0"/>
        <pt x="931" y="1004" on="0"/>
        <pt x="946" y="1120" on="1"/>
        <pt x="960" y="1235" on="0"/>
        <pt x="1051" y="1312" on="0"/>
        <pt x="1181" y="1312" on="0"/>
        <pt x="1232" y="1237" on="0"/>
        <pt x="1232" y="1020" on="0"/>
        <pt x="1263" y="818" on="0"/>
        <pt x="1289" y="407" on="0"/>
        <pt x="1305" y="363" on="0"/>
        <pt x="1322" y="363" on="1"/>
        <pt x="1339" y="377" on="1"/>
        <pt x="1417" y="464" on="0"/>
        <pt x="1642" y="923" on="0"/>
        <pt x="1679" y="1025" on="0"/>
        <pt x="1732" y="1229" on="0"/>
        <pt x="1763" y="1277" on="1"/>
        <pt x="1811" y="1351" on="0"/>
        <pt x="1883" y="1351" on="1"/>
        <pt x="1933" y="1351" on="0"/>
        <pt x="1933" y="1293" on="1"/>
        <pt x="1933" y="1259" on="0"/>
        <pt x="1880" y="1126" on="1"/>
        <pt x="1717" y="715" on="0"/>
        <pt x="1501" y="327" on="1"/>
        <pt x="1387" y="121" on="0"/>
        <pt x="1254" y="121" on="1"/>
        <pt x="1233" y="121" on="0"/>
        <pt x="1197" y="163" on="1"/>
        <pt x="1124" y="248" on="0"/>
        <pt x="1036" y="887" on="0"/>
        <pt x="1020" y="887" on="0"/>
        <pt x="698" y="341" on="0"/>
        <pt x="596" y="207" on="1"/>
        <pt x="529" y="120" on="0"/>
        <pt x="463" y="120" on="1"/>
        <pt x="443" y="120" on="0"/>
        <pt x="374" y="229" on="0"/>
        <pt x="362" y="329" on="1"/>
        <pt x="324" y="639" on="0"/>
        <pt x="324" y="1043" on="0"/>
        <pt x="288" y="1194" on="0"/>
        <pt x="288" y="1285" on="0"/>
        <pt x="333" y="1333" on="0"/>
      </contour>
    </TTGlyph>
    <TTGlyph name="X" xMin="45" yMin="4" xMax="1357" yMax="1394">
      <contour>
        <pt x="1169" y="54" on="1"/>
        <pt x="1169" y="4" on="0"/>
        <pt x="1057" y="4" on="1"/>
        <pt x="1020" y="4" on="1"/>
        <pt x="939" y="4" on="0"/>
        <pt x="853" y="64" on="0"/>
        <pt x="853" y="236" on="0"/>
        <pt x="728" y="494" on="1"/>
        <pt x="693" y="567" on="0"/>
        <pt x="675" y="567" on="1"/>
        <pt x="623" y="567" on="0"/>
        <pt x="410" y="252" on="1"/>
        <pt x="366" y="186" on="0"/>
        <pt x="317" y="60" on="0"/>
        <pt x="314" y="56" on="1"/>
        <pt x="275" y="9" on="0"/>
        <pt x="45" y="9" on="0"/>
        <pt x="45" y="84" on="0"/>
        <pt x="180" y="181" on="0"/>
        <pt x="329" y="347" on="0"/>
        <pt x="596" y="686" on="0"/>
        <pt x="596" y="824" on="0"/>
        <pt x="428" y="1131" on="1"/>
        <pt x="392" y="1197" on="0"/>
        <pt x="288" y="1287" on="0"/>
        <pt x="288" y="1356" on="0"/>
        <pt x="346" y="1372" on="1"/>
        <pt x="379" y="1381" on="0"/>
        <pt x="482" y="1381" on="1"/>
        <pt x="545" y="1381" on="0"/>
        <pt x="572" y="1333" on="1"/>
        <pt x="580" y="1319" on="0"/>
        <pt x="580" y="1263" on="1"/>
        <pt x="580" y="1170" on="0"/>
        <pt x="713" y="931" on="1"/>
        <pt x="739" y="885" on="0"/>
        <pt x="750" y="885" on="1"/>
        <pt x="814" y="885" on="0"/>
        <pt x="986" y="1123" on="1"/>
        <pt x="1036" y="1192" on="0"/>
        <pt x="1094" y="1343" on="0"/>
        <pt x="1108" y="1354" on="1"/>
        <pt x="1159" y="1394" on="0"/>
        <pt x="1357" y="1394" on="0"/>
        <pt x="1357" y="1360" on="1"/>
        <pt x="1357" y="1343" on="1"/>
        <pt x="1357" y="1331" on="0"/>
        <pt x="1246" y="1244" on="1"/>
        <pt x="1209" y="1215" on="0"/>
        <pt x="1090" y="1073" on="1"/>
        <pt x="836" y="770" on="0"/>
        <pt x="836" y="730" on="1"/>
        <pt x="836" y="647" on="0"/>
        <pt x="1020" y="262" on="1"/>
        <pt x="1051" y="198" on="0"/>
        <pt x="1169" y="87" on="0"/>
      </contour>
    </TTGlyph>
    <TTGlyph name="Y" xMin="222" yMin="9" xMax="1298" yMax="1363">
      <contour>
        <pt x="677" y="790" on="1"/>
        <pt x="725" y="790" on="0"/>
        <pt x="975" y="1118" on="1"/>
        <pt x="1029" y="1189" on="0"/>
        <pt x="1044" y="1226" on="0"/>
        <pt x="1065" y="1301" on="0"/>
        <pt x="1079" y="1317" on="1"/>
        <pt x="1118" y="1363" on="0"/>
        <pt x="1214" y="1363" on="1"/>
        <pt x="1255" y="1363" on="1"/>
        <pt x="1298" y="1363" on="0"/>
        <pt x="1298" y="1337" on="1"/>
        <pt x="1298" y="1324" on="0"/>
        <pt x="1199" y="1237" on="1"/>
        <pt x="1151" y="1195" on="0"/>
        <pt x="851" y="766" on="0"/>
        <pt x="739" y="565" on="0"/>
        <pt x="677" y="304" on="0"/>
        <pt x="677" y="201" on="0"/>
        <pt x="718" y="114" on="0"/>
        <pt x="718" y="70" on="0"/>
        <pt x="641" y="9" on="0"/>
        <pt x="575" y="9" on="1"/>
        <pt x="520" y="9" on="1"/>
        <pt x="463" y="9" on="0"/>
        <pt x="392" y="50" on="0"/>
        <pt x="392" y="109" on="0"/>
        <pt x="475" y="222" on="0"/>
        <pt x="486" y="254" on="1"/>
        <pt x="528" y="375" on="0"/>
        <pt x="528" y="682" on="0"/>
        <pt x="411" y="988" on="1"/>
        <pt x="363" y="1112" on="0"/>
        <pt x="311" y="1200" on="0"/>
        <pt x="222" y="1287" on="0"/>
        <pt x="222" y="1310" on="1"/>
        <pt x="222" y="1350" on="0"/>
        <pt x="446" y="1350" on="0"/>
        <pt x="478" y="1299" on="1"/>
        <pt x="483" y="1291" on="0"/>
        <pt x="494" y="1171" on="0"/>
        <pt x="535" y="1081" on="1"/>
        <pt x="669" y="790" on="0"/>
      </contour>
    </TTGlyph>
    <TTGlyph name="Yacute" xMin="231" yMin="17" xMax="1282" yMax="1855">
      <contour>
        <pt x="1036" y="1855" on="1"/>
        <pt x="1052" y="1855" on="1"/>
        <pt x="1113" y="1855" on="0"/>
        <pt x="1113" y="1828" on="1"/>
        <pt x="1113" y="1824" on="1"/>
        <pt x="1113" y="1797" on="0"/>
        <pt x="820" y="1540" on="0"/>
        <pt x="759" y="1540" on="1"/>
        <pt x="754" y="1540" on="1"/>
        <pt x="728" y="1540" on="0"/>
        <pt x="728" y="1557" on="1"/>
        <pt x="728" y="1561" on="1"/>
        <pt x="728" y="1575" on="0"/>
        <pt x="753" y="1604" on="1"/>
        <pt x="919" y="1793" on="0"/>
        <pt x="932" y="1805" on="1"/>
        <pt x="989" y="1855" on="0"/>
      </contour>
      <contour>
        <pt x="481" y="1244" on="0"/>
        <pt x="481" y="1211" on="0"/>
        <pt x="642" y="869" on="1"/>
        <pt x="670" y="810" on="0"/>
        <pt x="692" y="810" on="1"/>
        <pt x="700" y="810" on="0"/>
        <pt x="724" y="835" on="1"/>
        <pt x="874" y="994" on="0"/>
        <pt x="1007" y="1182" on="1"/>
        <pt x="1035" y="1221" on="0"/>
        <pt x="1065" y="1321" on="0"/>
        <pt x="1074" y="1331" on="1"/>
        <pt x="1118" y="1381" on="0"/>
        <pt x="1216" y="1381" on="1"/>
        <pt x="1236" y="1381" on="1"/>
        <pt x="1282" y="1381" on="0"/>
        <pt x="1282" y="1345" on="0"/>
        <pt x="1156" y="1247" on="0"/>
        <pt x="1089" y="1153" on="1"/>
        <pt x="863" y="837" on="0"/>
        <pt x="773" y="666" on="1"/>
        <pt x="725" y="575" on="0"/>
        <pt x="663" y="289" on="0"/>
        <pt x="663" y="215" on="0"/>
        <pt x="714" y="123" on="0"/>
        <pt x="714" y="73" on="0"/>
        <pt x="632" y="17" on="0"/>
        <pt x="571" y="17" on="1"/>
        <pt x="517" y="17" on="1"/>
        <pt x="442" y="17" on="0"/>
        <pt x="390" y="66" on="0"/>
        <pt x="390" y="114" on="0"/>
        <pt x="473" y="219" on="0"/>
        <pt x="487" y="272" on="1"/>
        <pt x="524" y="410" on="0"/>
        <pt x="524" y="754" on="0"/>
        <pt x="408" y="1052" on="1"/>
        <pt x="359" y="1179" on="0"/>
        <pt x="317" y="1227" on="1"/>
        <pt x="231" y="1326" on="0"/>
        <pt x="231" y="1334" on="1"/>
        <pt x="231" y="1364" on="0"/>
        <pt x="395" y="1364" on="0"/>
        <pt x="453" y="1337" on="1"/>
        <pt x="486" y="1322" on="0"/>
        <pt x="486" y="1281" on="1"/>
      </contour>
    </TTGlyph>
    <TTGlyph name="Ydieresis" xMin="236" yMin="19" xMax="1259" yMax="1773">
      <contour>
        <pt x="546" y="1660" on="1"/>
        <pt x="549" y="1695" on="1"/>
        <pt x="549" y="1706" on="0"/>
        <pt x="600" y="1769" on="0"/>
        <pt x="630" y="1769" on="1"/>
        <pt x="648" y="1772" on="1"/>
        <pt x="671" y="1772" on="1"/>
        <pt x="733" y="1772" on="0"/>
        <pt x="733" y="1709" on="1"/>
        <pt x="733" y="1687" on="1"/>
        <pt x="733" y="1650" on="0"/>
        <pt x="676" y="1579" on="0"/>
        <pt x="633" y="1579" on="1"/>
        <pt x="607" y="1579" on="1"/>
        <pt x="549" y="1579" on="0"/>
        <pt x="549" y="1621" on="1"/>
        <pt x="547" y="1627" on="0"/>
        <pt x="547" y="1630" on="1"/>
        <pt x="545" y="1645" on="1"/>
        <pt x="545" y="1657" on="1"/>
      </contour>
      <contour>
        <pt x="1102" y="1684" on="1"/>
        <pt x="1100" y="1659" on="1"/>
        <pt x="1100" y="1646" on="0"/>
        <pt x="1046" y="1579" on="0"/>
        <pt x="999" y="1579" on="1"/>
        <pt x="980" y="1579" on="1"/>
        <pt x="977" y="1580" on="1"/>
        <pt x="971" y="1580" on="1"/>
        <pt x="965" y="1582" on="0"/>
        <pt x="962" y="1582" on="1"/>
        <pt x="915" y="1582" on="0"/>
        <pt x="915" y="1637" on="1"/>
        <pt x="915" y="1667" on="1"/>
        <pt x="920" y="1687" on="0"/>
        <pt x="920" y="1717" on="0"/>
        <pt x="972" y="1769" on="0"/>
        <pt x="996" y="1769" on="1"/>
        <pt x="1002" y="1771" on="0"/>
        <pt x="1006" y="1771" on="1"/>
        <pt x="1021" y="1773" on="1"/>
        <pt x="1037" y="1773" on="1"/>
        <pt x="1046" y="1770" on="0"/>
        <pt x="1055" y="1770" on="1"/>
        <pt x="1103" y="1770" on="0"/>
        <pt x="1103" y="1709" on="1"/>
        <pt x="1103" y="1688" on="1"/>
      </contour>
      <contour>
        <pt x="517" y="20" on="1"/>
        <pt x="386" y="20" on="0"/>
        <pt x="386" y="84" on="1"/>
        <pt x="386" y="116" on="0"/>
        <pt x="468" y="229" on="0"/>
        <pt x="484" y="286" on="1"/>
        <pt x="521" y="422" on="0"/>
        <pt x="521" y="601" on="1"/>
        <pt x="521" y="726" on="0"/>
        <pt x="403" y="1033" on="1"/>
        <pt x="360" y="1146" on="0"/>
        <pt x="236" y="1299" on="0"/>
        <pt x="236" y="1307" on="1"/>
        <pt x="236" y="1349" on="0"/>
        <pt x="435" y="1349" on="0"/>
        <pt x="467" y="1322" on="1"/>
        <pt x="481" y="1310" on="0"/>
        <pt x="481" y="1246" on="1"/>
        <pt x="481" y="1208" on="0"/>
        <pt x="630" y="883" on="1"/>
        <pt x="660" y="818" on="0"/>
        <pt x="679" y="818" on="1"/>
        <pt x="729" y="818" on="0"/>
        <pt x="988" y="1164" on="1"/>
        <pt x="1019" y="1205" on="0"/>
        <pt x="1048" y="1302" on="0"/>
        <pt x="1057" y="1314" on="1"/>
        <pt x="1099" y="1366" on="0"/>
        <pt x="1208" y="1366" on="1"/>
        <pt x="1259" y="1366" on="0"/>
        <pt x="1259" y="1349" on="1"/>
        <pt x="1259" y="1337" on="1"/>
        <pt x="1259" y="1327" on="0"/>
        <pt x="1135" y="1218" on="0"/>
        <pt x="1088" y="1155" on="1"/>
        <pt x="919" y="928" on="0"/>
        <pt x="780" y="680" on="1"/>
        <pt x="734" y="597" on="0"/>
        <pt x="662" y="301" on="0"/>
        <pt x="662" y="208" on="0"/>
        <pt x="706" y="127" on="0"/>
        <pt x="706" y="80" on="0"/>
        <pt x="617" y="19" on="0"/>
        <pt x="568" y="19" on="1"/>
        <pt x="543" y="20" on="1"/>
      </contour>
    </TTGlyph>
    <TTGlyph name="Z" xMin="78" yMin="-15" xMax="1263" yMax="1403">
      <contour>
        <pt x="78" y="67" on="1"/>
        <pt x="78" y="140" on="0"/>
        <pt x="986" y="1215" on="0"/>
        <pt x="986" y="1237" on="1"/>
        <pt x="986" y="1273" on="0"/>
        <pt x="937" y="1286" on="0"/>
        <pt x="821" y="1286" on="1"/>
        <pt x="782" y="1285" on="1"/>
        <pt x="743" y="1284" on="0"/>
        <pt x="706" y="1284" on="1"/>
        <pt x="588" y="1284" on="0"/>
        <pt x="501" y="1243" on="1"/>
        <pt x="361" y="1177" on="0"/>
        <pt x="341" y="1177" on="1"/>
        <pt x="294" y="1177" on="0"/>
        <pt x="294" y="1331" on="0"/>
        <pt x="376" y="1374" on="1"/>
        <pt x="432" y="1403" on="0"/>
        <pt x="582" y="1403" on="1"/>
        <pt x="696" y="1403" on="1"/>
        <pt x="734" y="1402" on="1"/>
        <pt x="1045" y="1402" on="1"/>
        <pt x="1186" y="1402" on="0"/>
        <pt x="1194" y="1401" on="1"/>
        <pt x="1263" y="1393" on="0"/>
        <pt x="1263" y="1340" on="1"/>
        <pt x="1263" y="1336" on="0"/>
        <pt x="355" y="191" on="0"/>
        <pt x="355" y="165" on="1"/>
        <pt x="355" y="125" on="0"/>
        <pt x="411" y="115" on="1"/>
        <pt x="445" y="109" on="0"/>
        <pt x="794" y="109" on="0"/>
        <pt x="916" y="142" on="0"/>
        <pt x="1059" y="227" on="0"/>
        <pt x="1076" y="227" on="1"/>
        <pt x="1122" y="227" on="0"/>
        <pt x="1122" y="80" on="0"/>
        <pt x="969" y="-15" on="0"/>
        <pt x="831" y="-15" on="1"/>
        <pt x="792" y="-15" on="1"/>
        <pt x="292" y="-3" on="1"/>
        <pt x="152" y="-3" on="0"/>
        <pt x="78" y="24" on="0"/>
      </contour>
    </TTGlyph>
    <TTGlyph name="Zcaron" xMin="76" yMin="-9" xMax="1255" yMax="1857">
      <contour>
        <pt x="1159" y="1841" on="1"/>
        <pt x="1159" y="1830" on="1"/>
        <pt x="1159" y="1813" on="0"/>
        <pt x="869" y="1548" on="0"/>
        <pt x="821" y="1548" on="1"/>
        <pt x="814" y="1549" on="1"/>
        <pt x="806" y="1549" on="1"/>
        <pt x="778" y="1549" on="0"/>
        <pt x="735" y="1619" on="1"/>
        <pt x="618" y="1809" on="0"/>
        <pt x="618" y="1826" on="1"/>
        <pt x="618" y="1832" on="1"/>
        <pt x="618" y="1857" on="0"/>
        <pt x="659" y="1857" on="1"/>
        <pt x="666" y="1857" on="1"/>
        <pt x="703" y="1857" on="0"/>
        <pt x="843" y="1690" on="0"/>
        <pt x="875" y="1690" on="0"/>
        <pt x="1075" y="1856" on="0"/>
        <pt x="1128" y="1856" on="1"/>
        <pt x="1159" y="1856" on="0"/>
      </contour>
      <contour>
        <pt x="815" y="-9" on="1"/>
        <pt x="230" y="9" on="1"/>
        <pt x="128" y="9" on="0"/>
        <pt x="76" y="36" on="0"/>
        <pt x="76" y="85" on="1"/>
        <pt x="76" y="121" on="0"/>
        <pt x="499" y="664" on="1"/>
        <pt x="504" y="671" on="0"/>
        <pt x="634" y="816" on="0"/>
        <pt x="974" y="1219" on="0"/>
        <pt x="974" y="1249" on="1"/>
        <pt x="974" y="1296" on="0"/>
        <pt x="723" y="1296" on="1"/>
        <pt x="594" y="1296" on="0"/>
        <pt x="486" y="1263" on="0"/>
        <pt x="364" y="1173" on="0"/>
        <pt x="329" y="1173" on="1"/>
        <pt x="299" y="1173" on="0"/>
        <pt x="299" y="1261" on="1"/>
        <pt x="299" y="1290" on="0"/>
        <pt x="350" y="1369" on="0"/>
        <pt x="454" y="1414" on="0"/>
        <pt x="618" y="1414" on="1"/>
        <pt x="768" y="1414" on="1"/>
        <pt x="806" y="1413" on="1"/>
        <pt x="1078" y="1414" on="1"/>
        <pt x="1153" y="1414" on="1"/>
        <pt x="1255" y="1414" on="0"/>
        <pt x="1255" y="1380" on="1"/>
        <pt x="1255" y="1354" on="1"/>
        <pt x="1255" y="1317" on="0"/>
        <pt x="921" y="921" on="1"/>
        <pt x="874" y="866" on="0"/>
        <pt x="357" y="199" on="0"/>
        <pt x="357" y="181" on="1"/>
        <pt x="357" y="141" on="0"/>
        <pt x="492" y="118" on="0"/>
        <pt x="828" y="118" on="0"/>
        <pt x="936" y="156" on="0"/>
        <pt x="1058" y="240" on="0"/>
        <pt x="1080" y="240" on="1"/>
        <pt x="1116" y="240" on="0"/>
        <pt x="1116" y="184" on="1"/>
        <pt x="1116" y="89" on="0"/>
        <pt x="1022" y="29" on="1"/>
        <pt x="962" y="-9" on="0"/>
      </contour>
    </TTGlyph>
    <TTGlyph name="a" xMin="85" yMin="30" xMax="942" yMax="953">
      <contour>
        <pt x="242" y="365" on="1"/>
        <pt x="242" y="334" on="1"/>
        <pt x="242" y="235" on="0"/>
        <pt x="317" y="116" on="0"/>
        <pt x="381" y="116" on="1"/>
        <pt x="401" y="116" on="1"/>
        <pt x="452" y="116" on="0"/>
        <pt x="600" y="212" on="0"/>
        <pt x="699" y="365" on="0"/>
        <pt x="769" y="597" on="0"/>
        <pt x="769" y="683" on="1"/>
        <pt x="771" y="703" on="1"/>
        <pt x="771" y="743" on="1"/>
        <pt x="771" y="807" on="0"/>
        <pt x="743" y="828" on="1"/>
        <pt x="697" y="862" on="0"/>
        <pt x="629" y="862" on="1"/>
        <pt x="619" y="862" on="1"/>
        <pt x="484" y="862" on="0"/>
        <pt x="370" y="721" on="1"/>
        <pt x="313" y="651" on="0"/>
        <pt x="242" y="448" on="0"/>
      </contour>
      <contour>
        <pt x="942" y="849" on="1"/>
        <pt x="942" y="825" on="1"/>
        <pt x="942" y="793" on="0"/>
        <pt x="861" y="365" on="0"/>
        <pt x="861" y="245" on="0"/>
        <pt x="934" y="172" on="0"/>
        <pt x="934" y="108" on="0"/>
        <pt x="867" y="47" on="0"/>
        <pt x="785" y="47" on="0"/>
        <pt x="688" y="151" on="0"/>
        <pt x="642" y="151" on="1"/>
        <pt x="630" y="151" on="0"/>
        <pt x="409" y="30" on="0"/>
        <pt x="319" y="30" on="1"/>
        <pt x="302" y="30" on="1"/>
        <pt x="205" y="30" on="0"/>
        <pt x="85" y="190" on="0"/>
        <pt x="85" y="302" on="1"/>
        <pt x="85" y="559" on="0"/>
        <pt x="254" y="763" on="1"/>
        <pt x="413" y="953" on="0"/>
        <pt x="630" y="953" on="1"/>
        <pt x="735" y="953" on="0"/>
        <pt x="910" y="903" on="1"/>
        <pt x="942" y="894" on="0"/>
      </contour>
    </TTGlyph>
    <TTGlyph name="aacute" xMin="93" yMin="53" xMax="952" yMax="1450">
      <contour>
        <pt x="250" y="399" on="1"/>
        <pt x="250" y="358" on="1"/>
        <pt x="250" y="267" on="0"/>
        <pt x="329" y="152" on="0"/>
        <pt x="389" y="152" on="1"/>
        <pt x="399" y="152" on="1"/>
        <pt x="462" y="152" on="0"/>
        <pt x="611" y="254" on="0"/>
        <pt x="709" y="406" on="0"/>
        <pt x="780" y="642" on="0"/>
        <pt x="780" y="746" on="1"/>
        <pt x="780" y="765" on="1"/>
        <pt x="780" y="828" on="0"/>
        <pt x="719" y="894" on="0"/>
        <pt x="637" y="894" on="1"/>
        <pt x="627" y="894" on="1"/>
        <pt x="562" y="894" on="0"/>
        <pt x="426" y="814" on="0"/>
        <pt x="311" y="664" on="0"/>
        <pt x="250" y="461" on="0"/>
      </contour>
      <contour>
        <pt x="952" y="1428" on="1"/>
        <pt x="952" y="1420" on="1"/>
        <pt x="952" y="1391" on="0"/>
        <pt x="630" y="1105" on="0"/>
        <pt x="618" y="1105" on="1"/>
        <pt x="613" y="1105" on="1"/>
        <pt x="609" y="1106" on="1"/>
        <pt x="587" y="1106" on="0"/>
        <pt x="587" y="1121" on="1"/>
        <pt x="587" y="1125" on="1"/>
        <pt x="587" y="1169" on="0"/>
        <pt x="802" y="1415" on="1"/>
        <pt x="833" y="1450" on="0"/>
        <pt x="880" y="1450" on="1"/>
        <pt x="912" y="1450" on="1"/>
        <pt x="952" y="1450" on="0"/>
      </contour>
      <contour>
        <pt x="940" y="829" on="1"/>
        <pt x="940" y="804" on="0"/>
        <pt x="861" y="387" on="0"/>
        <pt x="861" y="271" on="0"/>
        <pt x="933" y="199" on="0"/>
        <pt x="933" y="134" on="0"/>
        <pt x="866" y="70" on="0"/>
        <pt x="805" y="70" on="1"/>
        <pt x="779" y="70" on="0"/>
        <pt x="685" y="171" on="0"/>
        <pt x="620" y="171" on="0"/>
        <pt x="416" y="53" on="0"/>
        <pt x="212" y="53" on="0"/>
        <pt x="93" y="212" on="0"/>
        <pt x="93" y="443" on="0"/>
        <pt x="176" y="680" on="0"/>
        <pt x="330" y="864" on="0"/>
        <pt x="522" y="969" on="0"/>
        <pt x="619" y="969" on="1"/>
        <pt x="874" y="925" on="1"/>
        <pt x="941" y="925" on="0"/>
        <pt x="941" y="855" on="1"/>
        <pt x="940" y="842" on="1"/>
      </contour>
    </TTGlyph>
    <TTGlyph name="acircumflex" xMin="101" yMin="45" xMax="948" yMax="1447">
      <contour>
        <pt x="253" y="395" on="1"/>
        <pt x="253" y="363" on="1"/>
        <pt x="253" y="263" on="0"/>
        <pt x="331" y="146" on="0"/>
        <pt x="391" y="146" on="1"/>
        <pt x="410" y="146" on="1"/>
        <pt x="470" y="146" on="0"/>
        <pt x="547" y="199" on="1"/>
        <pt x="703" y="306" on="0"/>
        <pt x="754" y="515" on="1"/>
        <pt x="785" y="639" on="0"/>
        <pt x="785" y="820" on="0"/>
        <pt x="720" y="885" on="0"/>
        <pt x="636" y="885" on="1"/>
        <pt x="626" y="884" on="1"/>
        <pt x="563" y="884" on="0"/>
        <pt x="496" y="844" on="1"/>
        <pt x="360" y="764" on="0"/>
        <pt x="287" y="566" on="1"/>
        <pt x="253" y="474" on="0"/>
      </contour>
      <contour>
        <pt x="459" y="1114" on="1"/>
        <pt x="445" y="1114" on="1"/>
        <pt x="427" y="1114" on="0"/>
        <pt x="427" y="1126" on="1"/>
        <pt x="427" y="1131" on="1"/>
        <pt x="427" y="1139" on="0"/>
        <pt x="498" y="1216" on="1"/>
        <pt x="504" y="1222" on="1"/>
        <pt x="510" y="1227" on="1"/>
        <pt x="588" y="1310" on="1"/>
        <pt x="704" y="1447" on="0"/>
        <pt x="744" y="1447" on="1"/>
        <pt x="751" y="1447" on="1"/>
        <pt x="787" y="1447" on="0"/>
        <pt x="821" y="1383" on="1"/>
        <pt x="942" y="1156" on="0"/>
        <pt x="942" y="1115" on="0"/>
        <pt x="876" y="1115" on="0"/>
        <pt x="733" y="1322" on="0"/>
        <pt x="713" y="1322" on="0"/>
        <pt x="488" y="1114" on="0"/>
      </contour>
      <contour>
        <pt x="101" y="309" on="1"/>
        <pt x="101" y="348" on="1"/>
        <pt x="101" y="448" on="0"/>
        <pt x="146" y="564" on="1"/>
        <pt x="242" y="810" on="0"/>
        <pt x="447" y="915" on="1"/>
        <pt x="534" y="960" on="0"/>
        <pt x="627" y="960" on="1"/>
        <pt x="645" y="960" on="1"/>
        <pt x="705" y="960" on="0"/>
        <pt x="907" y="914" on="1"/>
        <pt x="948" y="905" on="0"/>
        <pt x="948" y="857" on="1"/>
        <pt x="948" y="834" on="1"/>
        <pt x="948" y="798" on="0"/>
        <pt x="868" y="376" on="0"/>
        <pt x="868" y="261" on="0"/>
        <pt x="940" y="195" on="0"/>
        <pt x="940" y="122" on="0"/>
        <pt x="873" y="61" on="0"/>
        <pt x="788" y="61" on="0"/>
        <pt x="693" y="163" on="0"/>
        <pt x="629" y="163" on="0"/>
        <pt x="426" y="45" on="0"/>
        <pt x="345" y="45" on="1"/>
        <pt x="311" y="45" on="1"/>
        <pt x="230" y="45" on="0"/>
        <pt x="101" y="190" on="0"/>
      </contour>
    </TTGlyph>
    <TTGlyph name="acute" xMin="284" yMin="1075" xMax="649" yMax="1412">
      <contour>
        <pt x="571" y="1412" on="1"/>
        <pt x="607" y="1412" on="1"/>
        <pt x="649" y="1412" on="0"/>
        <pt x="649" y="1390" on="1"/>
        <pt x="649" y="1386" on="1"/>
        <pt x="649" y="1340" on="0"/>
        <pt x="346" y="1075" on="0"/>
        <pt x="314" y="1075" on="1"/>
        <pt x="309" y="1076" on="1"/>
        <pt x="284" y="1076" on="0"/>
        <pt x="284" y="1089" on="1"/>
        <pt x="284" y="1093" on="1"/>
        <pt x="284" y="1104" on="0"/>
        <pt x="419" y="1306" on="0"/>
        <pt x="525" y="1412" on="0"/>
      </contour>
    </TTGlyph>
    <TTGlyph name="adieresis" xMin="100" yMin="54" xMax="965" yMax="1371">
      <contour>
        <pt x="253" y="410" on="1"/>
        <pt x="253" y="358" on="1"/>
        <pt x="253" y="268" on="0"/>
        <pt x="332" y="153" on="0"/>
        <pt x="392" y="153" on="1"/>
        <pt x="401" y="153" on="1"/>
        <pt x="411" y="154" on="1"/>
        <pt x="477" y="154" on="0"/>
        <pt x="619" y="263" on="0"/>
        <pt x="708" y="401" on="0"/>
        <pt x="778" y="633" on="0"/>
        <pt x="778" y="734" on="1"/>
        <pt x="778" y="783" on="1"/>
        <pt x="778" y="834" on="0"/>
        <pt x="706" y="891" on="0"/>
        <pt x="647" y="891" on="1"/>
        <pt x="616" y="891" on="1"/>
        <pt x="492" y="891" on="0"/>
        <pt x="373" y="744" on="1"/>
        <pt x="326" y="686" on="0"/>
        <pt x="253" y="489" on="0"/>
      </contour>
      <contour>
        <pt x="555" y="1371" on="1"/>
        <pt x="624" y="1371" on="0"/>
        <pt x="624" y="1319" on="1"/>
        <pt x="626" y="1315" on="0"/>
        <pt x="626" y="1311" on="1"/>
        <pt x="628" y="1299" on="1"/>
        <pt x="628" y="1281" on="1"/>
        <pt x="624" y="1261" on="1"/>
        <pt x="624" y="1239" on="0"/>
        <pt x="567" y="1182" on="0"/>
        <pt x="526" y="1182" on="1"/>
        <pt x="514" y="1182" on="1"/>
        <pt x="443" y="1182" on="0"/>
        <pt x="443" y="1253" on="1"/>
        <pt x="443" y="1268" on="1"/>
        <pt x="448" y="1295" on="1"/>
        <pt x="448" y="1309" on="0"/>
        <pt x="495" y="1367" on="0"/>
        <pt x="519" y="1367" on="1"/>
        <pt x="525" y="1369" on="0"/>
        <pt x="528" y="1369" on="1"/>
        <pt x="543" y="1371" on="1"/>
      </contour>
      <contour>
        <pt x="965" y="1279" on="1"/>
        <pt x="961" y="1256" on="1"/>
        <pt x="961" y="1231" on="0"/>
        <pt x="906" y="1162" on="0"/>
        <pt x="886" y="1162" on="1"/>
        <pt x="876" y="1159" on="1"/>
        <pt x="857" y="1159" on="1"/>
        <pt x="846" y="1161" on="1"/>
        <pt x="795" y="1161" on="0"/>
        <pt x="795" y="1217" on="1"/>
        <pt x="792" y="1229" on="1"/>
        <pt x="792" y="1248" on="1"/>
        <pt x="803" y="1281" on="0"/>
        <pt x="803" y="1310" on="0"/>
        <pt x="856" y="1363" on="0"/>
        <pt x="880" y="1363" on="1"/>
        <pt x="886" y="1365" on="0"/>
        <pt x="889" y="1365" on="1"/>
        <pt x="905" y="1367" on="1"/>
        <pt x="908" y="1367" on="1"/>
        <pt x="926" y="1361" on="0"/>
        <pt x="931" y="1361" on="1"/>
        <pt x="965" y="1361" on="0"/>
        <pt x="965" y="1307" on="1"/>
      </contour>
      <contour>
        <pt x="100" y="318" on="1"/>
        <pt x="100" y="357" on="1"/>
        <pt x="100" y="465" on="0"/>
        <pt x="148" y="580" on="1"/>
        <pt x="251" y="826" on="0"/>
        <pt x="446" y="924" on="1"/>
        <pt x="536" y="969" on="0"/>
        <pt x="626" y="969" on="1"/>
        <pt x="644" y="969" on="1"/>
        <pt x="670" y="969" on="0"/>
        <pt x="825" y="929" on="0"/>
        <pt x="906" y="923" on="0"/>
        <pt x="916" y="919" on="1"/>
        <pt x="947" y="906" on="0"/>
        <pt x="947" y="855" on="1"/>
        <pt x="947" y="843" on="1"/>
        <pt x="947" y="806" on="0"/>
        <pt x="867" y="384" on="0"/>
        <pt x="867" y="273" on="0"/>
        <pt x="939" y="201" on="0"/>
        <pt x="939" y="132" on="0"/>
        <pt x="871" y="70" on="0"/>
        <pt x="787" y="70" on="0"/>
        <pt x="692" y="172" on="0"/>
        <pt x="628" y="172" on="0"/>
        <pt x="425" y="54" on="0"/>
        <pt x="344" y="54" on="1"/>
        <pt x="310" y="54" on="1"/>
        <pt x="229" y="54" on="0"/>
        <pt x="100" y="199" on="0"/>
      </contour>
    </TTGlyph>
    <TTGlyph name="ae" xMin="139" yMin="26" xMax="1402" yMax="955">
      <contour>
        <pt x="686" y="848" on="1"/>
        <pt x="667" y="848" on="1"/>
        <pt x="619" y="848" on="0"/>
        <pt x="488" y="775" on="0"/>
        <pt x="371" y="614" on="0"/>
        <pt x="302" y="408" on="0"/>
        <pt x="302" y="344" on="1"/>
        <pt x="302" y="296" on="1"/>
        <pt x="302" y="238" on="0"/>
        <pt x="360" y="149" on="0"/>
        <pt x="407" y="149" on="1"/>
        <pt x="425" y="149" on="1"/>
        <pt x="468" y="149" on="0"/>
        <pt x="604" y="240" on="0"/>
        <pt x="667" y="351" on="0"/>
        <pt x="794" y="733" on="0"/>
        <pt x="794" y="773" on="1"/>
        <pt x="794" y="789" on="1"/>
        <pt x="794" y="805" on="0"/>
        <pt x="739" y="848" on="0"/>
      </contour>
      <contour>
        <pt x="884" y="583" on="1"/>
        <pt x="884" y="574" on="1"/>
        <pt x="884" y="532" on="0"/>
        <pt x="917" y="532" on="1"/>
        <pt x="943" y="532" on="1"/>
        <pt x="958" y="535" on="0"/>
        <pt x="969" y="535" on="1"/>
        <pt x="1066" y="535" on="0"/>
        <pt x="1185" y="641" on="1"/>
        <pt x="1253" y="701" on="0"/>
        <pt x="1253" y="785" on="1"/>
        <pt x="1253" y="809" on="1"/>
        <pt x="1253" y="879" on="0"/>
        <pt x="1188" y="879" on="1"/>
        <pt x="1156" y="882" on="1"/>
        <pt x="1071" y="882" on="0"/>
        <pt x="1000" y="803" on="1"/>
        <pt x="884" y="674" on="0"/>
      </contour>
      <contour>
        <pt x="863" y="371" on="1"/>
        <pt x="863" y="150" on="0"/>
        <pt x="1049" y="150" on="1"/>
        <pt x="1110" y="150" on="0"/>
        <pt x="1194" y="189" on="1"/>
        <pt x="1276" y="228" on="1"/>
        <pt x="1304" y="242" on="0"/>
        <pt x="1306" y="242" on="1"/>
        <pt x="1323" y="242" on="0"/>
        <pt x="1323" y="226" on="1"/>
        <pt x="1323" y="167" on="0"/>
        <pt x="1098" y="26" on="0"/>
        <pt x="993" y="26" on="1"/>
        <pt x="968" y="26" on="1"/>
        <pt x="849" y="26" on="0"/>
        <pt x="752" y="144" on="1"/>
        <pt x="705" y="202" on="0"/>
        <pt x="680" y="202" on="0"/>
        <pt x="434" y="34" on="0"/>
        <pt x="250" y="34" on="0"/>
        <pt x="139" y="175" on="0"/>
        <pt x="139" y="289" on="1"/>
        <pt x="139" y="315" on="1"/>
        <pt x="139" y="414" on="0"/>
        <pt x="194" y="536" on="1"/>
        <pt x="250" y="658" on="0"/>
        <pt x="336" y="744" on="1"/>
        <pt x="506" y="914" on="0"/>
        <pt x="708" y="915" on="1"/>
        <pt x="772" y="915" on="0"/>
        <pt x="869" y="934" on="0"/>
        <pt x="902" y="934" on="0"/>
        <pt x="958" y="908" on="0"/>
        <pt x="1001" y="908" on="0"/>
        <pt x="1129" y="955" on="0"/>
        <pt x="1303" y="955" on="0"/>
        <pt x="1402" y="856" on="0"/>
        <pt x="1402" y="782" on="1"/>
        <pt x="1402" y="758" on="1"/>
        <pt x="1402" y="650" on="0"/>
        <pt x="1321" y="590" on="1"/>
        <pt x="1217" y="514" on="0"/>
        <pt x="1016" y="463" on="1"/>
        <pt x="926" y="440" on="0"/>
        <pt x="909" y="431" on="1"/>
        <pt x="863" y="407" on="0"/>
      </contour>
    </TTGlyph>
    <TTGlyph name="agrave" xMin="100" yMin="51" xMax="948" yMax="1458">
      <contour>
        <pt x="254" y="413" on="1"/>
        <pt x="254" y="361" on="1"/>
        <pt x="254" y="258" on="0"/>
        <pt x="339" y="151" on="0"/>
        <pt x="400" y="151" on="1"/>
        <pt x="409" y="151" on="1"/>
        <pt x="474" y="152" on="0"/>
        <pt x="546" y="202" on="1"/>
        <pt x="692" y="304" on="0"/>
        <pt x="742" y="503" on="1"/>
        <pt x="778" y="647" on="0"/>
        <pt x="778" y="738" on="1"/>
        <pt x="778" y="768" on="1"/>
        <pt x="778" y="891" on="0"/>
        <pt x="641" y="891" on="1"/>
        <pt x="620" y="891" on="1"/>
        <pt x="493" y="891" on="0"/>
        <pt x="375" y="748" on="1"/>
        <pt x="326" y="688" on="0"/>
        <pt x="254" y="492" on="0"/>
      </contour>
      <contour>
        <pt x="770" y="1131" on="1"/>
        <pt x="770" y="1122" on="1"/>
        <pt x="770" y="1105" on="0"/>
        <pt x="747" y="1105" on="1"/>
        <pt x="738" y="1105" on="1"/>
        <pt x="706" y="1105" on="0"/>
        <pt x="621" y="1219" on="1"/>
        <pt x="468" y="1423" on="0"/>
        <pt x="468" y="1426" on="1"/>
        <pt x="468" y="1434" on="1"/>
        <pt x="468" y="1458" on="0"/>
        <pt x="515" y="1458" on="1"/>
        <pt x="534" y="1458" on="1"/>
        <pt x="593" y="1458" on="0"/>
        <pt x="629" y="1401" on="1"/>
        <pt x="770" y="1175" on="0"/>
      </contour>
      <contour>
        <pt x="948" y="853" on="1"/>
        <pt x="948" y="840" on="1"/>
        <pt x="948" y="810" on="0"/>
        <pt x="868" y="387" on="0"/>
        <pt x="868" y="269" on="0"/>
        <pt x="940" y="197" on="0"/>
        <pt x="940" y="130" on="0"/>
        <pt x="872" y="68" on="0"/>
        <pt x="812" y="68" on="1"/>
        <pt x="790" y="68" on="0"/>
        <pt x="689" y="169" on="0"/>
        <pt x="627" y="169" on="0"/>
        <pt x="423" y="51" on="0"/>
        <pt x="219" y="51" on="0"/>
        <pt x="100" y="210" on="0"/>
        <pt x="100" y="441" on="0"/>
        <pt x="185" y="683" on="0"/>
        <pt x="349" y="873" on="0"/>
        <pt x="537" y="967" on="0"/>
        <pt x="627" y="967" on="1"/>
        <pt x="881" y="923" on="1"/>
        <pt x="948" y="923" on="0"/>
      </contour>
    </TTGlyph>
    <TTGlyph name="ampersand" xMin="140" yMin="-6" xMax="1372" yMax="1414">
      <contour>
        <pt x="691" y="874" on="1"/>
        <pt x="702" y="874" on="1"/>
        <pt x="708" y="874" on="0"/>
        <pt x="840" y="946" on="0"/>
        <pt x="955" y="1076" on="0"/>
        <pt x="955" y="1145" on="1"/>
        <pt x="955" y="1183" on="1"/>
        <pt x="955" y="1236" on="0"/>
        <pt x="875" y="1307" on="0"/>
        <pt x="821" y="1307" on="1"/>
        <pt x="801" y="1307" on="1"/>
        <pt x="718" y="1307" on="0"/>
        <pt x="603" y="1177" on="0"/>
        <pt x="603" y="1099" on="1"/>
        <pt x="603" y="1068" on="1"/>
        <pt x="603" y="981" on="0"/>
        <pt x="655" y="907" on="1"/>
        <pt x="678" y="874" on="0"/>
      </contour>
      <contour>
        <pt x="557" y="102" on="1"/>
        <pt x="596" y="102" on="1"/>
        <pt x="689" y="102" on="0"/>
        <pt x="890" y="209" on="0"/>
        <pt x="890" y="252" on="1"/>
        <pt x="890" y="259" on="1"/>
        <pt x="890" y="263" on="0"/>
        <pt x="746" y="465" on="0"/>
        <pt x="602" y="681" on="0"/>
        <pt x="570" y="681" on="1"/>
        <pt x="500" y="681" on="0"/>
        <pt x="387" y="537" on="1"/>
        <pt x="321" y="453" on="0"/>
        <pt x="321" y="345" on="1"/>
        <pt x="321" y="336" on="1"/>
        <pt x="321" y="224" on="0"/>
        <pt x="465" y="102" on="0"/>
      </contour>
      <contour>
        <pt x="1159" y="77" on="0"/>
        <pt x="1078" y="77" on="0"/>
        <pt x="992" y="63" on="0"/>
        <pt x="870" y="51" on="1"/>
        <pt x="852" y="49" on="0"/>
        <pt x="631" y="-6" on="0"/>
        <pt x="571" y="-6" on="1"/>
        <pt x="540" y="-6" on="1"/>
        <pt x="360" y="-6" on="0"/>
        <pt x="254" y="75" on="1"/>
        <pt x="193" y="122" on="0"/>
        <pt x="140" y="248" on="0"/>
        <pt x="140" y="305" on="1"/>
        <pt x="140" y="434" on="0"/>
        <pt x="261" y="615" on="0"/>
        <pt x="480" y="785" on="0"/>
        <pt x="480" y="834" on="1"/>
        <pt x="480" y="849" on="0"/>
        <pt x="468" y="886" on="1"/>
        <pt x="449" y="943" on="1"/>
        <pt x="436" y="992" on="0"/>
        <pt x="436" y="1060" on="1"/>
        <pt x="436" y="1213" on="0"/>
        <pt x="657" y="1414" on="0"/>
        <pt x="927" y="1414" on="0"/>
        <pt x="1075" y="1287" on="0"/>
        <pt x="1075" y="1089" on="0"/>
        <pt x="965" y="929" on="1"/>
        <pt x="918" y="860" on="0"/>
        <pt x="912" y="837" on="1"/>
        <pt x="873" y="696" on="0"/>
        <pt x="873" y="594" on="0"/>
        <pt x="932" y="556" on="1"/>
        <pt x="957" y="540" on="0"/>
        <pt x="1081" y="540" on="0"/>
        <pt x="1096" y="556" on="1"/>
        <pt x="1098" y="558" on="0"/>
        <pt x="1147" y="670" on="0"/>
        <pt x="1175" y="696" on="1"/>
        <pt x="1262" y="775" on="0"/>
        <pt x="1372" y="775" on="0"/>
        <pt x="1372" y="730" on="1"/>
        <pt x="1372" y="695" on="0"/>
        <pt x="1166" y="340" on="0"/>
        <pt x="1166" y="260" on="1"/>
        <pt x="1166" y="251" on="0"/>
        <pt x="1224" y="117" on="0"/>
        <pt x="1254" y="74" on="0"/>
        <pt x="1254" y="56" on="0"/>
        <pt x="1227" y="56" on="1"/>
      </contour>
    </TTGlyph>
    <TTGlyph name="aring" xMin="98" yMin="56" xMax="946" yMax="1486">
      <contour>
        <pt x="706" y="1417" on="1"/>
        <pt x="678" y="1417" on="0"/>
        <pt x="604" y="1358" on="0"/>
        <pt x="604" y="1326" on="1"/>
        <pt x="600" y="1312" on="0"/>
        <pt x="600" y="1309" on="1"/>
        <pt x="600" y="1280" on="1"/>
        <pt x="603" y="1268" on="0"/>
        <pt x="603" y="1237" on="0"/>
        <pt x="661" y="1191" on="0"/>
        <pt x="685" y="1191" on="1"/>
        <pt x="710" y="1191" on="1"/>
        <pt x="719" y="1194" on="0"/>
        <pt x="746" y="1194" on="0"/>
        <pt x="810" y="1258" on="0"/>
        <pt x="810" y="1288" on="1"/>
        <pt x="813" y="1310" on="1"/>
        <pt x="813" y="1328" on="1"/>
        <pt x="810" y="1337" on="0"/>
        <pt x="810" y="1365" on="0"/>
        <pt x="761" y="1414" on="0"/>
        <pt x="741" y="1414" on="1"/>
        <pt x="724" y="1417" on="1"/>
      </contour>
      <contour>
        <pt x="246" y="393" on="1"/>
        <pt x="246" y="351" on="1"/>
        <pt x="246" y="254" on="0"/>
        <pt x="327" y="136" on="0"/>
        <pt x="383" y="136" on="1"/>
        <pt x="402" y="136" on="1"/>
        <pt x="458" y="136" on="0"/>
        <pt x="615" y="238" on="0"/>
        <pt x="713" y="380" on="0"/>
        <pt x="783" y="625" on="0"/>
        <pt x="783" y="723" on="1"/>
        <pt x="783" y="773" on="1"/>
        <pt x="783" y="832" on="0"/>
        <pt x="706" y="885" on="0"/>
        <pt x="651" y="885" on="1"/>
        <pt x="619" y="885" on="1"/>
        <pt x="617" y="885" on="0"/>
        <pt x="616" y="885" on="1"/>
        <pt x="549" y="885" on="0"/>
        <pt x="482" y="842" on="1"/>
        <pt x="344" y="753" on="0"/>
        <pt x="277" y="559" on="1"/>
        <pt x="246" y="470" on="0"/>
      </contour>
      <contour>
        <pt x="654" y="1125" on="1"/>
        <pt x="606" y="1125" on="0"/>
        <pt x="522" y="1221" on="0"/>
        <pt x="522" y="1275" on="1"/>
        <pt x="522" y="1299" on="1"/>
        <pt x="522" y="1375" on="0"/>
        <pt x="647" y="1486" on="0"/>
        <pt x="716" y="1486" on="1"/>
        <pt x="728" y="1486" on="1"/>
        <pt x="786" y="1486" on="0"/>
        <pt x="891" y="1404" on="0"/>
        <pt x="891" y="1339" on="1"/>
        <pt x="891" y="1309" on="1"/>
        <pt x="891" y="1233" on="0"/>
        <pt x="767" y="1123" on="0"/>
        <pt x="703" y="1123" on="1"/>
        <pt x="672" y="1123" on="1"/>
        <pt x="660" y="1125" on="0"/>
      </contour>
      <contour>
        <pt x="98" y="318" on="1"/>
        <pt x="98" y="357" on="1"/>
        <pt x="98" y="458" on="0"/>
        <pt x="190" y="695" on="0"/>
        <pt x="346" y="876" on="0"/>
        <pt x="536" y="971" on="0"/>
        <pt x="623" y="971" on="1"/>
        <pt x="781" y="971" on="0"/>
        <pt x="914" y="922" on="1"/>
        <pt x="946" y="910" on="0"/>
        <pt x="946" y="857" on="1"/>
        <pt x="946" y="845" on="1"/>
        <pt x="946" y="815" on="0"/>
        <pt x="866" y="392" on="0"/>
        <pt x="866" y="272" on="0"/>
        <pt x="937" y="201" on="0"/>
        <pt x="937" y="133" on="0"/>
        <pt x="869" y="71" on="0"/>
        <pt x="784" y="71" on="0"/>
        <pt x="689" y="173" on="0"/>
        <pt x="626" y="173" on="0"/>
        <pt x="424" y="56" on="0"/>
        <pt x="343" y="56" on="1"/>
        <pt x="309" y="56" on="1"/>
        <pt x="216" y="56" on="0"/>
        <pt x="98" y="213" on="0"/>
      </contour>
    </TTGlyph>
    <TTGlyph name="asciicircum" xMin="209" yMin="739" xMax="948" yMax="1347">
      <contour>
        <pt x="638" y="1347" on="1"/>
        <pt x="650" y="1347" on="1"/>
        <pt x="684" y="1347" on="0"/>
        <pt x="718" y="1286" on="1"/>
        <pt x="752" y="1224" on="0"/>
        <pt x="948" y="776" on="0"/>
        <pt x="948" y="765" on="1"/>
        <pt x="948" y="740" on="0"/>
        <pt x="884" y="739" on="1"/>
        <pt x="839" y="739" on="0"/>
        <pt x="736" y="962" on="1"/>
        <pt x="633" y="1186" on="0"/>
        <pt x="615" y="1186" on="1"/>
        <pt x="613" y="1186" on="0"/>
        <pt x="535" y="1074" on="1"/>
        <pt x="456" y="962" on="0"/>
        <pt x="364" y="822" on="0"/>
        <pt x="331" y="782" on="1"/>
        <pt x="298" y="740" on="0"/>
        <pt x="210" y="740" on="0"/>
        <pt x="209" y="755" on="1"/>
        <pt x="209" y="781" on="0"/>
        <pt x="471" y="1158" on="1"/>
        <pt x="602" y="1347" on="0"/>
      </contour>
    </TTGlyph>
    <TTGlyph name="asciitilde" xMin="158" yMin="539" xMax="1019" yMax="785">
      <contour>
        <pt x="771" y="539" on="1"/>
        <pt x="740" y="539" on="1"/>
        <pt x="690" y="539" on="0"/>
        <pt x="450" y="671" on="0"/>
        <pt x="334" y="671" on="0"/>
        <pt x="197" y="551" on="0"/>
        <pt x="158" y="551" on="0"/>
        <pt x="158" y="573" on="1"/>
        <pt x="158" y="582" on="1"/>
        <pt x="158" y="653" on="0"/>
        <pt x="265" y="735" on="1"/>
        <pt x="330" y="785" on="0"/>
        <pt x="406" y="785" on="1"/>
        <pt x="437" y="785" on="1"/>
        <pt x="482" y="785" on="0"/>
        <pt x="736" y="652" on="0"/>
        <pt x="844" y="652" on="0"/>
        <pt x="973" y="772" on="0"/>
        <pt x="1019" y="772" on="0"/>
        <pt x="1019" y="751" on="1"/>
        <pt x="1019" y="741" on="1"/>
        <pt x="1019" y="676" on="0"/>
        <pt x="852" y="539" on="0"/>
      </contour>
    </TTGlyph>
    <TTGlyph name="asterisk" xMin="230" yMin="772" xMax="823" yMax="1392">
      <contour>
        <pt x="273" y="831" on="1"/>
        <pt x="249" y="831" on="0"/>
        <pt x="249" y="911" on="0"/>
        <pt x="333" y="979" on="1"/>
        <pt x="369" y="1008" on="0"/>
        <pt x="369" y="1041" on="0"/>
        <pt x="302" y="1070" on="0"/>
        <pt x="285" y="1080" on="1"/>
        <pt x="230" y="1113" on="0"/>
        <pt x="230" y="1160" on="1"/>
        <pt x="230" y="1215" on="0"/>
        <pt x="291" y="1215" on="1"/>
        <pt x="317" y="1215" on="0"/>
        <pt x="460" y="1132" on="0"/>
        <pt x="464" y="1132" on="1"/>
        <pt x="478" y="1132" on="0"/>
        <pt x="478" y="1312" on="0"/>
        <pt x="511" y="1392" on="0"/>
        <pt x="551" y="1392" on="1"/>
        <pt x="609" y="1392" on="0"/>
        <pt x="609" y="1331" on="1"/>
        <pt x="609" y="1288" on="0"/>
        <pt x="584" y="1164" on="0"/>
        <pt x="584" y="1150" on="0"/>
        <pt x="604" y="1150" on="0"/>
        <pt x="746" y="1230" on="0"/>
        <pt x="823" y="1230" on="0"/>
        <pt x="823" y="1166" on="0"/>
        <pt x="766" y="1114" on="1"/>
        <pt x="746" y="1096" on="0"/>
        <pt x="674" y="1056" on="0"/>
        <pt x="674" y="1052" on="1"/>
        <pt x="712" y="1002" on="1"/>
        <pt x="750" y="952" on="0"/>
        <pt x="750" y="925" on="1"/>
        <pt x="750" y="866" on="0"/>
        <pt x="709" y="866" on="1"/>
        <pt x="602" y="885" on="1"/>
        <pt x="585" y="885" on="0"/>
        <pt x="561" y="816" on="1"/>
        <pt x="545" y="772" on="0"/>
        <pt x="460" y="772" on="0"/>
        <pt x="424" y="878" on="0"/>
        <pt x="417" y="878" on="1"/>
        <pt x="331" y="831" on="0"/>
      </contour>
    </TTGlyph>
    <TTGlyph name="at" xMin="169" yMin="-193" xMax="1649" yMax="1331">
      <contour>
        <pt x="1011" y="861" on="1"/>
        <pt x="988" y="861" on="1"/>
        <pt x="937" y="861" on="0"/>
        <pt x="810" y="793" on="0"/>
        <pt x="761" y="732" on="1"/>
        <pt x="658" y="603" on="0"/>
        <pt x="658" y="469" on="1"/>
        <pt x="658" y="435" on="1"/>
        <pt x="658" y="425" on="0"/>
        <pt x="662" y="393" on="1"/>
        <pt x="668" y="345" on="1"/>
        <pt x="668" y="261" on="0"/>
        <pt x="734" y="261" on="1"/>
        <pt x="758" y="261" on="1"/>
        <pt x="797" y="261" on="0"/>
        <pt x="959" y="342" on="0"/>
        <pt x="1048" y="461" on="0"/>
        <pt x="1118" y="698" on="0"/>
        <pt x="1118" y="786" on="1"/>
        <pt x="1118" y="802" on="1"/>
        <pt x="1118" y="861" on="0"/>
      </contour>
      <contour>
        <pt x="1186" y="420" on="1"/>
        <pt x="1186" y="316" on="0"/>
        <pt x="1261" y="316" on="1"/>
        <pt x="1341" y="316" on="0"/>
        <pt x="1411" y="417" on="1"/>
        <pt x="1456" y="481" on="0"/>
        <pt x="1492" y="631" on="0"/>
        <pt x="1492" y="674" on="1"/>
        <pt x="1492" y="895" on="0"/>
        <pt x="1381" y="1024" on="1"/>
        <pt x="1243" y="1186" on="0"/>
        <pt x="740" y="1186" on="0"/>
        <pt x="546" y="988" on="1"/>
        <pt x="446" y="887" on="0"/>
        <pt x="392" y="754" on="1"/>
        <pt x="338" y="622" on="0"/>
        <pt x="337" y="488" on="1"/>
        <pt x="337" y="226" on="0"/>
        <pt x="465" y="75" on="1"/>
        <pt x="619" y="-106" on="0"/>
        <pt x="895" y="-106" on="1"/>
        <pt x="965" y="-106" on="0"/>
        <pt x="1052" y="-82" on="1"/>
        <pt x="1150" y="-53" on="1"/>
        <pt x="1192" y="-44" on="1"/>
        <pt x="1234" y="-44" on="0"/>
        <pt x="1234" y="-65" on="1"/>
        <pt x="1234" y="-108" on="0"/>
        <pt x="965" y="-193" on="0"/>
        <pt x="859" y="-193" on="1"/>
        <pt x="801" y="-193" on="1"/>
        <pt x="798" y="-193" on="0"/>
        <pt x="796" y="-193" on="1"/>
        <pt x="656" y="-193" on="0"/>
        <pt x="538" y="-138" on="1"/>
        <pt x="169" y="32" on="0"/>
        <pt x="169" y="473" on="1"/>
        <pt x="169" y="642" on="0"/>
        <pt x="310" y="969" on="0"/>
        <pt x="543" y="1195" on="0"/>
        <pt x="845" y="1331" on="0"/>
        <pt x="1014" y="1331" on="1"/>
        <pt x="1322" y="1331" on="0"/>
        <pt x="1496" y="1150" on="1"/>
        <pt x="1649" y="991" on="0"/>
        <pt x="1649" y="730" on="1"/>
        <pt x="1649" y="546" on="0"/>
        <pt x="1545" y="396" on="1"/>
        <pt x="1478" y="299" on="0"/>
        <pt x="1294" y="195" on="0"/>
        <pt x="1181" y="195" on="0"/>
        <pt x="1032" y="275" on="0"/>
        <pt x="1015" y="275" on="0"/>
        <pt x="824" y="176" on="0"/>
        <pt x="667" y="176" on="0"/>
        <pt x="550" y="299" on="0"/>
        <pt x="550" y="540" on="0"/>
        <pt x="652" y="732" on="0"/>
        <pt x="716" y="796" on="1"/>
        <pt x="852" y="932" on="0"/>
        <pt x="1004" y="932" on="1"/>
        <pt x="1052" y="929" on="1"/>
        <pt x="1096" y="917" on="1"/>
        <pt x="1135" y="911" on="1"/>
        <pt x="1168" y="916" on="1"/>
        <pt x="1199" y="917" on="1"/>
        <pt x="1254" y="917" on="0"/>
        <pt x="1254" y="846" on="1"/>
        <pt x="1247" y="795" on="1"/>
        <pt x="1213" y="629" on="1"/>
        <pt x="1186" y="492" on="0"/>
      </contour>
    </TTGlyph>
    <TTGlyph name="atilde" xMin="98" yMin="47" xMax="1006" yMax="1340">
      <contour>
        <pt x="251" y="398" on="1"/>
        <pt x="251" y="345" on="1"/>
        <pt x="251" y="259" on="0"/>
        <pt x="332" y="149" on="0"/>
        <pt x="388" y="149" on="1"/>
        <pt x="417" y="149" on="1"/>
        <pt x="479" y="149" on="0"/>
        <pt x="625" y="261" on="0"/>
        <pt x="718" y="405" on="0"/>
        <pt x="784" y="635" on="0"/>
        <pt x="784" y="734" on="1"/>
        <pt x="784" y="744" on="1"/>
        <pt x="784" y="820" on="0"/>
        <pt x="720" y="884" on="0"/>
        <pt x="644" y="884" on="1"/>
        <pt x="623" y="884" on="1"/>
        <pt x="566" y="884" on="0"/>
        <pt x="498" y="848" on="1"/>
        <pt x="361" y="776" on="0"/>
        <pt x="284" y="569" on="1"/>
        <pt x="251" y="479" on="0"/>
      </contour>
      <contour>
        <pt x="592" y="1340" on="1"/>
        <pt x="615" y="1340" on="1"/>
        <pt x="660" y="1340" on="0"/>
        <pt x="796" y="1253" on="0"/>
        <pt x="876" y="1253" on="0"/>
        <pt x="972" y="1340" on="0"/>
        <pt x="979" y="1340" on="1"/>
        <pt x="985" y="1340" on="1"/>
        <pt x="1006" y="1340" on="0"/>
        <pt x="1006" y="1314" on="1"/>
        <pt x="1006" y="1256" on="0"/>
        <pt x="876" y="1159" on="0"/>
        <pt x="757" y="1159" on="0"/>
        <pt x="599" y="1243" on="0"/>
        <pt x="515" y="1243" on="0"/>
        <pt x="419" y="1156" on="0"/>
        <pt x="410" y="1156" on="1"/>
        <pt x="404" y="1156" on="1"/>
        <pt x="382" y="1156" on="0"/>
        <pt x="382" y="1180" on="1"/>
        <pt x="382" y="1231" on="0"/>
        <pt x="528" y="1340" on="0"/>
      </contour>
      <contour>
        <pt x="98" y="311" on="1"/>
        <pt x="98" y="351" on="1"/>
        <pt x="98" y="445" on="0"/>
        <pt x="142" y="563" on="1"/>
        <pt x="229" y="795" on="0"/>
        <pt x="428" y="909" on="1"/>
        <pt x="522" y="963" on="0"/>
        <pt x="624" y="963" on="1"/>
        <pt x="656" y="963" on="0"/>
        <pt x="835" y="921" on="0"/>
        <pt x="907" y="916" on="0"/>
        <pt x="914" y="913" on="1"/>
        <pt x="946" y="900" on="0"/>
        <pt x="946" y="806" on="0"/>
        <pt x="865" y="378" on="0"/>
        <pt x="865" y="263" on="0"/>
        <pt x="937" y="197" on="0"/>
        <pt x="937" y="127" on="0"/>
        <pt x="870" y="63" on="0"/>
        <pt x="785" y="63" on="0"/>
        <pt x="690" y="165" on="0"/>
        <pt x="623" y="165" on="0"/>
        <pt x="426" y="47" on="0"/>
        <pt x="225" y="47" on="0"/>
        <pt x="98" y="197" on="0"/>
      </contour>
    </TTGlyph>
    <TTGlyph name="b" xMin="111" yMin="4" xMax="992" yMax="1466">
      <contour>
        <pt x="299" y="269" on="1"/>
        <pt x="299" y="229" on="1"/>
        <pt x="299" y="168" on="0"/>
        <pt x="385" y="93" on="0"/>
        <pt x="463" y="93" on="1"/>
        <pt x="473" y="93" on="1"/>
        <pt x="484" y="94" on="1"/>
        <pt x="612" y="94" on="0"/>
        <pt x="722" y="236" on="1"/>
        <pt x="775" y="305" on="0"/>
        <pt x="839" y="519" on="0"/>
        <pt x="839" y="594" on="1"/>
        <pt x="839" y="615" on="1"/>
        <pt x="839" y="723" on="0"/>
        <pt x="755" y="846" on="0"/>
        <pt x="680" y="846" on="1"/>
        <pt x="660" y="846" on="1"/>
        <pt x="606" y="846" on="0"/>
        <pt x="458" y="756" on="0"/>
        <pt x="367" y="607" on="0"/>
        <pt x="299" y="368" on="0"/>
      </contour>
      <contour>
        <pt x="371" y="1466" on="1"/>
        <pt x="411" y="1466" on="1"/>
        <pt x="445" y="1466" on="0"/>
        <pt x="490" y="1412" on="0"/>
        <pt x="490" y="1317" on="0"/>
        <pt x="422" y="955" on="0"/>
        <pt x="422" y="910" on="1"/>
        <pt x="422" y="858" on="0"/>
        <pt x="480" y="858" on="1"/>
        <pt x="497" y="858" on="0"/>
        <pt x="678" y="917" on="0"/>
        <pt x="737" y="917" on="1"/>
        <pt x="857" y="917" on="0"/>
        <pt x="992" y="744" on="0"/>
        <pt x="992" y="497" on="0"/>
        <pt x="905" y="262" on="0"/>
        <pt x="834" y="180" on="1"/>
        <pt x="683" y="4" on="0"/>
        <pt x="480" y="4" on="1"/>
        <pt x="410" y="4" on="0"/>
        <pt x="239" y="64" on="0"/>
        <pt x="225" y="64" on="1"/>
        <pt x="179" y="60" on="1"/>
        <pt x="111" y="60" on="0"/>
        <pt x="111" y="112" on="1"/>
        <pt x="111" y="129" on="1"/>
        <pt x="111" y="130" on="0"/>
        <pt x="157" y="365" on="1"/>
        <pt x="197" y="578" on="1"/>
        <pt x="205" y="626" on="1"/>
        <pt x="210" y="650" on="1"/>
        <pt x="309" y="1178" on="0"/>
        <pt x="309" y="1253" on="0"/>
        <pt x="278" y="1338" on="0"/>
        <pt x="278" y="1411" on="0"/>
        <pt x="335" y="1466" on="0"/>
      </contour>
    </TTGlyph>
    <TTGlyph name="backslash" xMin="146" yMin="-175" xMax="719" yMax="1480">
      <contour>
        <pt x="719" y="-132" on="1"/>
        <pt x="719" y="-175" on="0"/>
        <pt x="673" y="-175" on="1"/>
        <pt x="656" y="-175" on="1"/>
        <pt x="608" y="-175" on="0"/>
        <pt x="589" y="-115" on="1"/>
        <pt x="587" y="-107" on="0"/>
        <pt x="394" y="568" on="0"/>
        <pt x="367" y="654" on="0"/>
        <pt x="225" y="1162" on="0"/>
        <pt x="146" y="1415" on="0"/>
        <pt x="146" y="1437" on="1"/>
        <pt x="146" y="1452" on="1"/>
        <pt x="146" y="1480" on="0"/>
        <pt x="191" y="1480" on="1"/>
        <pt x="208" y="1480" on="1"/>
        <pt x="257" y="1480" on="0"/>
        <pt x="276" y="1422" on="1"/>
        <pt x="670" y="43" on="1"/>
        <pt x="719" y="-129" on="0"/>
      </contour>
    </TTGlyph>
    <TTGlyph name="bar" xMin="182" yMin="-368" xMax="454" yMax="1510">
      <contour>
        <pt x="182" y="-343" on="1"/>
        <pt x="182" y="-326" on="1"/>
        <pt x="182" y="-248" on="0"/>
        <pt x="264" y="568" on="0"/>
        <pt x="320" y="1332" on="0"/>
        <pt x="336" y="1449" on="1"/>
        <pt x="344" y="1510" on="0"/>
        <pt x="400" y="1510" on="1"/>
        <pt x="419" y="1510" on="1"/>
        <pt x="454" y="1510" on="0"/>
        <pt x="454" y="1466" on="0"/>
        <pt x="438" y="1298" on="0"/>
        <pt x="422" y="1118" on="0"/>
        <pt x="410" y="992" on="0"/>
        <pt x="334" y="-28" on="0"/>
        <pt x="298" y="-305" on="1"/>
        <pt x="290" y="-368" on="0"/>
        <pt x="182" y="-368" on="0"/>
      </contour>
    </TTGlyph>
</ttFont>
